<?xml version="1.0" encoding="utf-8"?>
<!-- Generator: Adobe Illustrator 25.2.0, SVG Export Plug-In . SVG Version: 6.00 Build 0)  -->
<svg version="1.1" id="Layer_1" xmlns="http://www.w3.org/2000/svg" xmlns:xlink="http://www.w3.org/1999/xlink" x="0px" y="0px"
	 viewBox="0 0 1250 1222.16" style="enable-background:new 0 0 1250 1222.16;" xml:space="preserve">
<style type="text/css">
	.st0{fill:url(#SVGID_1_);}
	.st1{fill:url(#SVGID_2_);}
	.st2{fill:#C3C8DD;}
	.st3{clip-path:url(#SVGID_4_);fill:#334876;}
	.st4{fill:#93C1E6;}
	.st5{fill:none;stroke:#343D61;stroke-width:21.4858;stroke-miterlimit:10;}
	.st6{fill:#3F5688;stroke:#B9E4FA;stroke-width:3.1288;stroke-miterlimit:10;}
	.st7{fill:#304571;}
	.st8{fill:#6D97BE;}
	.st9{fill:none;stroke:#CEEBFB;stroke-width:3.1288;stroke-miterlimit:10;}
	.st10{fill:#7A9FBF;}
	.st11{fill:#C7D1EB;}
	.st12{fill:#B9E4FA;}
	.st13{fill:#96BACC;}
	.st14{fill:#E2F4FD;}
	.st15{fill:#343D61;}
</style>
<g>
	<linearGradient id="SVGID_1_" gradientUnits="userSpaceOnUse" x1="122.4869" y1="611.0111" x2="1126.1284" y2="611.0111">
		<stop  offset="0" style="stop-color:#E8DAEB"/>
		<stop  offset="1" style="stop-color:#D1D8E4"/>
	</linearGradient>
	<circle class="st0" cx="624.31" cy="611.01" r="501.82"/>
	
		<linearGradient id="SVGID_2_" gradientUnits="userSpaceOnUse" x1="195.6339" y1="634.952" x2="1034.8447" y2="634.952" gradientTransform="matrix(-0.6876 0.7261 -0.7261 -0.6876 1509.4177 601.2993)">
		<stop  offset="0" style="stop-color:#E8DAEB"/>
		<stop  offset="1" style="stop-color:#D1D8E4"/>
	</linearGradient>
	<circle class="st1" cx="625.35" cy="611.46" r="419.61"/>
	<g>
		<path class="st2" d="M865.03,929.27H749.81L474.15,438.23h-3.55v419.25l58.5,5.32v66.48h-188.8V862.8l50.52-5.32V382.38
			l-50.52-6.21v-67.36h229.57L782.6,706.8h3.55V382.38l-54.07-6.21v-67.36h182.59v67.36l-49.64,6.21V929.27z"/>
	</g>
	<g>
		<defs>
			<circle id="SVGID_3_" cx="625.35" cy="611.46" r="419.61"/>
		</defs>
		<clipPath id="SVGID_4_">
			<use xlink:href="#SVGID_3_"  style="overflow:visible;"/>
		</clipPath>
		<polygon class="st3" points="363.48,652.17 391.78,602.31 435.99,553.02 481.88,534.75 527.28,527.21 584.08,534.58 
			622.44,553.53 690,603.45 792.75,652.17 849.14,652.17 876.47,626.12 874.13,593.98 837.01,567.2 798.99,557.78 764.92,508.08 
			738.14,432.52 729.92,361.64 785.55,406.98 854.64,440.28 902.85,475.21 920.26,491.63 959.72,460 1048.6,427.59 1088.9,414.69 
			1124.17,392.09 1142.92,386.16 1146.5,413.4 1124.74,476.51 1087.13,533.93 1058.69,555.49 972.41,588 939.71,608.79 
			925.63,630.42 920.42,663.42 924.34,722.88 905.82,785.53 835.77,846.84 764.26,883.48 681.85,913.29 577.77,921.03 
			503.52,900.15 432.87,852.36 375,785.81 354.35,711.06 		"/>
	</g>
	<polygon class="st4" points="363.48,652.17 419.65,671.13 476.28,730.03 583.1,716.76 680.49,700.41 743.15,711.99 687.98,624.13 
		637.58,637.83 553.31,572.37 470.32,584.44 435.99,553.02 391.78,602.31 	"/>
	<circle class="st5" cx="625.35" cy="611.46" r="419.61"/>
	<g>
		<polygon class="st6" points="511.74,620.16 524.99,601.76 548.55,601.76 573.58,625.32 573.58,656.23 558.86,674.64 522.05,655.5 
					"/>
		<polygon class="st7" points="511.74,620.16 548.55,631.39 522.05,655.5 		"/>
		<polygon class="st7" points="548.55,631.39 558.86,674.64 573.58,656.23 		"/>
		<polygon class="st8" points="548.55,631.39 548.55,601.76 573.58,625.32 		"/>
		<polygon class="st9" points="511.74,620.16 524.99,601.76 548.55,601.76 573.58,625.32 573.58,656.23 558.86,674.64 522.05,655.5 
					"/>
	</g>
	<polygon class="st10" points="480.39,722.39 582.42,711.65 485.09,707.41 419.31,667.38 	"/>
	<polygon class="st10" points="610.57,706.09 677.31,682.93 731.34,706.09 677.77,694.51 	"/>
	<polygon class="st11" points="546.55,578.5 636,651.15 689.12,634.89 637.81,644.9 	"/>
	<polygon class="st4" points="689.7,793.48 748.99,830.78 841.16,835.87 869.7,824.65 886.94,804.91 864.47,772.65 828.25,760.5 
		778.47,777.4 752,798.18 697.84,787.22 	"/>
	<g>
		<path class="st12" d="M427.79,632.66L216.96,329.04l250.01,261.84C466.98,590.88,470.74,642.47,427.79,632.66z"/>
		<polygon class="st13" points="381.32,541.62 466.98,590.88 340.13,458.02 		"/>
		<polygon class="st14" points="367.75,546.19 434.16,605.12 427.79,632.66 		"/>
		<polygon class="st13" points="349.42,519.8 332.13,463.16 279.96,419.76 		"/>
		<polygon class="st14" points="216.96,329.04 290.26,419.76 331.38,448.86 		"/>
	</g>
	<polygon class="st4" points="379.02,778.22 441.9,844.62 500.86,888.1 577.64,913.37 680.48,904.56 807.41,850.49 668.14,892.8 
		579.99,902.79 504.78,876.94 452.48,835.87 	"/>
	<polygon class="st4" points="379.02,750.01 443.07,815.24 514.77,867.53 582.42,893.98 670.96,886.34 788.32,851.08 656.97,878.7 
		587.04,886.34 521.23,856.96 453.65,808.77 	"/>
	<polyline class="st15" points="201.85,689.2 123.74,611.08 201.85,532.96 	"/>
	<polyline class="st15" points="1049.4,532.96 1127.51,611.08 1049.4,689.2 	"/>
	<polyline class="st15" points="547.51,187.31 625.62,109.19 703.74,187.31 	"/>
	<polyline class="st15" points="703.74,1034.85 625.62,1112.97 547.51,1034.85 	"/>
</g>
</svg>
