<svg width="205" height="198" viewBox="0 0 205 198" fill="none" xmlns="http://www.w3.org/2000/svg">
<path d="M84.3664 118.48C86.8125 118.47 89.2538 118.706 91.6532 119.185L91.1823 104.139V103.434C91.1823 97.0853 98.9398 93.0882 109.52 90.739H109.521C105.489 74.1164 93.7344 60.4332 77.9088 53.9433C62.0832 47.4538 44.1058 48.9403 29.5659 57.9451C15.0227 66.95 5.67755 82.3786 4.43174 99.4377L0.200195 172.084H47.4569C45.5765 167.619 44.6155 162.82 44.6347 157.976C44.6347 147.46 48.8276 137.379 56.2864 129.965C63.7452 122.551 73.8507 118.416 84.368 118.479L84.3664 118.48Z" fill="#284C7B"/>
<path d="M94.9481 127.412L93.5371 126.941L93.5387 126.942C90.5783 125.981 87.4812 125.506 84.37 125.531C73.168 125.383 62.6494 130.904 56.4073 140.208C50.1651 149.51 49.0435 161.335 53.426 171.645C57.8085 181.955 67.1011 189.354 78.1311 191.315C89.161 193.276 100.435 189.534 108.103 181.365C115.771 173.197 118.793 161.71 116.14 150.826C113.487 139.942 105.515 131.135 94.9482 127.412L94.9481 127.412ZM84.3699 180.309C78.4943 180.307 72.861 177.969 68.7146 173.806C64.5683 169.646 62.249 164.005 62.2717 158.129C62.2926 152.255 64.6519 146.63 68.8274 142.5C73.0042 138.368 78.6535 136.068 84.5275 136.11C90.4015 136.151 96.0187 138.53 100.136 142.721C104.252 146.913 106.531 152.57 106.469 158.444C106.407 164.265 104.051 169.826 99.9145 173.919C95.7759 178.012 90.1896 180.309 84.3703 180.309H84.3699Z" fill="#284C7B"/>
<path d="M84.3662 143.4C80.3757 143.4 76.5474 144.984 73.7254 147.807C70.9049 150.629 69.3186 154.455 69.3186 158.446C69.3186 162.436 70.9049 166.263 73.7254 169.085C76.5476 171.907 80.3757 173.492 84.3662 173.492C88.3566 173.492 92.1833 171.907 95.0053 169.085C97.8259 166.263 99.4121 162.436 99.4121 158.446C99.4121 154.455 97.8259 150.629 95.0053 147.807C92.1832 144.984 88.3566 143.4 84.3662 143.4ZM98.4741 112.366V121.3C102.108 122.661 105.516 124.564 108.583 126.943H109.054C116.442 128.722 124.023 129.591 131.623 129.529C150.431 129.529 162.186 125.297 165.477 122.711V112.601C156.543 116.598 142.437 118.243 131.623 118.243C120.808 118.243 106.231 116.363 98.4739 112.366L98.4741 112.366ZM98.2395 103.195C98.2395 105.075 108.585 111.189 131.625 111.189C149.962 111.189 161.953 107.192 165.479 104.606V103.901C165.529 103.327 165.688 102.768 165.95 102.255C162.893 99.6691 150.668 95.4376 131.625 95.4376C108.585 95.436 98.2393 101.549 98.2393 103.195L98.2395 103.195ZM40.405 45.3605C43.15 44.3801 45.9848 43.6714 48.8681 43.2439L41.5797 20.675H41.5813C40.9963 18.7914 42.0489 16.7921 43.9309 16.2073C45.8145 15.6239 47.8138 16.6766 48.3986 18.5585L55.9216 42.7731H62.739L66.0304 25.8449V25.8465C66.1413 24.9192 66.6395 24.0835 67.4013 23.5467C68.1631 23.0083 69.1177 22.8187 70.0273 23.0244C70.9723 23.1948 71.8064 23.7412 72.34 24.5399C72.872 25.3387 73.0552 26.319 72.8495 27.2576L69.7927 43.7148L75.2009 45.1259L98.0048 2.80631C98.2185 2.40935 98.1205 1.91594 97.7701 1.62987C97.558 1.19433 97.0485 0.990222 96.5937 1.1606L89.3069 2.80631C73.2661 6.56059 56.6337 7.0395 40.4045 4.21739L18.5407 0.455078C17.8352 0.455078 17.3659 0.689719 17.3659 0.925957H17.3643C17.0364 1.3181 16.9464 1.85809 17.1297 2.33543L40.405 45.3605ZM204.034 171.611V162.208C196.04 166.205 182.64 168.32 169.945 168.32C157.251 168.32 144.789 166.44 136.797 162.443V172.552C139.617 175.608 151.843 179.606 169.711 179.606C187.578 179.606 203.8 173.963 204.035 171.611H204.034ZM169.943 161.268C191.572 161.268 203.563 155.625 204.032 153.274C203.561 150.923 191.572 145.517 169.943 145.517C148.313 145.517 136.558 151.394 136.558 153.276C136.558 155.156 146.903 161.268 169.943 161.268V161.268ZM204.269 180.309C196.275 184.541 182.875 186.657 169.943 186.657C157.014 186.656 145.023 184.775 137.265 180.779V189.947C137.265 191.828 147.611 197.941 170.651 197.941C193.691 197.941 204.27 192.064 204.27 189.947L204.269 180.309ZM165.479 130.703C156.78 134.935 142.439 136.58 131.625 136.58C126.749 136.635 121.876 136.32 117.048 135.64C119.626 139.186 121.537 143.168 122.691 147.396L131.625 147.867H131.86C137.268 141.99 151.374 138.933 165.479 138.464L165.479 130.703ZM129.977 173.492L121.514 173.021V173.022C119.937 176.796 117.884 180.351 115.401 183.602C120.296 184.411 125.251 184.804 130.212 184.777V173.492L129.977 173.492ZM129.977 166.205V155.156H124.1V158.919C124.098 161.442 123.862 163.96 123.394 166.442L129.977 166.205Z" fill="#284C7B"/>
</svg>
