<?xml version="1.0" encoding="iso-8859-1"?>
<!-- Generator: Adobe Illustrator 19.0.0, SVG Export Plug-In . SVG Version: 6.00 Build 0)  -->
<svg version="1.1" id="Layer_1" xmlns="http://www.w3.org/2000/svg" xmlns:xlink="http://www.w3.org/1999/xlink" x="0px" y="0px"
	 viewBox="0 0 512 512" style="enable-background:new 0 0 512 512;" xml:space="preserve">
<g transform="translate(1 1)">
	<path style="fill:#D0E8F9;" d="M281.483,502.172C162.31,502.172,65.207,391.828,65.207,255S162.31,7.828,281.483,7.828
		S497.759,118.172,497.759,255S400.655,502.172,281.483,502.172L281.483,502.172z"/>
	<path style="fill:#0096E6;" d="M281.483,511C157.014,511,56.379,396.241,56.379,255S157.014-1,281.483-1
		s225.103,114.759,225.103,256S405.952,511,281.483,511z M281.483,16.655C166.724,16.655,74.034,123.469,74.034,255
		s92.69,238.345,207.448,238.345S488.931,386.531,488.931,255S396.241,16.655,281.483,16.655z"/>
	<path style="fill:#FFFFFF;" d="M65.207,255C65.207,128.766,148.186,24.6,255,9.593c-8.828-0.883-17.655-1.766-26.483-1.766
		C109.345,7.828,12.241,118.172,12.241,255s97.103,247.172,216.276,247.172c8.828,0,17.655-0.883,26.483-1.766
		C148.186,485.4,65.207,381.234,65.207,255L65.207,255z"/>
	<g>
		<path style="fill:#0096E6;" d="M228.517,511C104.048,511,3.414,396.241,3.414,255S104.048-1,228.517-1
			c8.828,0,17.655,0.883,27.366,1.766v17.655C152.6,32.545,74.034,134.945,74.034,255S152.6,477.455,255.883,491.579v17.655
			C246.172,510.117,237.345,511,228.517,511z M191.441,20.186C94.338,40.49,21.069,138.476,21.069,255
			s73.269,214.51,170.372,234.814C111.11,449.207,56.379,358.283,56.379,255S111.11,60.793,191.441,20.186z"/>
		<path style="fill:#0096E6;" d="M157.897,466.862h-52.966c-5.297,0-8.828-3.531-8.828-8.828s3.531-8.828,8.828-8.828h52.966
			c5.297,0,8.828,3.531,8.828,8.828S163.193,466.862,157.897,466.862z M115.524,422.724H62.559c-5.297,0-8.828-3.531-8.828-8.828
			s3.531-8.828,8.828-8.828h52.966c5.297,0,8.828,3.531,8.828,8.828S120.821,422.724,115.524,422.724z M86.393,369.759H33.428
			c-5.297,0-8.828-3.531-8.828-8.828s3.531-8.828,8.828-8.828h52.966c5.297,0,8.828,3.531,8.828,8.828
			S90.807,369.759,86.393,369.759z M72.269,325.621H19.303c-5.297,0-8.828-3.531-8.828-8.828s3.531-8.828,8.828-8.828h52.966
			c5.297,0,8.828,3.531,8.828,8.828S76.683,325.621,72.269,325.621z M65.207,281.483H13.124c-5.297,0-8.828-3.531-8.828-8.828
			c0-5.297,3.531-8.828,8.828-8.828h52.083c5.297,0,8.828,3.531,8.828,8.828C74.034,277.952,70.503,281.483,65.207,281.483z
			 M66.09,237.345H13.124c-5.297,0-8.828-3.531-8.828-8.828s3.531-8.828,8.828-8.828H66.09c5.297,0,8.828,3.531,8.828,8.828
			S71.386,237.345,66.09,237.345z M74.034,193.207H21.069c-5.297,0-8.828-3.531-8.828-8.828s3.531-8.828,8.828-8.828h52.966
			c5.297,0,8.828,3.531,8.828,8.828S79.331,193.207,74.034,193.207z M89.924,149.069H36.959c-5.297,0-8.828-3.531-8.828-8.828
			s3.531-8.828,8.828-8.828h52.966c5.297,0,8.828,3.531,8.828,8.828S94.338,149.069,89.924,149.069z M122.586,96.103H69.621
			c-5.297,0-8.828-3.531-8.828-8.828s3.531-8.828,8.828-8.828h52.966c5.297,0,8.828,3.531,8.828,8.828
			S127.883,96.103,122.586,96.103z M169.372,51.966H117.29c-5.297,0-8.828-3.531-8.828-8.828s3.531-8.828,8.828-8.828h52.083
			c5.297,0,8.828,3.531,8.828,8.828S174.669,51.966,169.372,51.966z"/>
		<path style="fill:#0096E6;" d="M282.366,453.621L282.366,453.621c-7.062,0-13.241,0-19.421-0.883
			c-4.414-0.883-7.945-5.297-7.945-9.71c0.883-4.414,5.297-7.945,9.71-7.945c5.297,0.883,10.593,0.883,16.772,0.883
			c5.297,0,8.828,3.531,8.828,8.828S286.779,453.621,282.366,453.621z M333.566,443.91c-3.531,0-7.062-1.766-7.945-5.297
			c-1.766-4.414,0.883-9.71,5.297-11.476c5.297-1.766,10.593-4.414,15.007-7.062c4.414-2.648,9.71-0.883,11.476,3.531
			c2.648,4.414,0.883,9.71-3.531,11.476c-5.297,2.648-11.476,5.297-16.772,7.062C335.331,443.91,334.448,443.91,333.566,443.91z
			 M214.393,437.731c-1.766,0-2.648,0-4.414-0.883c-5.297-2.648-10.593-6.179-15.89-8.828c-4.414-2.648-5.297-7.945-2.648-12.359
			c2.648-4.414,7.945-5.297,12.359-2.648c4.414,2.648,9.71,6.179,14.124,7.945s6.179,7.945,3.531,11.476
			C220.572,435.966,217.041,437.731,214.393,437.731z M391.828,405.952c-2.648,0-4.414-0.883-6.179-2.648
			c-3.531-3.531-3.531-8.828,0-12.359c3.531-3.531,7.945-7.945,11.476-12.359c2.648-3.531,8.828-4.414,12.359-0.883
			c3.531,2.648,4.414,8.828,0.883,12.359c-3.531,4.414-7.945,9.71-12.359,13.241C396.241,405.069,393.593,405.952,391.828,405.952z
			 M160.545,393.593c-2.648,0-5.297-0.883-7.062-3.531c-3.531-4.414-7.945-9.71-10.593-15.007c-2.648-4.414-1.766-9.71,2.648-12.359
			c4.414-2.648,9.71-1.766,12.359,2.648c3.531,4.414,6.179,8.828,9.71,13.241c3.531,3.531,2.648,9.71-0.883,12.359
			C164.076,392.71,162.31,393.593,160.545,393.593z M430.669,348.572c-0.883,0-2.648,0-3.531-0.883
			c-4.414-1.766-6.179-7.062-4.414-11.476c1.766-5.297,4.414-10.593,6.179-15.89c1.766-4.414,6.179-7.062,11.476-5.297
			c4.414,1.766,7.062,6.179,5.297,11.476c-1.766,6.179-4.414,11.476-6.179,16.772C436.848,346.807,434.2,348.572,430.669,348.572z
			 M126.117,332.683c-3.531,0-7.062-2.648-7.945-6.179c-1.766-5.297-3.531-11.476-5.297-17.655
			c-0.883-4.414,1.766-9.71,6.179-10.593c4.414-0.883,9.71,1.766,10.593,6.179c1.766,5.297,2.648,10.593,4.414,15.89
			c1.766,4.414-0.883,9.71-5.297,11.476C128.766,332.683,127.883,332.683,126.117,332.683z M447.441,280.6
			C446.559,280.6,446.559,280.6,447.441,280.6c-5.297,0-8.828-4.414-8.828-9.71c0-5.297,0.883-10.593,0.883-15.89
			c0-5.297,3.531-8.828,8.828-8.828s8.828,3.531,8.828,8.828l0,0c0,6.179,0,11.476-0.883,17.655
			C455.386,277.069,451.855,280.6,447.441,280.6z M115.524,263.828c-5.297,0-8.828-3.531-8.828-8.828l0,0
			c0-6.179,0-12.359,0.883-17.655c0-5.297,4.414-8.828,9.71-7.945c5.297,0,8.828,4.414,7.945,9.71
			c0,5.297-0.883,11.476-0.883,16.772C124.352,260.297,119.938,263.828,115.524,263.828z M441.262,211.745
			c-3.531,0-7.945-2.648-8.828-7.062c-1.766-5.297-2.648-10.593-4.414-15.89c-1.766-4.414,0.883-9.71,5.297-11.476
			c4.414-1.766,9.71,0.883,11.476,5.297c1.766,5.297,3.531,11.476,5.297,17.655c0.883,4.414-1.766,9.71-6.179,10.593
			C443.028,210.862,442.145,211.745,441.262,211.745z M126.117,194.972c-0.883,0-1.766,0-2.648-0.883
			c-4.414-1.766-7.062-6.179-5.297-11.476c1.766-5.297,4.414-11.476,6.179-16.772c1.766-4.414,7.062-6.179,11.476-4.414
			c4.414,1.766,6.179,7.062,4.414,11.476c-2.648,5.297-4.414,10.593-6.179,15.89C133.179,193.207,129.648,194.972,126.117,194.972z
			 M413.014,147.303c-2.648,0-5.297-1.766-7.062-3.531c-3.531-4.414-6.179-8.828-9.71-13.241c-3.531-3.531-2.648-9.71,0.883-12.359
			c3.531-3.531,9.71-2.648,12.359,0.883c3.531,4.414,7.945,9.71,10.593,15.007c2.648,4.414,1.766,9.71-2.648,12.359
			C416.545,147.303,414.779,147.303,413.014,147.303z M159.662,134.062c-1.766,0-3.531-0.883-5.297-1.766
			c-3.531-2.648-4.414-8.828-0.883-12.359c3.531-4.414,7.945-9.71,12.359-13.241c3.531-3.531,8.828-3.531,12.359,0
			c3.531,3.531,3.531,8.828,0,12.359c-3.531,3.531-7.945,7.945-11.476,12.359C164.959,133.179,162.31,134.062,159.662,134.062z
			 M363.579,98.752c-1.766,0-3.531-0.883-4.414-1.766c-4.414-2.648-9.71-6.179-14.124-7.945c-4.414-1.766-6.179-7.945-3.531-11.476
			c1.766-4.414,7.062-6.179,11.476-3.531c5.297,2.648,10.593,6.179,15.89,8.828c4.414,2.648,5.297,7.945,2.648,12.359
			C369.759,96.986,366.228,98.752,363.579,98.752z M213.51,89.924c-3.531,0-6.179-1.766-7.945-4.414
			c-2.648-4.414-0.883-9.71,3.531-11.476c5.297-2.648,11.476-5.297,16.772-7.062c4.414-1.766,9.71,0.883,11.476,5.297
			c1.766,4.414-0.883,9.71-5.297,11.476c-5.297,1.766-10.593,4.414-15.007,7.062C216.159,89.924,215.276,89.924,213.51,89.924z
			 M298.255,74.917h-0.883c-5.297-0.883-10.593-0.883-15.89-0.883s-8.828-3.531-8.828-8.828c0-5.297,3.531-8.828,8.828-8.828v8.828
			v-8.828c6.179,0,12.359,0,18.538,0.883c4.414,0.883,7.945,5.297,7.945,9.71C307.083,71.386,302.669,74.917,298.255,74.917z"/>
		<path style="fill:#0096E6;" d="M281.483,376.821c-5.297,0-8.828-3.531-8.828-8.828v-12.359
			c-18.538-2.648-29.131-5.297-44.138-17.655v11.476c0,5.297-3.531,8.828-8.828,8.828s-8.828-3.531-8.828-8.828v-54.731
			c0-5.297,3.531-8.828,8.828-8.828s8.828,3.531,8.828,8.828v19.421c9.71,9.71,15.89,14.124,31.779,19.421
			c3.531,1.766,7.945,2.648,12.359,3.531v-84.745c-16.772-4.414-30.014-8.828-37.959-13.241
			c-9.71-4.414-16.772-10.593-22.069-17.655c-5.297-7.062-7.945-15.007-7.945-24.717c0-17.655,6.179-30.897,16.772-41.49
			c10.593-9.71,28.248-15.007,50.317-15.007v-11.476c0-5.297,3.531-8.828,8.828-8.828c5.297,0,8.828,3.531,8.828,8.828v12.359
			c15.89,2.648,30.014,8.828,40.607,16.772c2.648,1.766,1.766,3.531,3.531,5.297v-11.476c0-5.297,3.531-8.828,8.828-8.828
			s8.828,3.531,8.828,8.828v54.731c0,5.297-3.531,8.828-8.828,8.828s-8.828-3.531-8.828-8.828V187.91
			c-9.71-10.593-18.538-19.421-32.662-25.6c-3.531-1.766-7.062-2.648-11.476-3.531v78.566c2.648,0.883,7.062,1.766,13.241,3.531
			c10.593,2.648,21.186,6.179,30.014,10.593c9.71,4.414,16.772,10.593,22.069,17.655c5.297,7.062,7.945,15.89,7.945,25.6
			c0,18.538-6.179,33.545-19.421,44.138c-12.359,10.593-30.014,15.89-52.966,15.89v11.476
			C290.31,373.29,286.779,376.821,281.483,376.821L281.483,376.821z M247.055,337.979c1.766,0.883,2.648,1.766,4.414,1.766
			C249.703,339.745,248.821,338.862,247.055,337.979L247.055,337.979z M290.31,257.648v81.214c17.655,0,31.779-4.414,41.49-11.476
			c9.71-7.945,14.124-17.655,14.124-30.014c0-6.179-1.766-11.476-6.179-16.772c-4.414-5.297-9.71-8.828-15.89-11.476
			c-6.179-2.648-13.241-5.297-19.421-7.062L290.31,257.648L290.31,257.648z M340.628,330.917c-0.883,0.883-2.648,2.648-4.414,3.531
			c-1.766,1.766-4.414,3.531-7.062,4.414c2.648-1.766,5.297-3.531,7.945-5.297C338.862,332.683,339.745,331.8,340.628,330.917
			L340.628,330.917z M272.655,158.779c-16.772,0-30.014,4.414-37.959,10.593c-8.828,7.062-12.359,15.89-12.359,26.483
			c0,6.179,1.766,11.476,6.179,16.772s9.71,8.828,15.89,11.476c6.179,2.648,13.241,5.297,18.538,7.062
			c3.531,0.883,7.062,1.766,9.71,2.648V158.779L272.655,158.779z"/>
	</g>
</g>
<g>
</g>
<g>
</g>
<g>
</g>
<g>
</g>
<g>
</g>
<g>
</g>
<g>
</g>
<g>
</g>
<g>
</g>
<g>
</g>
<g>
</g>
<g>
</g>
<g>
</g>
<g>
</g>
<g>
</g>
</svg>
