<svg id="Layer_1" data-name="Layer 1" xmlns="http://www.w3.org/2000/svg" xmlns:xlink="http://www.w3.org/1999/xlink" viewBox="0 0 951.59 916.94"><defs><style>.cls-1{fill:url(#linear-gradient);}.cls-14,.cls-2{fill:none;}.cls-2{stroke:#485166;stroke-width:22.28px;}.cls-14,.cls-2,.cls-6{stroke-miterlimit:10;}.cls-3{fill:#334876;}.cls-4{fill:#93c1e6;}.cls-5,.cls-6{fill:#3f5688;}.cls-6{stroke:#b9e4fa;}.cls-14,.cls-6{stroke-width:3.71px;}.cls-7{fill:#304571;}.cls-8{fill:#6d97be;}.cls-9{fill:#1c233b;}.cls-10{fill:#7a9fbf;}.cls-11{fill:#b9e4fa;}.cls-12{fill:#96bacc;}.cls-13{fill:#e2f4fd;}.cls-14{stroke:#ceebfb;}.cls-15{fill:#c7d1eb;}</style><linearGradient id="linear-gradient" x1="43.4" y1="463.4" x2="913.47" y2="463.4" gradientUnits="userSpaceOnUse"><stop offset="0" stop-color="#e8daeb"/><stop offset="1" stop-color="#d1d8e4"/></linearGradient></defs><circle class="cls-1" cx="478.44" cy="463.4" r="435.03"/><circle class="cls-2" cx="478.44" cy="463.4" r="435.03"/><polyline class="cls-3" points="210.74 518.63 374.6 480 259.29 314.02 257.54 184.74 288.99 125.33 352.76 125.33 409.54 81.66 512.62 81.66 682.09 158.53 813.77 270.78 875.79 417.11 848.07 625.01 720.53 743.82 594.73 827.68 491.65 845.15 362.37 829.43 222.6 749.06 117.77 626.76 81.08 511.45"/><polygon class="cls-4" points="253.42 357.52 323.81 338.48 390.22 367.05 467.25 367.05 545.61 316.12 616 373.26 638.58 456.48 638.58 554.61 695.69 447.79 681.08 331.03 750.14 416.73 760.77 481.32 727.57 616.71 804.6 517.35 804.6 378.23 767.41 262.71 698.35 185.7 591.01 148.05 489.24 91.27 398.19 116.14 357.02 142.22 319.83 140.98 282.64 163.34 268.03 198.12 233.5 235.38 217.56 286.31 225.53 319.85 253.42 357.52"/><polygon class="cls-5" points="200.09 285.2 214.94 240.65 262.99 185.61 294.44 189.98 332.87 148.05 432.46 170.76 478.44 216.62 496.23 248.51 496.23 334.99 401.88 291.31 359.95 268.6 304.92 283.45 273.85 334.99 249.88 368.19 214.94 328.88 200.09 285.2"/><polygon class="cls-6" points="452.55 135.82 468.28 113.98 496.23 113.98 525.93 141.93 525.93 178.62 508.46 200.46 464.78 177.75 452.55 135.82"/><polygon class="cls-7" points="452.55 135.82 496.23 149.14 464.78 177.75 452.55 135.82"/><polygon class="cls-7" points="496.23 149.14 508.46 200.46 525.93 178.62 496.23 149.14"/><polygon class="cls-8" points="496.23 149.14 496.23 113.98 525.93 141.93 496.23 149.14"/><polygon class="cls-9" points="217.56 331.82 236.56 287.98 281.33 278.59 304.92 283.45 259.93 374.3 238.45 355.32 217.56 331.82"/><polygon class="cls-9" points="359.95 268.6 446.87 268.6 496.23 334.99 433.77 306.16 398.96 289.73 359.95 268.6"/><polygon class="cls-10" points="267.79 348.97 333.31 301.8 390.22 367.05 322.61 344.82 267.79 348.97"/><polygon class="cls-10" points="467.25 367.05 549.78 283.45 616 373.26 545.61 316.12 467.25 367.05"/><polygon class="cls-10" points="638.58 554.61 664.39 452.05 616 373.26 638.58 456.48 638.58 554.61"/><polygon class="cls-10" points="727.57 616.71 760.77 481.32 750.14 416.73 782.32 490.48 727.57 616.71"/><polygon class="cls-5" points="81.08 511.45 200.09 582.21 117.77 626.76 250.32 665.35 222.6 749.06 467.76 739.46 554.34 788.15 664.39 747.31 848.07 625.01 713.04 758.67 594.73 827.68 478.44 852.14 362.37 829.43 247.47 763.36 224.18 749.97 220.3 746.38 120.71 630.19 116.41 622.48 81.08 511.45"/><polygon class="cls-11" points="236.56 318.41 259.93 287.38 293 288.7 288.93 423.26 310.43 549.4 372.18 687.99 405.11 745.62 411.97 788.15 373.55 768.94 326.9 705.82 263.78 561.75 240.45 419.05 236.56 318.41"/><polygon class="cls-12" points="259.93 287.38 288.93 423.26 293 288.7 259.93 287.38"/><polygon class="cls-13" points="263.78 561.75 352.76 693.15 373.55 768.94 326.9 705.82 263.78 561.75"/><polygon class="cls-12" points="411.97 788.15 378.1 738.58 405.11 745.62 411.97 788.15"/><polygon class="cls-11" points="396.83 278.59 436.17 280.17 467.76 308.05 465.17 393.78 486.67 519.92 548.41 658.5 581.34 716.13 588.21 758.67 549.78 739.46 503.13 676.34 440.02 532.27 416.69 389.57 396.83 278.59"/><polygon class="cls-12" points="436.17 280.17 466.29 356.65 467.76 308.05 436.17 280.17"/><polygon class="cls-13" points="440.02 532.27 529 663.67 549.78 739.46 503.13 676.34 440.02 532.27"/><polygon class="cls-12" points="588.21 758.67 554.34 709.09 581.34 716.13 588.21 758.67"/><polygon class="cls-14" points="452.55 135.82 468.28 113.98 496.23 113.98 525.93 141.93 525.93 178.62 508.46 200.46 464.78 177.75 452.55 135.82"/><polygon class="cls-10" points="554.05 278.59 654.29 368.19 675.26 454.01 636.61 368.19 554.05 278.59"/><polygon class="cls-10" points="696.88 328.35 768.29 407.5 793.19 492.01 776.81 400.94 696.88 328.35"/><polygon class="cls-15" points="622.19 169.67 693.61 193.25 758.47 265.32 681.81 200.46 622.19 169.67"/><polygon class="cls-13" points="240.45 419.05 310.43 549.4 263.78 561.75 240.45 419.05"/><polygon class="cls-13" points="440.02 532.27 486.67 519.92 405.39 326.44 440.02 532.27"/><polygon class="cls-12" points="486.67 519.92 529 663.67 548.41 658.5 486.67 519.92"/><polygon class="cls-12" points="310.43 549.4 352.76 693.15 372.18 687.99 310.43 549.4"/><polygon class="cls-12" points="239.77 401.37 249.08 301.8 236.56 318.41 239.77 401.37"/><polygon class="cls-12" points="396.83 278.59 436.17 340.23 432.18 390.21 405.39 326.44 396.83 278.59"/></svg>