<svg xmlns="http://www.w3.org/2000/svg" xmlns:xlink="http://www.w3.org/1999/xlink" viewBox="0 0 3382.71 1902.77"><defs><style>.cls-1{fill:url(#linear-gradient);}.cls-2{fill:url(#linear-gradient-2);}.cls-3{fill:#e1e1f9;}.cls-4{fill:#c6c6e5;}.cls-5{fill:#b9b9d6;}.cls-6{fill:url(#linear-gradient-3);}.cls-7{fill:#fff;}.cls-8{fill:#dae6f2;}.cls-9{fill:#c4d8e1;}.cls-10{fill:#e6f4ff;}.cls-11{fill:#bdcbf4;}</style><linearGradient id="linear-gradient" x1="1692.35" y1="-58.61" x2="1692.35" y2="1298.39" gradientUnits="userSpaceOnUse"><stop offset="0" stop-color="#e9daeb"/><stop offset="1" stop-color="#c4ccfe"/></linearGradient><linearGradient id="linear-gradient-2" x1="1692.35" y1="1269.39" x2="1692.35" y2="2156.39" gradientUnits="userSpaceOnUse"><stop offset="0" stop-color="#ecffff"/><stop offset="1" stop-color="#95c8fe"/></linearGradient><linearGradient id="linear-gradient-3" x1="1692.35" y1="1133.09" x2="1692.35" y2="1332.41" gradientUnits="userSpaceOnUse"><stop offset="0" stop-color="#f2ffff"/><stop offset="0.55" stop-color="#f0feff"/><stop offset="0.75" stop-color="#e9fbff"/><stop offset="0.89" stop-color="#def6ff"/><stop offset="1" stop-color="#ceefff"/></linearGradient></defs><g id="Layer_3" data-name="Layer 3"><rect class="cls-1" x="-54.65" y="-58.61" width="3494" height="1357"/><rect class="cls-2" x="-54.65" y="1269.39" width="3494" height="887"/><path class="cls-3" d="M-113.65,1141.78l262.59-78.44,132.71-37.65,61.05-49.37,63.07-43.4,107.93-48L538,876.48l62.38-84.74,26.54-21.66,29,8v50.42l38.26,36.62,9.09,39.24,41.86,51.54,16.67,30.59,21.68,57.86,21.69,19,52.42,20,70.7,58.46,65.11-2.39,82.94-76.05,40.43-19,65.7-49.49,55.23-18.57,41.4-20.39,69.89-50.54h14l73.62,24.7,25.32,25.84,56.47,30.6s68.36,11.55,93.18,21.21,80.82,36.64,80.82,36.64,37,29,46,35,60,23,60,23l61.65,62,73.35-3,51.14-37.55,49.56-5.45,26.3-41,14.24-14.05,31.06-15.6,14.11,14.33,31.06,1.27,26.78-15.6,15.58-3.36,33.88-15.26h33.88l42.12,15.26,22.82,19,31.47,39.05,33.47,12,77.53-34.65,12.83-16.4,71.35-19,68.07-32.3,37.78-17.19,38.71-45,29.39-8.47,54.45-36,72.38-1,67.89,34.17s12.15,13.5,26.15,22.16,8.63,2.54,35.31,15.6S3052,1003,3052,1003l61.65-16.44L3139,960.72l8.7-25,53.77,16.94,21.07,23.64,22.11,18.57,93.18,5.78,76.49,47.07L3528,1250.41v48H-144.71l31.06-141.63Z"/><path class="cls-4" d="M-113.65,1107.84,94.68,889.39l43.67,17.23,29,14.12,36.3-14.12L230,915.09l34.35,17.3,66,24.29,30.36,3.37,14.64,37.34,61.78,13.3H538l34.51,3.72,27.87,16,16.16,27.29,63.77-9.34,43.7,51.05h52.34l66.31-26.18,66.15-26.14h56.16l54,17.67,32.39,22.59,39.78,12.06,63.65-14.89,27.68-14.11,33.82-37.65,21.41-3.36h41.4l55.77-29.57,28.12-2.73h45.3l14.11,17.33,14.21,61.62,47.91,23.36,42.35,8.45,166.59,33.94,115.77,5.67,87.53-5.67,87.78-33.94,22.33-4.45h76.24s44.94,25.12,62.12,44.06,43.36,39.64,43.36,39.64l63.93,3h112.94l66.66-22.29,36.28-26.06,35.41-15h95.16l29.94,15h99.79l57.88,19,49.41-13.29,36.62-48.06,38.51-51.05,58.58-19s27.64-15.52,36.17-15.26,49.67.29,49.67.29l35.57,15,25.92,10.38,43.35,8.58,103,16.05,175.83,62.39V1324.5H-113.65Z"/><polygon class="cls-5" points="439.22 1218.56 565.35 1132.39 616.5 1040.68 672.64 1005.39 703.22 980.39 732.35 995.39 770.35 1045.39 816.29 1057.62 842.63 1081.62 872.35 1086.39 921.35 1071.39 959.35 1077.39 993.35 1107.39 1041.35 1139.39 1079.35 1152.39 1138.35 1163.39 1195.35 1156.39 1238.35 1145.39 1275.35 1156.39 1339.35 1186.39 1364.35 1187.39 1449.35 1196.39 1501.41 1233.39 1594.35 1253.39 1686.35 1269.75 1768.23 1242.42 1838.82 1242.42 1926.35 1194.39 1975.35 1204.39 2045.35 1187.39 2098.35 1210.39 2153.35 1193.39 2224.35 1146.39 2286.35 1125.07 2324.47 1109.78 2389.35 1118.39 2461.41 1173.13 2539.72 1180.44 2577.23 1173.13 2612.35 1156.39 2658.38 1170.09 2681.63 1187.5 2717.35 1186.39 2752.35 1153.39 2758.5 1109.78 2775.67 1095.74 2794.59 1082.39 2832.68 1099.97 2853.31 1087.27 2887.76 1082.39 2906.26 1102.8 2921.2 1098.56 2942.82 1082.39 2983.35 1056.39 3019.11 1046.33 3043.35 1047.39 3055.49 1057.62 3099.35 1040.39 3130.35 1009.39 3170.35 965.39 3201.5 920.68 3218.35 872.39 3263.35 884.39 3298.35 915.39 3342.35 935.36 3377.35 941.39 3403.35 957.39 3403.35 1309.3 -113.65 1309.3 439.22 1218.56"/><polygon class="cls-6" points="-12.71 1224.44 626.88 1179.68 805.12 1156.39 937.41 1189.41 1115.29 1213.42 1350.35 1224.44 1574.82 1269.67 1718.82 1269.67 1983.53 1224.44 2144.47 1243.9 2354.35 1190.39 2487.53 1204.39 2648.26 1234.3 2850.58 1213.03 3414.35 1133.09 3414.35 1332.41 -29.65 1332.41 -12.71 1224.44"/><polygon class="cls-7" points="499 1268.5 611.25 1261.67 680.28 1250.42 725.1 1240.39 784.62 1246.81 798.64 1264.25 816.54 1268.49 821.99 1282.95 828.05 1287.16 834.71 1306.84 862.06 1331.88 872.35 1341.52 745.08 1346.39 626.88 1346.39 521.62 1341.97 499 1337.8 499 1268.5"/><polygon class="cls-8" points="680.28 1250.42 725.1 1240.39 784.62 1246.81 798.64 1264.25 816.54 1268.49 821.99 1282.95 828.05 1287.16 829.5 1292.6 834.71 1306.84 862.06 1331.88 872.35 1341.52 745.08 1346.39 745.08 1316.54 680.28 1250.42"/><polygon class="cls-9" points="745.08 1316.54 626.88 1346.39 745.08 1346.39 745.08 1316.54"/><polygon class="cls-10" points="499 1268.5 521.62 1341.97 611.25 1261.67 499 1268.5"/><polygon class="cls-7" points="3030.35 1235.91 2872.57 1226.3 2775.52 1210.5 2712.53 1196.39 2628.86 1205.42 2609.15 1229.93 2583.99 1235.89 2576.33 1256.21 2567.82 1262.14 2558.45 1289.79 2535.47 1324.31 2521 1337.86 2684.44 1345.39 2850.58 1345.39 2998.55 1339.18 3030.35 1333.32 3030.35 1235.91"/><polygon class="cls-8" points="2775.52 1210.5 2712.53 1196.39 2628.86 1205.42 2609.15 1229.93 2583.99 1235.89 2576.33 1256.21 2567.82 1262.14 2565.77 1269.77 2558.45 1289.79 2535.47 1324.31 2521 1337.86 2684.44 1345.39 2684.44 1303.44 2775.52 1210.5"/><polygon class="cls-9" points="2684.44 1303.44 2850.58 1345.39 2684.44 1345.39 2684.44 1303.44"/><polygon class="cls-10" points="3030.35 1235.91 2998.55 1339.18 2872.57 1226.3 3030.35 1235.91"/><polygon class="cls-10" points="537.98 1742.27 591.95 1720.79 616 1697.3 666.31 1685.54 694.13 1666.39 718.09 1671.77 745.63 1688.29 786.94 1699.31 823.85 1726.3 861.24 1742.27 685.04 1754.39 537.98 1742.27"/><polygon class="cls-8" points="694.13 1666.39 714.23 1677.82 735.84 1694.35 776.48 1714.02 788.04 1732.9 816.29 1745.36 861.24 1742.27 820.99 1723.73 786.94 1699.31 745.63 1688.29 718.09 1671.77 694.13 1666.39"/><polygon class="cls-9" points="687.72 1754.2 705.9 1702.35 733.79 1692.78 776.48 1714.02 788.04 1732.9 816.29 1745.36 687.72 1754.2"/><polygon class="cls-7" points="572.48 1745.11 604.62 1726.3 623.35 1701.57 662.36 1692.78 692.2 1677.27 703.22 1698.75 680.99 1754.05 572.48 1745.11"/><polygon class="cls-7" points="2947.35 1281.91 2895.05 1272.3 2862.88 1256.5 2841.99 1242.39 2814.26 1251.42 2807.72 1275.93 2799.38 1281.89 2796.84 1302.21 2794.02 1308.14 2790.92 1335.79 2783.3 1351.31 2778.5 1364.86 2832.68 1391.39 2887.76 1391.39 2936.81 1385.18 2947.35 1379.32 2947.35 1281.91"/><polygon class="cls-8" points="2862.88 1256.5 2841.99 1242.39 2814.26 1251.42 2807.72 1275.93 2799.38 1281.89 2796.84 1302.21 2794.02 1308.14 2793.34 1315.77 2790.92 1335.79 2783.3 1351.31 2778.5 1364.86 2832.68 1391.39 2832.68 1349.44 2862.88 1256.5"/><polygon class="cls-9" points="2832.68 1349.44 2887.76 1391.39 2832.68 1391.39 2832.68 1349.44"/><polygon class="cls-10" points="2947.35 1281.91 2936.81 1385.18 2895.05 1272.3 2947.35 1281.91"/><polygon class="cls-7" points="-126.65 1048.46 94.53 1007.82 230.56 941 318.87 881.34 436.16 919.52 463.78 1023.2 499.05 1048.39 509.79 1134.31 521.72 1159.37 534.85 1276.31 567.07 1341.94 587.35 1399.22 358.24 1511.39 125.34 1511.39 -82.08 1485.13 -126.65 1460.36 -126.65 1048.46"/><polygon class="cls-8" points="230.56 941 318.87 881.34 436.16 919.52 463.78 1023.2 499.05 1048.39 509.79 1134.31 521.72 1159.37 524.59 1191.66 534.85 1276.31 567.07 1341.94 587.35 1399.22 358.24 1511.39 358.24 1334.01 230.56 941"/><polygon class="cls-9" points="358.24 1334.01 125.34 1511.39 358.24 1511.39 358.24 1334.01"/><polygon class="cls-10" points="-126.65 1048.46 -82.08 1485.13 94.53 1007.82 -126.65 1048.46"/><polygon class="cls-7" points="309 1397.32 376.4 1384.93 417.86 1364.57 444.76 1346.39 480.51 1358.02 488.93 1389.62 499.67 1397.3 502.95 1423.48 506.58 1431.11 510.58 1466.75 520.4 1486.75 526.58 1504.2 456.76 1538.39 385.79 1538.39 322.58 1530.39 309 1522.84 309 1397.32"/><polygon class="cls-8" points="417.86 1364.57 444.76 1346.39 480.51 1358.02 488.93 1389.62 499.67 1397.3 502.95 1423.48 506.58 1431.11 507.46 1440.95 510.58 1466.75 520.4 1486.75 526.58 1504.2 456.76 1538.39 456.76 1484.33 417.86 1364.57"/><polygon class="cls-9" points="456.76 1484.33 385.79 1538.39 456.76 1538.39 456.76 1484.33"/><polygon class="cls-10" points="309 1397.32 322.58 1530.39 376.4 1384.93 309 1397.32"/><polygon class="cls-10" points="167.35 1776.39 265.35 1737.39 309 1694.74 400.35 1673.39 450.85 1638.62 494.35 1648.39 544.35 1678.39 619.35 1698.39 686.35 1747.39 754.24 1776.39 434.35 1798.39 167.35 1776.39"/><polygon class="cls-8" points="450.85 1638.62 487.35 1659.39 526.58 1689.39 600.35 1725.09 621.35 1759.39 672.64 1782 754.24 1776.39 681.18 1742.74 619.35 1698.39 544.35 1678.39 494.35 1648.39 450.85 1638.62"/><polygon class="cls-9" points="439.22 1798.05 472.22 1703.91 522.86 1686.54 600.35 1725.09 621.35 1759.39 672.64 1782 439.22 1798.05"/><polygon class="cls-7" points="230 1781.55 288.35 1747.39 322.35 1702.5 393.18 1686.54 447.35 1658.39 467.35 1697.39 427 1797.78 230 1781.55"/><polygon class="cls-10" points="750.3 1424.77 768.21 1417.64 776.18 1409.85 792.88 1405.95 802.11 1399.6 810.05 1401.38 819.19 1406.86 832.89 1410.52 845.14 1419.47 857.54 1424.77 799.09 1428.79 750.3 1424.77"/><polygon class="cls-8" points="802.11 1399.6 808.77 1403.39 815.94 1408.87 829.42 1415.4 833.26 1421.66 842.63 1425.8 857.54 1424.77 844.19 1418.62 832.89 1410.52 819.19 1406.86 810.05 1401.38 802.11 1399.6"/><polygon class="cls-9" points="799.98 1428.73 806.01 1411.53 815.26 1408.35 829.42 1415.4 833.26 1421.66 842.63 1425.8 799.98 1428.73"/><polygon class="cls-7" points="761.75 1425.71 772.41 1419.47 778.62 1411.27 791.57 1408.35 801.47 1403.21 805.12 1410.33 797.75 1428.68 761.75 1425.71"/><polygon class="cls-10" points="556.35 1442.09 588.86 1429.15 603.34 1415 633.65 1407.92 650.4 1396.39 664.83 1399.63 681.42 1409.58 706.3 1416.21 728.52 1432.47 751.04 1442.09 644.93 1449.39 556.35 1442.09"/><polygon class="cls-8" points="650.4 1396.39 662.51 1403.27 675.52 1413.23 700 1425.07 706.96 1436.45 723.98 1443.95 751.04 1442.09 726.81 1430.93 706.3 1416.21 681.42 1409.58 664.83 1399.63 650.4 1396.39"/><polygon class="cls-9" points="646.54 1449.28 657.49 1418.05 674.29 1412.28 700 1425.07 706.96 1436.45 723.98 1443.95 646.54 1449.28"/><polygon class="cls-7" points="577.14 1443.8 596.49 1432.47 607.77 1417.58 631.27 1412.28 649.24 1402.94 655.87 1415.88 642.49 1449.18 577.14 1443.8"/><polygon class="cls-7" points="-268 1406.57 -82.65 1381.48 31.35 1340.22 105.35 1303.39 203.65 1326.96 226.8 1390.97 256.35 1406.53 265.35 1459.58 275.35 1475.05 286.35 1547.25 313.35 1587.77 330.35 1623.13 138.35 1692.39 -56.82 1692.39 -230.65 1676.18 -268 1660.88 -268 1406.57"/><polygon class="cls-8" points="31.35 1340.22 105.35 1303.39 203.65 1326.96 226.8 1390.97 256.35 1406.53 265.35 1459.58 275.35 1475.05 277.76 1494.98 286.35 1547.25 313.35 1587.77 330.35 1623.13 138.35 1692.39 138.35 1582.87 31.35 1340.22"/><polygon class="cls-9" points="138.35 1582.87 -56.82 1692.39 138.35 1692.39 138.35 1582.87"/><polygon class="cls-10" points="2844.38 1698.27 2790.4 1676.79 2766.36 1653.3 2716.04 1641.54 2688.22 1622.39 2664.26 1627.77 2636.72 1644.29 2595.41 1655.31 2558.51 1682.3 2521.12 1698.27 2697.31 1710.39 2844.38 1698.27"/><polygon class="cls-8" points="2688.22 1622.39 2668.12 1633.82 2646.51 1650.35 2605.88 1670.02 2594.31 1688.9 2566.06 1701.36 2521.12 1698.27 2561.36 1679.73 2595.41 1655.31 2636.72 1644.29 2664.26 1627.77 2688.22 1622.39"/><polygon class="cls-9" points="2694.63 1710.2 2676.45 1658.35 2648.56 1648.78 2605.88 1670.02 2594.31 1688.9 2566.06 1701.36 2694.63 1710.2"/><polygon class="cls-7" points="2809.87 1701.11 2777.73 1682.3 2759 1657.57 2719.99 1648.78 2690.15 1633.27 2679.14 1654.75 2701.36 1710.05 2809.87 1701.11"/><polygon class="cls-7" points="3403.35 1165.29 3244.68 1136.13 3147.09 1088.19 3083.74 1045.39 2999.59 1072.78 2979.78 1147.16 2954.47 1165.23 2946.77 1226.87 2938.21 1244.85 2928.79 1328.74 2905.68 1375.83 2891.13 1416.92 3055.49 1497.39 3222.57 1497.39 3371.38 1478.55 3403.35 1460.78 3403.35 1165.29"/><polygon class="cls-8" points="3147.09 1088.19 3083.74 1045.39 2999.59 1072.78 2979.78 1147.16 2954.47 1165.23 2946.77 1226.87 2938.21 1244.85 2936.15 1268.01 2928.79 1328.74 2905.68 1375.83 2891.13 1416.92 3055.49 1497.39 3055.49 1370.13 3147.09 1088.19"/><polygon class="cls-9" points="3055.49 1370.13 3222.57 1497.39 3055.49 1497.39 3055.49 1370.13"/><polygon class="cls-10" points="3403.35 1165.29 3371.38 1478.55 3244.68 1136.13 3403.35 1165.29"/><polygon class="cls-7" points="2870.69 1438.65 2835.94 1432.26 2814.56 1421.76 2800.69 1412.39 2782.26 1418.39 2777.92 1434.68 2772.38 1438.64 2770.69 1452.14 2768.81 1456.07 2766.75 1474.45 2761.69 1484.76 2758.5 1493.76 2794.5 1511.39 2831.09 1511.39 2863.69 1507.26 2870.69 1503.37 2870.69 1438.65"/><polygon class="cls-8" points="2814.56 1421.76 2800.69 1412.39 2782.26 1418.39 2777.92 1434.68 2772.38 1438.64 2770.69 1452.14 2768.81 1456.07 2768.36 1461.15 2766.75 1474.45 2761.69 1484.76 2758.5 1493.76 2794.5 1511.39 2794.5 1483.52 2814.56 1421.76"/><polygon class="cls-9" points="2794.5 1483.52 2831.09 1511.39 2794.5 1511.39 2794.5 1483.52"/><polygon class="cls-10" points="2870.69 1438.65 2863.69 1507.26 2835.94 1432.26 2870.69 1438.65"/><polygon class="cls-10" points="2632.05 1380.77 2614.14 1373.64 2606.17 1365.85 2589.48 1361.95 2580.25 1355.6 2572.3 1357.38 2563.16 1362.86 2549.46 1366.52 2537.22 1375.47 2524.81 1380.77 2583.26 1384.79 2632.05 1380.77"/><polygon class="cls-8" points="2580.25 1355.6 2573.58 1359.39 2566.41 1364.87 2552.93 1371.4 2549.09 1377.66 2539.72 1381.8 2524.81 1380.77 2538.16 1374.62 2549.46 1366.52 2563.16 1362.86 2572.3 1357.38 2580.25 1355.6"/><polygon class="cls-9" points="2582.37 1384.73 2576.34 1367.53 2567.09 1364.35 2552.93 1371.4 2549.09 1377.66 2539.72 1381.8 2582.37 1384.73"/><polygon class="cls-7" points="2620.6 1381.71 2609.94 1375.47 2603.73 1367.27 2590.79 1364.35 2580.89 1359.21 2577.23 1366.33 2584.61 1384.68 2620.6 1381.71"/><polygon class="cls-10" points="2826 1398.09 2793.49 1385.15 2779.01 1371 2748.7 1363.92 2731.95 1352.39 2717.52 1355.63 2700.93 1365.58 2676.05 1372.21 2653.83 1388.47 2631.31 1398.09 2737.43 1405.39 2826 1398.09"/><polygon class="cls-8" points="2731.95 1352.39 2719.84 1359.27 2706.83 1369.23 2682.36 1381.07 2675.39 1392.45 2658.38 1399.95 2631.31 1398.09 2655.55 1386.93 2676.05 1372.21 2700.93 1365.58 2717.52 1355.63 2731.95 1352.39"/><polygon class="cls-9" points="2735.81 1405.28 2724.86 1374.05 2708.07 1368.28 2682.36 1381.07 2675.39 1392.45 2658.38 1399.95 2735.81 1405.28"/><polygon class="cls-7" points="2805.22 1399.8 2785.86 1388.47 2774.58 1373.58 2751.09 1368.28 2733.11 1358.94 2726.48 1371.88 2739.86 1405.18 2805.22 1399.8"/><polygon class="cls-7" points="3650.35 1362.57 3465 1337.48 3351 1296.22 3277 1259.39 3178.71 1282.96 3155.56 1346.97 3126 1362.53 3117 1415.58 3107 1431.05 3096 1503.25 3069 1543.77 3052 1579.13 3244 1648.39 3439.18 1648.39 3613 1632.18 3650.35 1616.88 3650.35 1362.57"/><polygon class="cls-8" points="3351 1296.22 3277 1259.39 3178.71 1282.96 3155.56 1346.97 3126 1362.53 3117 1415.58 3107 1431.05 3104.6 1450.98 3096 1503.25 3069 1543.77 3052 1579.13 3244 1648.39 3244 1538.87 3351 1296.22"/><polygon class="cls-9" points="3244 1538.87 3439.18 1648.39 3244 1648.39 3244 1538.87"/><polygon class="cls-10" points="3628.35 1826.14 3471.35 1763.66 3401.42 1695.34 3255.07 1661.13 3174.16 1605.43 3104.47 1621.07 3024.37 1669.14 2904.21 1701.18 2796.87 1779.68 2688.12 1826.14 3200.6 1861.39 3628.35 1826.14"/><polygon class="cls-8" points="3174.16 1605.43 3115.69 1638.7 3052.84 1686.76 2934.65 1743.96 2901.01 1798.9 2818.84 1835.13 2688.12 1826.14 2805.16 1772.23 2904.21 1701.18 3024.37 1669.14 3104.47 1621.07 3174.16 1605.43"/><polygon class="cls-9" points="3192.8 1860.85 3139.93 1710.04 3058.81 1682.19 2934.65 1743.96 2901.01 1798.9 2818.84 1835.13 3192.8 1860.85"/><polygon class="cls-7" points="3527.98 1834.41 3434.5 1779.68 3380.03 1707.77 3266.57 1682.19 3179.77 1637.09 3147.73 1699.58 3212.37 1860.42 3527.98 1834.41"/><polygon class="cls-10" points="3023.38 1526.3 2982.89 1510.19 2964.86 1492.57 2927.12 1483.75 2906.26 1469.39 2888.29 1473.42 2867.64 1485.81 2836.65 1494.08 2808.97 1514.32 2780.93 1526.3 2913.08 1535.39 3023.38 1526.3"/><polygon class="cls-8" points="2906.26 1469.39 2891.18 1477.96 2874.98 1490.36 2844.5 1505.11 2835.83 1519.28 2814.64 1528.62 2780.93 1526.3 2811.11 1512.4 2836.65 1494.08 2867.64 1485.81 2888.29 1473.42 2906.26 1469.39"/><polygon class="cls-9" points="2911.07 1535.25 2897.44 1496.36 2876.52 1489.18 2844.5 1505.11 2835.83 1519.28 2814.64 1528.62 2911.07 1535.25"/><polygon class="cls-7" points="2997.5 1528.43 2973.39 1514.32 2959.35 1495.78 2930.09 1489.18 2907.71 1477.55 2899.45 1493.66 2916.11 1535.14 2997.5 1528.43"/><path class="cls-11" d="M169.77,1784.78q88.28,13.31,177.47,19,44.44,2.84,89,3.72c30,.61,60,1,89.95-1.18,57.89-4.24,114.69-22.25,173.1-19.21a32.76,32.76,0,0,1,5.15.32c3,.66,2.25,2.63.57,4.2a22.72,22.72,0,0,1-8.67,4.61c-6,1.9-12.33,2.22-18.54,2.73l-44.94,3.66L541.9,1810c-29.82,2.42-59.81,5.92-89.76,5.59-14.9-.16-29.75-1.4-44.55-3-7.29-.81-14.57-1.74-21.85-2.63a94.78,94.78,0,0,0-18.89-.9,37,37,0,0,0-16.5,5,1.51,1.51,0,0,0-.69,1.69c2.62,6.73,10,8.53,16.46,9.39,10.63,1.41,21.33,2.47,32,3.34q32.26,2.64,64.69,2.4,18.57-.15,37.13-1.24l-1.45-1.9c-1.41,4.78-7.63,5.42-11.82,5.64-6.95.38-13.92.58-20.87.78q-20.61.6-41.23.51c-1.65,0-2.09,2.61-.4,3l34.19,6.91v-2.9a77.79,77.79,0,0,0-19.43,7.88,1.5,1.5,0,0,0,0,2.59l7.74,3.61c1.74.81,3.27-1.77,1.52-2.59l-7.75-3.61v2.59a74.8,74.8,0,0,1,18.72-7.57,1.52,1.52,0,0,0,0-2.9l-34.19-6.9-.4,2.94q23.3.09,46.58-.67c6.62-.22,13.52,0,20.06-1.1,4.43-.76,8.81-2.76,10.17-7.36a1.51,1.51,0,0,0-1.44-1.9,727.85,727.85,0,0,1-121.37-3c-5.21-.57-10.55-1-15.69-2-4.07-.85-8.71-2.42-10.35-6.63l-.69,1.69c11.67-7.09,26-4.68,38.82-3.08,15.13,1.89,30.29,3.62,45.52,4.48,30.85,1.75,61.61-1.44,92.32-3.94l92-7.5,46-3.75c7.05-.57,14.14-1,21.15-1.83,5.59-.71,11.27-1.91,16.13-4.89,3-1.83,9-7.06,4.45-10.59-1.86-1.44-4.73-1.21-6.94-1.35q-6.17-.37-12.35-.43a344,344,0,0,0-44.1,2.66c-29.29,3.46-58.21,9.45-87.41,13.51-30.38,4.21-60.92,5.1-91.55,4.93q-45.6-.26-91.16-2.54-91.39-4.57-182.16-17.25-11-1.55-22-3.21c-1.89-.28-2.71,2.61-.8,2.89Z"/><path class="cls-11" d="M736,1760.54c5.14-1.36,10.44-1.53,15.72-1.54,5.5,0,11,0,16.51,0l32.73,0h9.42c1.44,0,4.35-.12,4.85,1.66l1.05-1.85c-13.77,4.27-28.72-1.83-42.28,3.71a1.51,1.51,0,0,0,0,2.89,105.15,105.15,0,0,0,18.21,4.17l-.67-2.5c-1.25,1.56-3.2,1.91-5.09,2.19a22.68,22.68,0,0,0-6,1.35,6.51,6.51,0,0,0-3.77,5.2c-.27,1.83.46,6.18-1.94,6.93-1.83.58-1,3.48.8,2.89,2.6-.82,3.68-3.38,3.9-5.91s-.25-5.3,2.41-6.47c3.87-1.7,8.91-.37,11.87-4.06.6-.76.58-2.34-.67-2.51a106.29,106.29,0,0,1-18.21-4.17v2.89c13.5-5.51,28.51.57,42.29-3.71a1.52,1.52,0,0,0,1.05-1.84c-1.31-4.62-7.57-3.86-11.22-3.86l-17.61,0L754,1756c-6.33,0-12.72,0-18.88,1.64a1.5,1.5,0,0,0,.79,2.9Z"/><path class="cls-11" d="M305.8,1542.92a22.29,22.29,0,0,0,10.25,5.69c4.32,1.25,8.8,2,13.22,2.83q14.73,2.8,29.6,4.77a525.21,525.21,0,0,0,59.95,4.47c9.7.17,19.47.27,29.15-.42a79.06,79.06,0,0,0,13.35-2,49.5,49.5,0,0,0,6.49-2.08c2.1-.85,4.07-2.1,6.22-2.8,1.61-.52,3.18-.33,4.14,1.16a5.1,5.1,0,0,1,.54,4.17c-1.15,3.8-5.78,5.61-9.18,6.74-8.95,3-18.52,2.82-27.84,2.83H396c-3.66,0-8.43-.7-11.45,1.94a3.81,3.81,0,0,0-1.22,4,1.57,1.57,0,0,0,1.45,1.11l24.77,3.12-.4-3L394,1581.3c-1.79.68-1,3.58.8,2.89L410,1578.4a1.51,1.51,0,0,0-.39-3l-24.77-3.12,1.44,1.1c-.32-1.25,1.84-1.76,2.7-1.94,2.11-.45,4.45-.17,6.59-.17h46.15c9.28,0,18.82.11,27.78-2.66,3.8-1.18,7.92-2.8,10.46-6a8.34,8.34,0,0,0,.9-9.45,6.09,6.09,0,0,0-3.59-2.86c-2.14-.58-4.27.19-6.19,1.11a55.47,55.47,0,0,1-12.9,4.5c-9.19,1.89-18.74,1.79-28.08,1.83a523,523,0,0,1-60.52-3.24q-15.1-1.68-30.1-4.26-7.47-1.27-14.91-2.78c-4-.81-8.16-1.5-11.86-3.28a15.88,15.88,0,0,1-4.76-3.4c-1.33-1.4-3.45.72-2.12,2.13Z"/><path class="cls-11" d="M563.29,1452.44c11.17.27,22.06,2.89,32.91,5.36s21.68,4.47,32.82,4.76c22.17.59,44-3.84,66-6,12.37-1.22,24.85-1.7,37.22-.2l-.76-2.79c-11.58,8.79-26.31,11.17-40.34,13.06-16.53,2.24-33.12,4.43-49.8,5.06a204.19,204.19,0,0,1-25-.49c-4.17-.36-8.33-.88-12.46-1.59-3.69-.64-7.34-1.49-11-2.18-6.65-1.24-13.85-2.12-20.25.61-2.86,1.22-6.53,3.44-6.78,6.91s2.95,5,5.79,5.37c4.05.6,8.2.76,12.28,1.11l12.89,1.12,25.77,2.23,6.44.56-1.06-2.56c-4.6,5-11.79,4.89-18.09,4.75-6.83-.15-14.09-.57-20.29,2.82a1.51,1.51,0,0,0,0,2.59l5.29,2.87c1.7.92,3.21-1.67,1.51-2.59l-5.29-2.87v2.59c11.93-6.51,28.91,3,39-8a1.52,1.52,0,0,0-1.06-2.56l-49.56-4.29-6.19-.54c-1.24-.11-2.86-.23-3.85-1.07-2.68-2.28,3.5-5.35,5.07-5.93,6.26-2.32,13.26-1.07,19.6.21a175.85,175.85,0,0,0,47,4c16.13-.59,32.16-2.69,48.15-4.81,13.5-1.8,27.63-3.68,39.51-10.85a47,47,0,0,0,4.23-2.88,1.52,1.52,0,0,0-.75-2.8c-22.12-2.69-44.27,1-66.19,3.73a268,268,0,0,1-32.87,2.52,133.63,133.63,0,0,1-16.61-1c-5.51-.69-11-1.82-16.38-3-12.18-2.71-24.36-5.89-36.9-6.19-1.93,0-1.93,3,0,3Z"/><path class="cls-11" d="M765.13,1431.61c5.59,8.68,16.85,9.23,26.08,8.15,2.94-.35,5.87-.79,8.83-1,1.51-.13,3-.22,4.54-.21.29,0,1.25-.13,1.4.16s-.53,1.08-.66,1.23c-1.48,1.72-4.25,2.76-6.34,3.47a36,36,0,0,1-7.54,1.65c-6.32.74-12.75.54-19.1.6a1.52,1.52,0,0,0-1.3,2.26l1.13,2.07c.93,1.7,3.52.18,2.59-1.51l-1.13-2.07-1.29,2.25c6.08-.06,12.22.1,18.28-.51,5.43-.55,11.1-1.8,15.61-5,1.77-1.28,3.64-3.84,2.26-6a3.64,3.64,0,0,0-3-1.51,34.5,34.5,0,0,0-5.18.17c-6.19.52-12.39,2-18.63,1.46-5.29-.43-10.93-2.41-13.92-7.06-1-1.62-3.64-.11-2.59,1.52Z"/><path class="cls-11" d="M-51.5,1704.8q40-1.62,80-2.93t80-2.34q22.44-.57,44.87-1l-1.5-1.5c.3,4.48-6.38,5.61-9.6,6.25-6.2,1.23-12.45,2.2-18.72,3-12.51,1.53-25.11,2.3-37.7,2.87-25.53,1.15-51.07,2-76.6,3-12.13.5-24.86,1.38-35.47,7.88a1.51,1.51,0,0,0,.75,2.8q38.36.3,76.69.47l21.92.08-.76-2.8c-11.24,5-23.81,5.22-35.91,5.38-11,.14-22.17.32-32.74,3.66A44.36,44.36,0,0,0-12,1738a1.51,1.51,0,0,0,1.06,2.56l53.68.77-.4-2.95-54.73,9.35c-1.9.32-1.09,3.21.8,2.89l54.73-9.35c1.71-.29,1.24-2.92-.4-2.94l-53.68-.77,1.06,2.56c8.2-7,19.1-9.67,29.63-10.65,11.5-1.06,23.09-.22,34.58-1.47a64.19,64.19,0,0,0,19.51-5c1.42-.63.64-2.79-.75-2.79q-38.35-.12-76.7-.39l-21.91-.16.76,2.79c9.72-6,21.35-6.92,32.48-7.4,12.9-.57,25.8-1,38.7-1.51,25.85-1,51.87-1.29,77.56-4.48,7-.87,14-1.92,20.94-3.4,4.3-.93,10.26-3.45,9.9-8.76a1.53,1.53,0,0,0-1.5-1.5q-40,.86-80,2t-80,2.59q-22.41.81-44.84,1.72c-1.92.07-1.93,3.07,0,3Z"/><path class="cls-11" d="M604.83,1352.22q26.79,2.51,53.69,3.58t53.81.67q15.12-.23,30.24-.9c1.92-.09,1.93-3.09,0-3q-26.88,1.2-53.8,1T635,1351.59q-15.09-1-30.16-2.37c-1.92-.18-1.91,2.82,0,3Z"/><path class="cls-11" d="M2696.26,1851.63c47.48-.28,94.94,1.87,142.31,5.08,47.69,3.24,95.29,7.54,142.93,11.47,47.29,3.9,94.62,7.44,142.05,9.2,47.24,1.75,94.59,1.72,141.78-1.52,23.41-1.61,46.67-4.48,70-6.87,23-2.37,46.48-3.9,69.47-.38a158.29,158.29,0,0,1,16.57,3.48l-.67-2.51c-15.62,14.07-38.24,16-58.17,18.33-23.58,2.83-47.26,4.73-70.95,6.41-47.35,3.35-94.81,6.45-142.31,5.16-92.42-2.5-183.66-19-275.66-26.73-51.74-4.34-103.85-5.79-155.57-.4-1.37.15-2.17,2-.76,2.8,15.27,8.4,32.47,11.41,49.52,13.91q28.52,4.17,57.09,7.78,57.63,7.32,115.5,12.43,116.08,10.26,232.72,11.67,32.63.39,65.26.09c20.57-.2,42.28-2.13,61.83,5.58v-2.89c-46.23,8.89-93.33,11.75-140.34,12.24-47.18.49-94.34-1.3-141.52-1.55-26.49-.14-53,.22-79.45,1.72a1.51,1.51,0,0,0-1.45,1.9c2.9,9.17,13.27,11.21,21.73,11.58,14.83.63,29.74.15,44.58.57q46.34,1.32,92.5,6,26.76,2.71,53.39,6.55l.4-2.94-112.59,13.07a1.61,1.61,0,0,0-1.45,1.1c-3.79,11,18.14,12.46,24,13.65l44.44,9c1.89.38,2.69-2.51.8-2.89l-36.11-7.33-18.06-3.66c-3.53-.71-14.16-2.22-12.16-8l-1.45,1.1,112.59-13.07c1.51-.18,2.23-2.69.4-3a1288.89,1288.89,0,0,0-175.21-13.15c-9.77-.06-30.93,3.09-34.9-9.45l-1.44,1.9c47.35-2.68,94.78-1.68,142.17-.81s94.62,1.6,141.81-1.74a659.81,659.81,0,0,0,78.13-10c1.61-.31,1.23-2.41,0-2.89-16.74-6.61-34.91-6-52.59-5.81q-28.68.38-57.37.19-58.1-.36-116.13-2.92-116.07-5.12-231.51-19-32.55-3.93-65-8.55c-19.94-2.85-40.67-5.15-58.59-15l-.76,2.79c46.39-4.83,93.12-4.18,139.59-.85,46.74,3.35,93.23,9.32,139.74,14.9s93.18,10.82,140,12.68c48.15,1.92,96.2-.76,144.22-4.07,23.69-1.63,47.38-3.38,71-6,19.63-2.15,41.4-3.27,59.22-12.65a54,54,0,0,0,11-7.7,1.51,1.51,0,0,0-.67-2.5c-44.73-11.91-91.31-2-136.42,2-47.34,4.21-94.94,5-142.44,3.75s-95.21-4.47-142.72-8.27c-47.88-3.82-95.71-8.21-143.62-11.72-47.59-3.48-95.28-6.09-143-6.38q-8.85-.06-17.7,0a1.5,1.5,0,0,0,0,3Z"/><path class="cls-11" d="M2512.49,1716.81l63.81,9.34c21.25,3.11,42.48,6.3,63.73,9.33a286.34,286.34,0,0,0,31.47,3.13,204,204,0,0,0,31.81-1.89c10.52-1.34,21-3,31.52-4.46q16-2.16,32.08-3.85c10.61-1.11,21.24-2.19,31.89-2.87,2.77-.18,7.18-.28,9.06,2.24,2.48,3.33-2.09,7.7-4.67,9.34-3.34,2.13-7.26,3.13-11.11,3.89-4.82.94-9.69,1.64-14.55,2.36q-15.8,2.33-31.7,3.79a594,594,0,0,1-63.42,2.47c-10.55-.15-21.08-.68-31.62-1.26-9.87-.55-19.87-.87-29.62,1.1a49.82,49.82,0,0,0-7,1.87,7.84,7.84,0,0,0-4.48,3.19c-1.69,3,.11,5.86,2.67,7.54,3.22,2.12,6.91,2.44,10.66,2.51l16.31.3,64.65,1.18,15.72.29-1.3-.74c1.19,2.74-2.57,4.94-4.56,5.87-3.25,1.54-7.09,2.11-10.57,2.93q-12.08,2.8-24.36,4.6-6.37.93-12.77,1.57c-2.95.29-5.84.53-8.57,1.79-2.27,1.05-4.32,3-4.37,5.63s1.86,4.7,4.18,5.76c3.51,1.6,7.67,1.85,11.43,2.5l14.59,2.5-.67-2.51a22.2,22.2,0,0,1-13.09,4.81c-1.92.07-1.93,3.07,0,3a25.65,25.65,0,0,0,15.22-5.69,1.51,1.51,0,0,0-.67-2.51l-12.25-2.1c-3.71-.63-7.56-1-11.2-2-1.94-.51-5.45-1.87-4.38-4.54.89-2.22,4.36-3,6.41-3.3,3.76-.61,7.61-.79,11.39-1.27q5.93-.75,11.81-1.74,11.94-2,23.7-5c5.15-1.31,14.36-4.83,11.32-11.85a1.47,1.47,0,0,0-1.29-.74l-64.66-1.18-32.32-.59c-3.38-.07-7.52-.34-10-3-3.15-3.47,4.53-5.07,6.57-5.58,9.74-2.43,19.88-2.2,29.83-1.68,10.41.54,20.8,1.14,31.23,1.32a596.76,596.76,0,0,0,63.43-2.25q15.72-1.41,31.36-3.63c5.14-.73,10.27-1.51,15.39-2.39a47.71,47.71,0,0,0,11.19-3.06,17.73,17.73,0,0,0,8.57-7.3c1.8-3.27,1.56-7.22-1.64-9.48-2.71-1.92-6.48-2.16-9.69-2-5.22.31-10.43.82-15.64,1.28-21.27,1.91-42.46,4.48-63.59,7.59-10.59,1.56-21.2,3.14-31.89,3.87a183,183,0,0,1-31.49-.72c-10.66-1.11-21.25-2.79-31.84-4.35l-31.91-4.67-63.82-9.34-15.51-2.27c-1.89-.28-2.71,2.61-.8,2.89Z"/><path class="cls-11" d="M2780.44,1540.5c29.84,4.66,59.78,9.32,90,10.68a327.16,327.16,0,0,0,45.15-.85c14.81-1.38,29.45-4,44.19-5.94,16.32-2.1,33-3.27,49.27-.41l-1.05-1c1,4.36-5,6.72-8.2,7.64-3,.85-6.14,1.34-9.2,1.94s-6.36,1.23-9.55,1.79q-19.66,3.51-39.54,5.51a536.57,536.57,0,0,1-79.57,2.14c-3.73-.17-7.44-.39-11.16-.64a32.76,32.76,0,0,0-8.51,0c-4,.74-9.26,3.5-7.58,8.38a1.57,1.57,0,0,0,1.45,1.1l69.29,3.14,19.44.89-.76-2.8q-12.43,5.67-24.37,12.35a1.53,1.53,0,0,0-.3,2.36,18.57,18.57,0,0,0,15.07,6.34l-1.5-1.5a5.32,5.32,0,0,1-3.49,5c-1.81.63-1,3.53.79,2.89a8.39,8.39,0,0,0,5.7-7.9,1.51,1.51,0,0,0-1.5-1.5,15.72,15.72,0,0,1-12.95-5.47l-.3,2.36q11.92-6.67,24.37-12.35c1.44-.66.6-2.73-.76-2.79l-69.29-3.15-19.44-.88,1.44,1.1c-1.28-3.73,5.09-4.82,7.55-4.92a88.22,88.22,0,0,1,9,.53c3.24.2,6.47.37,9.71.51q19.89.87,39.83.26a538.27,538.27,0,0,0,79.09-8.28q5.51-1,11-2.09a53,53,0,0,0,9.06-2.23c4.42-1.73,9.28-5.16,8.05-10.56a1.44,1.44,0,0,0-1-1.05c-29.43-5.17-58.8,2.23-88,5.58-30,3.45-60.29,1.77-90.2-1.81-16.86-2-33.64-4.63-50.42-7.25-1.89-.29-2.7,2.6-.8,2.89Z"/><path class="cls-11" d="M3041,1595.36l5.3,2.11a1.46,1.46,0,0,0,1.15-.15,1.53,1.53,0,0,0,.69-.89,1.51,1.51,0,0,0-.15-1.16,1.68,1.68,0,0,0-.9-.69l-5.29-2.11a1.56,1.56,0,0,0-1.16.15,1.52,1.52,0,0,0-.69.9,1.49,1.49,0,0,0,.15,1.15,1.76,1.76,0,0,0,.9.69Z"/><path class="cls-11" d="M3054.55,1506.22a15.56,15.56,0,0,0,7,.31,14.29,14.29,0,0,1,6,.12,4,4,0,0,1,2,1.3,2.83,2.83,0,0,1,.41,1.36,2.75,2.75,0,0,1-.36,1.54,1,1,0,0,1-.84.57c-1.92.1-1.94,3.1,0,3a4.42,4.42,0,0,0,4.08-3.78,5.63,5.63,0,0,0-2.1-5.66c-2-1.53-4.65-1.82-7.08-1.66-2.76.17-5.59,1-8.29,0a1.5,1.5,0,0,0-1.84,1.05,1.52,1.52,0,0,0,1.05,1.84Z"/><path class="cls-11" d="M2634.87,1404.39q35.19,4.32,70.39,8.62c20.84,2.54,42,4.87,63,2.51a111.2,111.2,0,0,0,33.47-8.84c1.76-.8.23-3.38-1.52-2.59-19,8.54-40.05,10.09-60.58,9.14-10.39-.48-20.73-1.58-31.06-2.82-11.51-1.37-23-2.81-34.51-4.22l-39.17-4.8c-1.91-.23-1.9,2.77,0,3Z"/><path class="cls-11" d="M2660,1412.38a373.1,373.1,0,0,0,61.25,9.75c10.25.76,20.48.84,30.76,1,2.07,0,4.47.16,6.18,1.47,1.14.88,2.09,2.67,1.59,4.13-.62,1.76-3,1.81-4.54,1.86-2.42.09-4.82.22-7.22.54a32.83,32.83,0,0,0-7.87,1.66c-1.76.72-3.7,2.31-3.14,4.46s3,2.53,5,2.64c3.06.17,6.13.18,9.19.06,1.92-.08,1.93-3.08,0-3q-4,.16-7.95,0a13.85,13.85,0,0,1-2.95-.27.57.57,0,0,1-.33-.18c-.08-.15,0,.21,0,0s.77-.66,1.05-.79c2-1,4.69-1.2,6.88-1.52a67.34,67.34,0,0,1,7.36-.57c3.61-.12,7.76-1.46,7.66-5.8-.1-4-3.52-6.68-7.21-7.34a38.49,38.49,0,0,0-6.79-.32q-3.89,0-7.77-.08-7.77-.15-15.52-.64-15.43-1-30.75-3.23-17.18-2.55-34.06-6.71c-1.87-.46-2.67,2.43-.8,2.89Z"/><path class="cls-11" d="M2841.1,1398q10.68-.51,21.38-.43c3.57,0,7.13.11,10.7.24a43.81,43.81,0,0,1,4.86.23c.59.08,1.88.3,1.24,1s-2.05.71-2.91.76l-5.42.29-10.83.58c-2.44.13-5.76-.17-7.66,1.72s-.95,5.07,1.24,6.42a7.41,7.41,0,0,0,4.81.72,37.25,37.25,0,0,1,5.27-.37,24.36,24.36,0,0,1,10.41,2.68l-.69-1.69a4.62,4.62,0,0,1-4.77,2.61c-1.07-.1-1.58,1-1.44,1.9a3.61,3.61,0,0,0,3.52,3c1.93.12,1.93-2.88,0-3-.48,0-.57-.39-.63-.79l-1.45,1.9a7.6,7.6,0,0,0,7.66-4.81,1.48,1.48,0,0,0-.69-1.7,27.82,27.82,0,0,0-9.08-2.86,26.75,26.75,0,0,0-4.82-.21c-1.6.08-3.22.49-4.83.45-.82,0-2.83-.42-2.62-1.7s2.5-1.09,3.31-1.13c3.52-.2,7.05-.38,10.58-.57,3.25-.17,6.71,0,9.92-.62,2.16-.38,4.7-1.81,4.3-4.37-.45-2.88-3.72-3.18-6.05-3.28-3.65-.16-7.3-.28-10.94-.33q-12.19-.19-24.37.39c-1.93.09-1.94,3.09,0,3Z"/><path class="cls-11" d="M2520.92,1393.73a190.6,190.6,0,0,0,65.27,2.17c5.4-.75,10.78-1.74,16.1-3,1.18-.27,2.36-.62,3.56-.83a3.75,3.75,0,0,1,2.52.13c1.74,1.21-2.33,3.24-3.11,3.58a125.08,125.08,0,0,1-48.55,10.42c-3.77,0-10-.5-11.17,4.31a1.51,1.51,0,0,0,1.44,1.89l17.94,0h8.72c1.77,0,4.71-.34,5.7,1.53l.23-1.82a14.55,14.55,0,0,1-10.51,4.47,1.5,1.5,0,0,0,0,3,17.62,17.62,0,0,0,12.63-5.35,1.54,1.54,0,0,0,.24-1.82c-1.13-2.12-3.45-2.78-5.7-3-3.07-.24-6.23,0-9.32-.06l-19.93,0,1.45,1.9c.41-1.65,2.51-1.95,4-2.06,2.51-.18,5,0,7.55-.12a129.67,129.67,0,0,0,16.46-1.69,128.13,128.13,0,0,0,15.95-3.72,99.89,99.89,0,0,0,15.17-5.67c1.82-.9,3.83-2.45,4.18-4.57a3.89,3.89,0,0,0-3.12-4.37c-2.22-.48-4.48.3-6.62.8q-4.17,1-8.37,1.75a186.91,186.91,0,0,1-71.87-.84c-1.88-.39-2.69,2.5-.8,2.89Z"/><path class="cls-11" d="M2690.81,1349.17q30.43,1.32,60.89,1,8.75-.08,17.47-.31c1.93,0,1.94-3,0-3q-30.43.78-60.89-.07-8.75-.25-17.47-.63c-1.93-.08-1.92,2.92,0,3Z"/></g></svg>