<svg width="71" height="71" viewBox="0 0 71 71" fill="none" xmlns="http://www.w3.org/2000/svg">
<g clip-path="url(#clip0_1048_23908)">
<path d="M35.5004 71C55.109 71 71.0008 55.109 71.0008 35.4996C71.0008 15.8902 55.1009 0 35.5004 0C15.8999 0 0 15.8991 0 35.5004C0 55.1017 15.891 71.0008 35.5004 71.0008V71Z" fill="#9AA4DA"/>
<path d="M35.5003 66.8898C31.2631 66.8898 27.153 66.0596 23.2818 64.4224C19.5441 62.8416 16.187 60.5786 13.3045 57.6961C10.422 54.8136 8.15902 51.4573 6.5782 47.7189C4.94107 43.8477 4.11084 39.7367 4.11084 35.5003C4.11084 31.2639 4.94107 27.1522 6.5782 23.2818C8.15902 19.5441 10.422 16.187 13.3045 13.3045C16.187 10.422 19.5433 8.15902 23.2818 6.5782C27.153 4.94107 31.2639 4.11084 35.5003 4.11084C39.7367 4.11084 43.8485 4.94107 47.7189 6.5782C51.4565 8.15902 54.8136 10.422 57.6961 13.3045C60.5786 16.187 62.8416 19.5433 64.4224 23.2818C66.0596 27.153 66.8898 31.2639 66.8898 35.5003C66.8898 39.7367 66.0596 43.8485 64.4224 47.7189C62.8416 51.4565 60.5786 54.8136 57.6961 57.6961C54.8136 60.5786 51.4573 62.8416 47.7189 64.4224C43.8477 66.0596 39.7367 66.8898 35.5003 66.8898ZM35.5003 7.32879C27.9751 7.32879 20.9013 10.2587 15.5804 15.5796C10.2595 20.9005 7.32879 27.9751 7.32879 35.4995C7.32879 43.0239 10.2587 50.0985 15.5804 55.4194C20.9021 60.7403 27.9759 63.6702 35.5003 63.6702C43.0247 63.6702 50.0993 60.7403 55.4202 55.4194C60.7411 50.0985 63.6718 43.0239 63.6718 35.4995C63.6718 27.9751 60.7419 20.9005 55.4202 15.5796C50.0993 10.2587 43.0247 7.32879 35.5003 7.32879Z" fill="black"/>
<path d="M46.7372 31.0757H24.2623C23.3733 31.0757 22.6533 31.7957 22.6533 32.6847V41.9974C22.6533 48.0198 27.5526 52.9191 33.575 52.9191H37.4245C43.4469 52.9191 48.3462 48.0198 48.3462 41.9974V32.6847C48.3462 31.7957 47.6262 31.0757 46.7372 31.0757Z" fill="#12141D"/>
<path d="M46.4216 29.0028H43.2036C43.2036 24.7551 39.7475 21.299 35.4998 21.299C31.2521 21.299 27.7961 24.7551 27.7961 29.0028H24.5781C24.5781 22.9804 29.4774 18.0811 35.4998 18.0811C41.5222 18.0811 46.4216 22.9804 46.4216 29.0028Z" fill="#12141D"/>
<path d="M38.6703 39.5759C38.6703 37.7987 37.2294 36.3579 35.4523 36.3579C33.6752 36.3579 32.2344 37.7987 32.2344 39.5759C32.2344 40.7665 32.882 41.8059 33.8433 42.3626V45.5532C33.8433 46.4422 34.5634 47.1622 35.4523 47.1622C36.3413 47.1622 37.0613 46.4422 37.0613 45.5532V42.3626C38.0227 41.8059 38.6703 40.7673 38.6703 39.5759Z" fill="white"/>
</g>
<defs>
<clipPath id="clip0_1048_23908">
<rect width="71" height="71" fill="white"/>
</clipPath>
</defs>
</svg>
