<svg width="71" height="71" viewBox="0 0 71 71" fill="none" xmlns="http://www.w3.org/2000/svg">
<g clip-path="url(#clip0_1048_23996)">
<path d="M35.5004 71C55.109 71 71.0008 55.109 71.0008 35.4996C71.0008 15.8902 55.1009 0 35.5004 0C15.8999 0 0 15.8991 0 35.5004C0 55.1017 15.891 71.0008 35.5004 71.0008V71Z" fill="#9AA4DA"/>
<path d="M35.5003 66.8898C31.2631 66.8898 27.1522 66.0596 23.2818 64.4224C19.5441 62.8416 16.187 60.5786 13.3045 57.6961C10.422 54.8136 8.15902 51.4573 6.5782 47.7189C4.94107 43.8477 4.11084 39.7367 4.11084 35.5003C4.11084 31.2639 4.94107 27.1522 6.5782 23.2818C8.15902 19.5441 10.422 16.187 13.3045 13.3045C16.187 10.422 19.5433 8.15902 23.2818 6.5782C27.153 4.94107 31.2639 4.11084 35.5003 4.11084C39.7367 4.11084 43.8485 4.94107 47.7189 6.5782C51.4565 8.15902 54.8136 10.422 57.6961 13.3045C60.5786 16.187 62.8416 19.5433 64.4224 23.2818C66.0596 27.153 66.8898 31.2639 66.8898 35.5003C66.8898 39.7367 66.0596 43.8485 64.4224 47.7189C62.8416 51.4565 60.5786 54.8136 57.6961 57.6961C54.8136 60.5786 51.4573 62.8416 47.7189 64.4224C43.8477 66.0596 39.7367 66.8898 35.5003 66.8898ZM35.5003 7.32879C27.9751 7.32879 20.9013 10.2595 15.5804 15.5796C10.2595 20.9005 7.32959 27.9751 7.32959 35.4995C7.32959 43.0239 10.2595 50.0985 15.5804 55.4194C20.9013 60.7403 27.9759 63.6702 35.5003 63.6702C43.0247 63.6702 50.0993 60.7395 55.4202 55.4194C60.7411 50.0985 63.6718 43.0239 63.6718 35.4995C63.6718 27.9751 60.7419 20.9005 55.4202 15.5796C50.0993 10.2587 43.0247 7.32879 35.5003 7.32879Z" fill="black"/>
<path fill-rule="evenodd" clip-rule="evenodd" d="M29.5887 40.7057L35.5004 37.5591L41.4113 40.7055L42.986 58.9893L35.3337 53.0406L28.014 58.9888L29.5887 40.7057ZM42.879 59.1517L42.9882 59.0149L43 59.1517H42.879ZM28.0117 59.0155L28.1158 59.1517H28L28.0117 59.0155Z" fill="#12141D"/>
<path d="M25.6776 39.7495C25.5821 40.3133 25.8154 40.8823 26.2792 41.2167C26.743 41.5511 27.3565 41.5928 27.8613 41.3241L35.5004 37.2582L43.1387 41.3241C43.6434 41.5928 44.257 41.5511 44.7208 41.2167C45.1846 40.8823 45.4179 40.3133 45.3224 39.7495L43.8595 31.1122L50.0537 24.9985C50.4585 24.5989 50.6025 24.0048 50.4255 23.4642C50.2486 22.9236 49.7811 22.5297 49.2183 22.4469L40.6735 21.1897L36.8488 13.3428C36.5975 12.8272 36.0741 12.5 35.5005 12.5C34.9269 12.5 34.4035 12.8271 34.1521 13.3427L30.3266 21.1897L21.7817 22.4469C21.2189 22.5297 20.7514 22.9236 20.5745 23.4642C20.3975 24.0048 20.5415 24.5989 20.9463 24.9985L27.1405 31.1122L25.6776 39.7495Z" fill="white" stroke="#12141D" stroke-width="3" stroke-linejoin="round"/>
</g>
<defs>
<clipPath id="clip0_1048_23996">
<rect width="71" height="71" fill="white"/>
</clipPath>
</defs>
</svg>
