<svg width="27" height="30" viewBox="0 0 27 30" fill="none" xmlns="http://www.w3.org/2000/svg">
<g clip-path="url(#clip0_740_15577)">
<path d="M17.4154 14.25C17.3903 14.547 17.2792 14.8303 17.0958 15.0653C16.9123 15.3002 16.6645 15.4767 16.3824 15.5732C16.1003 15.6696 15.7963 15.6818 15.5074 15.6084C15.2185 15.5349 14.9572 15.3789 14.7555 15.1594C14.5538 14.94 14.4203 14.6665 14.3714 14.3725C14.3225 14.0784 14.3603 13.7765 14.4801 13.5035C14.5999 13.2306 14.7966 12.9984 15.0462 12.8354C15.2957 12.6723 15.5873 12.5855 15.8854 12.5854C16.0952 12.5941 16.3013 12.6441 16.4917 12.7325C16.6822 12.8209 16.8534 12.946 16.9955 13.1006C17.1376 13.2552 17.2478 13.4363 17.3199 13.6335C17.3919 13.8307 17.4244 14.0402 17.4154 14.25ZM10.41 12.5854C9.99194 12.6197 9.60205 12.8099 9.3178 13.1184C9.03356 13.4268 8.87576 13.831 8.87576 14.2504C8.87576 14.6699 9.03356 15.074 9.3178 15.3825C9.60205 15.6909 9.99194 15.8812 10.41 15.9154C10.6198 15.9067 10.8258 15.8567 11.0163 15.7684C11.2068 15.68 11.378 15.5549 11.52 15.4003C11.6621 15.2457 11.7724 15.0646 11.8444 14.8674C11.9165 14.6701 11.949 14.4606 11.94 14.2509C11.9504 14.0407 11.9188 13.8306 11.8473 13.6327C11.7758 13.4348 11.6656 13.2531 11.5233 13.0982C11.3809 12.9432 11.2092 12.8181 11.0181 12.7301C10.827 12.6421 10.6203 12.5929 10.41 12.5854ZM26.25 3.09V30C22.4709 26.6571 23.6786 27.7663 19.29 23.6846L20.0846 26.46H3.07543C2.25809 26.4573 1.47522 26.1304 0.898634 25.5511C0.32205 24.9718 -0.00113674 24.1873 3.00432e-06 23.37V3.09C-0.00113674 2.27265 0.32205 1.48825 0.898634 0.908931C1.47522 0.329615 2.25809 0.00272369 3.07543 0L23.1754 0C23.9926 0.0029502 24.7753 0.329942 25.3517 0.909232C25.9281 1.48852 26.2511 2.2728 26.25 3.09ZM21.9746 17.3143C21.9256 14.2741 21.187 11.2847 19.8146 8.57143C18.6074 7.62045 17.1348 7.06785 15.6 6.99L15.39 7.23C16.756 7.59353 18.0292 8.24299 19.1254 9.13543C17.4145 8.21329 15.5153 7.69465 13.5732 7.61918C11.631 7.54371 9.69734 7.91341 7.92 8.7C7.36457 8.95714 7.03543 9.13457 7.03543 9.13457C8.18951 8.19812 9.53568 7.52737 10.9783 7.17L10.8283 6.99C9.2945 7.0663 7.8222 7.61677 6.61457 8.56543C5.24216 11.2807 4.50446 14.2723 4.45715 17.3143C4.97454 18.0402 5.66243 18.6278 6.46028 19.0254C7.25813 19.423 8.14148 19.6183 9.03257 19.5943C9.03257 19.5943 9.588 18.9189 10.038 18.3497C8.98329 18.0838 8.05463 17.4577 7.41257 16.5797C7.63286 16.734 7.99715 16.9346 8.02715 16.9551C9.4508 17.7311 11.0292 18.1808 12.6481 18.2715C14.2669 18.3622 15.8857 18.0918 17.3871 17.4797C17.9947 17.2495 18.5741 16.951 19.1143 16.59C18.4482 17.487 17.4864 18.1194 16.3989 18.3754C16.8489 18.9454 17.3889 19.5909 17.3889 19.5909C18.2807 19.6129 19.1645 19.4171 19.9636 19.0203C20.7627 18.6236 21.4529 18.038 21.9746 17.3143Z" fill="white"/>
</g>
<defs>
<clipPath id="clip0_740_15577">
<rect width="26.25" height="30" fill="white"/>
</clipPath>
</defs>
</svg>
