<svg width="71" height="71" viewBox="0 0 71 71" fill="none" xmlns="http://www.w3.org/2000/svg">
<g clip-path="url(#clip0_1048_23901)">
<path d="M35.5004 71C55.109 71 71.0008 55.109 71.0008 35.4996C71.0008 15.8902 55.1009 0 35.5004 0C15.8999 0 0 15.8991 0 35.5004C0 55.1017 15.891 71.0008 35.5004 71.0008V71Z" fill="#9AA4DA"/>
<path d="M46.6137 45.3086C46.6137 45.3086 46.271 49.9416 43.2026 53.0108C40.1335 56.0799 35.5005 56.4218 35.5005 56.4218C35.5005 56.4218 35.8432 51.7887 38.9115 48.7196C41.9798 45.6505 46.6137 45.3086 46.6137 45.3086Z" fill="white"/>
<path d="M24.3862 34.5239C24.3862 34.5239 24.7289 39.157 27.7973 42.2261C30.8664 45.2952 35.4994 45.6371 35.4994 45.6371C35.4994 45.6371 35.1567 41.0041 32.0884 37.935C29.0201 34.8658 24.3862 34.5239 24.3862 34.5239Z" fill="white"/>
<path d="M47.7509 44.1713C47.4203 43.8406 46.9617 43.6701 46.4943 43.7047C46.2811 43.7208 41.2249 44.131 37.7729 47.5831C37.5372 47.8188 37.3159 48.0618 37.1084 48.3104V33.3895C42.0117 32.6148 45.7727 28.3599 45.7727 23.2425C45.7727 17.5781 41.1638 12.9692 35.4994 12.9692C29.835 12.9692 25.2261 17.5781 25.2261 23.2425C25.2261 28.3599 28.9871 32.6148 33.8904 33.3895V37.5254C33.6821 37.2768 33.4616 37.0339 33.2259 36.7981C29.7739 33.3461 24.7185 32.9358 24.5045 32.9197C24.0379 32.8859 23.5793 33.0557 23.2479 33.3863C22.9172 33.717 22.7467 34.1755 22.7813 34.6429C22.7973 34.8561 23.2076 39.9123 26.6597 43.3644C29.0032 45.7078 32.086 46.6499 33.8904 47.0175V56.4228C33.8904 56.4268 33.8904 56.4316 33.8904 56.4357C33.8904 56.4831 33.8928 56.5314 33.8977 56.5781C33.8977 56.5861 33.8993 56.5942 33.9009 56.603C33.9057 56.6489 33.9129 56.6939 33.9218 56.739C33.9234 56.7486 33.9258 56.7575 33.9282 56.7671C33.9371 56.8057 33.9467 56.8444 33.958 56.883C33.962 56.895 33.9652 56.9071 33.9693 56.9192C33.9813 56.9554 33.9942 56.9916 34.0087 57.027C34.0135 57.0382 34.0175 57.0487 34.0216 57.06C34.0376 57.0978 34.0561 57.1348 34.0755 57.1718C34.0811 57.1822 34.0859 57.1927 34.0923 57.2031C34.1125 57.2402 34.135 57.2756 34.1583 57.311C34.1639 57.319 34.1696 57.3278 34.1752 57.3359C34.2001 57.3721 34.2259 57.4075 34.254 57.4413C34.2581 57.4469 34.2629 57.4517 34.2669 57.4566C34.2967 57.4928 34.3281 57.5274 34.3618 57.5611C34.3635 57.5628 34.3651 57.5644 34.3667 57.566C34.4021 57.6014 34.4399 57.6352 34.4785 57.6673C34.4898 57.677 34.5026 57.685 34.5139 57.6939C34.5437 57.7172 34.5734 57.7405 34.6048 57.7615C34.6161 57.7687 34.6273 57.7751 34.6386 57.7816C34.6724 57.8025 34.7054 57.8234 34.7408 57.8427C34.7496 57.8475 34.7585 57.8508 34.7673 57.8556C34.8051 57.8749 34.8437 57.8942 34.884 57.9103C34.8904 57.9127 34.8976 57.9151 34.9041 57.9175C34.9459 57.9344 34.9885 57.9497 35.032 57.9634C35.0392 57.9658 35.0473 57.9674 35.0545 57.969C35.0971 57.9811 35.1398 57.9924 35.184 58.0012C35.1993 58.0044 35.2146 58.0052 35.2291 58.0084C35.2661 58.0149 35.3023 58.0213 35.3401 58.0245C35.3932 58.0302 35.4471 58.0326 35.5002 58.0326C35.5396 58.0326 35.579 58.031 35.6185 58.0286C35.8316 58.0125 40.8878 57.6022 44.3399 54.1501C47.792 50.6981 48.2022 45.6427 48.2183 45.4287C48.2529 44.9621 48.0824 44.5035 47.7517 44.1721L47.7509 44.1713ZM28.9348 41.0885C27.5655 39.7192 26.8222 37.9421 26.4248 36.5632C27.8029 36.9606 29.5808 37.704 30.95 39.0732C32.3193 40.4425 33.0626 42.2204 33.46 43.5985C32.0819 43.2011 30.304 42.4577 28.9348 41.0885ZM42.064 51.8734C40.6948 53.2427 38.9169 53.986 37.5388 54.3834C37.9362 53.0053 38.6795 51.2274 40.0488 49.8582C41.418 48.4889 43.1951 47.7456 44.574 47.3482C44.1766 48.7263 43.4332 50.5042 42.064 51.8734Z" fill="#12141D"/>
<path d="M35.5003 66.8898C31.2631 66.8898 27.1522 66.0596 23.2818 64.4224C19.5441 62.8416 16.187 60.5786 13.3045 57.6961C10.422 54.8136 8.15902 51.4573 6.5782 47.7189C4.94107 43.8477 4.11084 39.7367 4.11084 35.5003C4.11084 31.2639 4.94107 27.1522 6.5782 23.2818C8.15902 19.5441 10.422 16.187 13.3045 13.3045C16.187 10.422 19.5433 8.15902 23.2818 6.5782C27.153 4.94107 31.2639 4.11084 35.5003 4.11084C39.7367 4.11084 43.8485 4.94107 47.7189 6.5782C51.4565 8.15902 54.8136 10.422 57.6961 13.3045C60.5786 16.187 62.8416 19.5433 64.4224 23.2818C66.0596 27.153 66.8898 31.2639 66.8898 35.5003C66.8898 39.7367 66.0596 43.8485 64.4224 47.7189C62.8416 51.4565 60.5786 54.8136 57.6961 57.6961C54.8136 60.5786 51.4573 62.8416 47.7189 64.4224C43.8477 66.0596 39.7367 66.8898 35.5003 66.8898ZM35.5003 7.32879C27.9751 7.32879 20.9013 10.2595 15.5804 15.5796C10.2595 20.9005 7.32959 27.9751 7.32959 35.4995C7.32959 43.0239 10.2595 50.0985 15.5804 55.4194C20.9013 60.7403 27.9759 63.6702 35.5003 63.6702C43.0247 63.6702 50.0993 60.7395 55.4202 55.4194C60.7411 50.0985 63.671 43.0239 63.671 35.4995C63.671 27.9751 60.7411 20.9005 55.4202 15.5796C50.0993 10.2587 43.0247 7.32879 35.5003 7.32879V7.32879Z" fill="black"/>
<path d="M39.1497 25.1754C39.1497 23.2696 38.0057 22.6155 35.7186 22.3436C34.0846 22.1256 33.758 21.6903 33.758 20.9277C33.758 20.165 34.3027 19.6751 35.3919 19.6751C36.3718 19.6751 36.9164 20.0017 37.1892 20.8191C37.2439 20.9824 37.4072 21.0918 37.5705 21.0918H38.4417C38.6598 21.0918 38.8231 20.9285 38.8231 20.7105V20.6558C38.6051 19.4571 37.6244 18.5311 36.3718 18.4225V17.1152C36.3718 16.8972 36.2085 16.7339 35.9358 16.6792H35.1184C34.9004 16.6792 34.7371 16.8425 34.6824 17.1152V18.3678C33.0485 18.5858 32.0139 19.6751 32.0139 21.0363C32.0139 22.8335 33.1032 23.5415 35.3911 23.8134C36.9156 24.0861 37.4064 24.4119 37.4064 25.284C37.4064 26.1561 36.6437 26.7546 35.6091 26.7546C34.1933 26.7546 33.7033 26.1553 33.5392 25.3387C33.4853 25.1207 33.3212 25.0121 33.1579 25.0121H32.2319C32.0139 25.0121 31.8506 25.1754 31.8506 25.3934V25.4481C32.0686 26.8093 32.9399 27.79 34.7371 28.0627V29.37C34.7371 29.588 34.9004 29.7513 35.1731 29.806H35.9905C36.2085 29.806 36.3718 29.6427 36.4265 29.37V28.0627C38.0604 27.79 39.1497 26.646 39.1497 25.1762V25.1754Z" fill="white"/>
</g>
<defs>
<clipPath id="clip0_1048_23901">
<rect width="71" height="71" fill="white"/>
</clipPath>
</defs>
</svg>
