<svg width="31" height="30" viewBox="0 0 31 30" fill="none" xmlns="http://www.w3.org/2000/svg">
<g clip-path="url(#clip0_740_15583)">
<path d="M10.3143 24.1569C10.3143 24.28 10.1715 24.3797 9.99184 24.3797C9.78753 24.3982 9.64476 24.2985 9.64476 24.1569C9.64476 24.0339 9.78753 23.9342 9.96723 23.9342C10.1531 23.9145 10.3143 24.0142 10.3143 24.1569ZM8.38446 23.8776C8.34138 24.0006 8.46569 24.1446 8.65153 24.1816C8.71915 24.2151 8.79718 24.2211 8.86909 24.1981C8.941 24.1751 9.00114 24.125 9.03677 24.0585C9.07369 23.9354 8.95553 23.7914 8.76969 23.736C8.69909 23.7105 8.62174 23.7107 8.55126 23.7366C8.48079 23.7624 8.42172 23.8124 8.38446 23.8776ZM11.1266 23.7717C10.9469 23.8148 10.8226 23.9329 10.8411 24.0757C10.8595 24.1988 11.0208 24.28 11.2103 24.2369C11.3998 24.1939 11.5143 24.0757 11.4958 23.9514C11.4774 23.8271 11.3063 23.7533 11.1266 23.7717ZM15.2091 0.000639995C13.2074 -0.0415858 11.2179 0.320686 9.35963 1.06575C7.50136 1.81081 5.81262 2.92333 4.39459 4.33665C2.97656 5.74997 1.85843 7.435 1.10718 9.29078C0.355939 11.1466 -0.0129527 13.1349 0.0226109 15.1366C-0.00332195 18.4004 0.998143 21.5896 2.88519 24.2526C4.77223 26.9156 7.44923 28.9175 10.5371 29.9748C11.3309 30.1176 11.6103 29.6277 11.6103 29.224C11.6103 28.84 11.5918 26.7182 11.5918 25.4148C11.5918 25.4148 7.24969 26.3453 6.33769 23.5686C6.33769 23.5686 5.63 21.7631 4.61461 21.2979C4.61461 21.2979 3.1943 20.3243 4.7143 20.3428C5.20906 20.4093 5.68207 20.5881 6.09718 20.8654C6.51228 21.1427 6.8585 21.5112 7.10938 21.9428C7.31647 22.3291 7.59892 22.67 7.94003 22.9453C8.28114 23.2205 8.67397 23.4246 9.09532 23.5454C9.51666 23.6663 9.95795 23.7014 10.3931 23.6487C10.8282 23.596 11.2484 23.4567 11.6288 23.2388C11.7082 22.4478 12.0587 21.7086 12.6208 21.1465C9.15246 20.7625 5.65461 20.2591 5.65461 14.2911C5.62012 13.6124 5.73319 12.9342 5.98604 12.3033C6.23889 11.6725 6.62549 11.104 7.11923 10.6369C6.65034 9.26155 6.70911 7.761 7.28415 6.42649C8.58015 6.02279 11.5648 8.10156 11.5648 8.10156C14.1145 7.39841 16.807 7.39841 19.3568 8.10156C19.3568 8.10156 22.3402 6.01664 23.6374 6.42649C24.2118 7.76177 24.2692 9.26289 23.7986 10.6382C24.3106 11.0979 24.7182 11.6618 24.9942 12.2921C25.2702 12.9223 25.4081 13.6044 25.3986 14.2923C25.3986 20.2788 21.7445 20.7563 18.2774 21.1477C18.6504 21.5231 18.9378 21.9747 19.1199 22.4716C19.3019 22.9685 19.3744 23.499 19.3322 24.0265C19.3322 26.1188 19.3137 28.7034 19.3137 29.2129C19.3137 29.6166 19.5992 30.1065 20.3869 29.9637C23.4646 28.9074 26.1289 26.904 27.998 24.2404C29.8671 21.5769 30.8451 18.3901 30.7918 15.1366C30.7825 13.1138 30.3697 11.1131 29.5777 9.25165C28.7856 7.39023 27.6303 5.7055 26.1792 4.29604C24.7282 2.88658 23.0105 1.78071 21.1269 1.04316C19.2432 0.305608 17.2314 -0.0488128 15.2091 0.000639995ZM6.05338 21.3963C5.97215 21.4579 5.99184 21.6006 6.09646 21.7188C6.19615 21.8185 6.34261 21.8616 6.41892 21.7803C6.50015 21.7188 6.48046 21.576 6.37584 21.4579C6.27615 21.3582 6.13338 21.3151 6.05338 21.3963ZM5.38384 20.8942C5.34076 20.9754 5.4023 21.0739 5.52661 21.1403C5.54663 21.1559 5.56966 21.1673 5.59425 21.1736C5.61884 21.1799 5.64447 21.1811 5.66954 21.177C5.6946 21.173 5.71857 21.1638 5.73993 21.1501C5.76129 21.1364 5.77959 21.1184 5.79369 21.0973C5.83676 21.016 5.77523 20.9176 5.65092 20.8511C5.52538 20.8129 5.42569 20.8314 5.38261 20.8929L5.38384 20.8942ZM7.39369 23.1022C7.294 23.1834 7.33215 23.3693 7.47492 23.4874C7.61769 23.6302 7.79738 23.6486 7.87861 23.5489C7.95984 23.4677 7.92169 23.2819 7.79738 23.1637C7.65338 23.0209 7.47246 23.0025 7.39246 23.1022H7.39369ZM6.686 22.1902C6.5863 22.2517 6.5863 22.4129 6.686 22.5594C6.78569 22.7059 6.95307 22.7637 7.03307 22.7022C7.08169 22.6498 7.10871 22.581 7.10871 22.5096C7.10871 22.4381 7.08169 22.3693 7.03307 22.3169C6.94569 22.1717 6.78446 22.1089 6.68476 22.1902H6.686Z" fill="white"/>
</g>
<defs>
<clipPath id="clip0_740_15583">
<rect width="30.7692" height="30" fill="white" transform="translate(0.0222168)"/>
</clipPath>
</defs>
</svg>
