<?xml version="1.0" encoding="utf-8"?>
<!-- Generator: Adobe Illustrator 16.0.0, SVG Export Plug-In . SVG Version: 6.00 Build 0)  -->
<!DOCTYPE svg PUBLIC "-//W3C//DTD SVG 1.1//EN" "http://www.w3.org/Graphics/SVG/1.1/DTD/svg11.dtd">
<svg version="1.1" id="Layer_1" xmlns="http://www.w3.org/2000/svg" xmlns:xlink="http://www.w3.org/1999/xlink" x="0px" y="0px"
	 width="334.832px" height="52.333px" viewBox="0 0 334.832 52.333" enable-background="new 0 0 334.832 52.333"
	 xml:space="preserve">
<g>
	<g>
		<path fill="#3F5688" d="M73.03,26.543v8.67c0,0.57-0.15,0.719-0.72,0.719H72.1c-0.57,0-0.72-0.148-0.72-0.719v-15.66
			c0-2.19,0.93-3.12,3.12-3.12h8.16c0.57,0,0.72,0.15,0.72,0.72v0.12c0,0.57-0.15,0.72-0.72,0.72h-8.01c-1.11,0-1.62,0.51-1.62,1.62
			v5.37h8.43c0.57,0,0.72,0.15,0.72,0.72v0.12c0,0.57-0.15,0.72-0.72,0.72H73.03z"/>
		<path fill="#3F5688" d="M102.04,27.593l4.68,7.56c0.39,0.631,0.3,0.779-0.42,0.779h-0.12c-0.72,0-0.99-0.148-1.38-0.779
			l-4.56-7.469h-5.85v7.529c0,0.57-0.15,0.72-0.72,0.72h-0.21c-0.57,0-0.72-0.147-0.72-0.72V19.554c0-2.19,0.93-3.12,3.12-3.12h4.47
			c4.68,0,6.21,1.83,6.21,5.64C106.54,25.313,105.399,27.144,102.04,27.593z M96.01,17.994c-1.11,0-1.62,0.51-1.62,1.62v6.51h5.939
			c1.8,0,3-0.33,3.63-0.96s0.93-1.68,0.93-3.09c0-1.47-0.3-2.49-0.93-3.12c-0.63-0.63-1.83-0.96-3.63-0.96H96.01z"/>
		<path fill="#3F5688" d="M117.52,34.313c-1.08-1.289-1.62-3.24-1.62-5.91v-4.439c0-2.64,0.54-4.59,1.62-5.85
			c1.08-1.29,3-1.92,5.79-1.92s4.71,0.63,5.76,1.92c1.08,1.26,1.62,3.21,1.62,5.85v4.439c0,2.641-0.54,4.59-1.62,5.881
			c-1.08,1.289-3,1.92-5.76,1.92C120.52,36.204,118.6,35.573,117.52,34.313z M129.039,23.963c0-2.189-0.39-3.75-1.17-4.74
			c-0.78-0.99-2.31-1.47-4.56-1.47c-2.28,0-3.81,0.48-4.59,1.47c-0.78,0.99-1.17,2.55-1.17,4.74v4.439c0,2.16,0.24,3.511,1.05,4.621
			c0.84,1.108,2.34,1.619,4.71,1.619c2.25,0,3.78-0.479,4.56-1.472c0.78-0.989,1.17-2.58,1.17-4.77V23.963L129.039,23.963z"/>
		<path fill="#3F5688" d="M140.08,17.154c0-0.57,0.15-0.72,0.72-0.72h9.06c2.25,0,3.48,1.08,3.48,2.91c0,1.14-0.63,2.28-1.86,3.45
			l-9.15,8.4c-0.81,0.75-1.229,1.439-1.229,2.1c0,0.72,0.479,1.08,1.439,1.08h10.29c0.57,0,0.72,0.148,0.72,0.72v0.12
			c0,0.57-0.15,0.72-0.72,0.72h-10.26c-2.16,0-3.06-1.021-3.06-2.369c0-0.449,0.03-0.812,0.09-1.08
			c0.12-0.569,0.69-1.562,1.86-2.641l9.18-8.458c0.72-0.69,1.08-1.32,1.08-1.89c0-0.99-0.63-1.5-1.89-1.5h-9.03
			c-0.57,0-0.72-0.15-0.72-0.72V17.154L140.08,17.154z"/>
		<path fill="#3F5688" d="M164.589,26.483v6.27c0,1.11,0.51,1.621,1.619,1.621h8.131c0.568,0,0.72,0.147,0.72,0.719v0.121
			c0,0.57-0.15,0.719-0.72,0.719h-8.281c-2.19,0-3.12-0.93-3.12-3.119V19.554c0-2.19,0.93-3.12,3.12-3.12h8.281
			c0.568,0,0.72,0.15,0.72,0.72v0.12c0,0.57-0.15,0.72-0.72,0.72h-8.131c-1.109,0-1.619,0.51-1.619,1.62v5.31h8.55
			c0.569,0,0.721,0.15,0.721,0.72v0.12c0,0.57-0.15,0.72-0.721,0.72L164.589,26.483L164.589,26.483z"/>
		<path fill="#3F5688" d="M184.689,19.044c0-1.89,0.84-2.82,2.49-2.82c1.469,0,2.129,0.69,2.698,2.4l4.92,14.82
			c0.33,1.049,0.632,1.229,1.201,1.229c0.567,0,0.84-0.42,0.84-1.229v-16.29c0-0.57,0.147-0.72,0.72-0.72h0.211
			c0.569,0,0.719,0.15,0.719,0.72v16.169c0,2.01-0.779,2.82-2.43,2.82c-1.56,0-2.189-0.721-2.789-2.551l-4.892-14.639
			c-0.33-0.96-0.569-1.26-1.14-1.26c-0.631,0-0.932,0.42-0.932,1.29v16.229c0,0.57-0.147,0.72-0.719,0.72h-0.18
			c-0.57,0-0.721-0.147-0.721-0.72V19.044H184.689z"/>
		<path fill="#3F5688" d="M232.658,30.833c-0.27,1.951-0.75,3.361-1.439,4.17c-0.689,0.812-1.891,1.23-3.539,1.23
			c-1.65,0-2.76-0.42-3.391-1.23c-0.629-0.809-1.051-2.219-1.289-4.17l-1.201-9.869c-0.119-0.93-0.18-1.08-0.57-1.08
			c-0.389,0-0.449,0.15-0.567,1.08l-1.201,9.869c-0.239,1.951-0.66,3.361-1.289,4.17c-0.631,0.812-1.739,1.23-3.392,1.23
			c-1.65,0-2.85-0.42-3.538-1.23c-0.691-0.809-1.171-2.219-1.441-4.17l-1.618-12.659c-0.15-1.35,0.12-1.74,1.528-1.74h0.603
			c1.35,0,1.737,0.33,1.949,1.74l1.5,12.659c0.209,1.472,0.391,1.801,1.02,1.801c0.631,0,0.871-0.358,1.08-1.801l1.381-10.229
			c0.209-1.59,0.6-2.7,1.139-3.27c0.57-0.6,1.5-0.9,2.85-0.9c1.353,0,2.281,0.3,2.82,0.9c0.57,0.57,0.961,1.68,1.17,3.27
			l1.381,10.229c0.209,1.441,0.449,1.801,1.08,1.801c0.629,0,0.81-0.329,1.021-1.801l1.5-12.659c0.209-1.41,0.601-1.74,1.948-1.74
			h0.601c1.41,0,1.683,0.39,1.531,1.74L232.658,30.833z"/>
		<path fill="#3F5688" d="M255.578,34.252c0.359,1.35,0.121,1.68-1.289,1.68h-0.57c-1.41,0-1.83-0.33-2.189-1.68l-0.78-3.06h-7.92
			l-0.779,3.06c-0.358,1.35-0.778,1.68-2.188,1.68h-0.57c-1.41,0-1.65-0.33-1.289-1.68l3.359-12.419c0.6-2.25,0.93-3.18,1.74-4.26
			c0.809-1.08,1.889-1.44,3.688-1.44c1.799,0,2.879,0.36,3.688,1.44c0.811,1.08,1.142,2.01,1.74,4.26L255.578,34.252z
			 M243.76,27.593h6.029l-1.439-5.579c-0.271-0.99-0.479-1.59-0.631-1.86c-0.15-0.27-0.479-0.42-0.93-0.42
			c-0.451,0-0.779,0.15-0.93,0.42c-0.151,0.27-0.361,0.87-0.631,1.86L243.76,27.593z"/>
		<path fill="#3F5688" d="M260.889,18.174c0-1.35,0.33-1.74,1.74-1.74h0.539c1.41,0,1.74,0.39,1.74,1.74v13.11
			c0,0.6,0.301,0.898,0.9,0.898h6.09c1.35,0,1.74,0.33,1.74,1.74v0.271c0,1.351-0.392,1.738-1.74,1.738h-7.41
			c-2.521,0-3.6-1.08-3.6-3.601V18.174L260.889,18.174z"/>
		<path fill="#3F5688" d="M289.93,28.583l3.93,5.91c0.75,1.109,0.629,1.439-0.78,1.439h-1.14c-1.352,0-1.891-0.299-2.701-1.469
			l-3.659-5.58h-2.729v5.311c0,1.35-0.33,1.738-1.74,1.738h-0.541c-1.407,0-1.737-0.389-1.737-1.738v-14.16
			c0-2.52,1.078-3.6,3.601-3.6h4.92c4.407,0,6.629,2.07,6.629,6.24C293.979,25.914,292.629,27.894,289.93,28.583z M283.748,20.184
			c-0.6,0-0.898,0.3-0.898,0.9v4.05h4.5c1.738,0,2.609-0.81,2.609-2.459c0-1.68-0.721-2.49-2.609-2.49L283.748,20.184
			L283.748,20.184z"/>
		<path fill="#3F5688" d="M299.918,18.174c0-1.35,0.33-1.74,1.74-1.74h0.541c1.41,0,1.739,0.39,1.739,1.74v10.918
			c0,2.311,1.289,3.451,3.869,3.451c2.552,0,3.84-1.142,3.84-3.451V18.174c0-1.35,0.392-1.74,1.74-1.74h0.539
			c1.351,0,1.74,0.39,1.74,1.74v10.918c0,4.951-3.029,7.201-7.859,7.201c-4.891,0-7.891-2.25-7.891-7.201L299.918,18.174
			L299.918,18.174z"/>
		<path fill="#3F5688" d="M320.949,33.352c0-1.408,0.389-1.77,1.737-1.408c1.531,0.389,3.031,0.6,4.562,0.6
			c2.4,0,3.27-0.42,3.27-1.621c0-0.868-0.479-1.35-2.399-2.459l-3.84-2.25c-2.011-1.17-3.029-2.85-3.029-5.04
			c0-3.36,2.1-5.04,6.99-5.04c1.35,0,2.608,0.15,3.75,0.48c1.438,0.39,1.77,0.75,1.77,2.1v0.3c0,1.44-0.358,1.74-1.77,1.35
			c-1.051-0.33-2.281-0.48-3.75-0.48c-2.041,0-2.851,0.33-2.851,1.41c0,0.72,0.359,1.11,1.65,1.86l3.988,2.34
			c2.52,1.469,3.631,2.879,3.631,5.428c0,3.511-2.189,5.371-7.472,5.371c-1.647,0-3.18-0.18-4.528-0.569
			c-1.41-0.392-1.709-0.722-1.709-2.07V33.352z"/>
	</g>
</g>
<g>
	<g>
		<path fill="#93C1E6" d="M26.267,2.413c13.169,0,23.84,10.675,23.84,23.846c0,13.168-10.671,23.842-23.84,23.842
			c-13.173,0-23.845-10.674-23.845-23.842C2.421,13.087,13.093,2.413,26.267,2.413 M26.267,0.429
			c-14.242,0-25.829,11.587-25.829,25.829c0,14.241,11.586,25.827,25.829,25.827c14.239,0,25.824-11.586,25.824-25.827
			C52.09,12.016,40.506,0.429,26.267,0.429L26.267,0.429z"/>
	</g>
</g>
<g>
	<g>
		<g>
			<path fill="#3F5688" d="M12.826,40.016c-0.065-0.066-0.138-0.133-0.206-0.197C12.688,39.885,12.756,39.952,12.826,40.016z"/>
			<path fill="#3F5688" d="M10.569,32.229l0.008-0.025C10.577,32.211,10.574,32.219,10.569,32.229z"/>
			<g>
				<path fill="#3F5688" d="M41.911,32.059l0.069,0.262C41.955,32.233,41.931,32.147,41.911,32.059z"/>
				<path fill="#3F5688" d="M40.079,39.633c-0.157,0.17-0.323,0.334-0.489,0.492C39.76,39.969,39.925,39.807,40.079,39.633z"/>
			</g>
		</g>
		<path fill="#3F5688" d="M41.979,32.321l-0.069-0.262l-4.242-16.081l-0.004,0.002c-1.25-5.141-5.875-8.958-11.403-8.958
			c-5.528,0-10.152,3.817-11.401,8.958l-0.004-0.002l-4.278,16.226l-0.008,0.025c-0.162,0.635-0.247,1.301-0.247,1.986
			c0,2.184,0.877,4.162,2.297,5.604c0.068,0.064,0.141,0.131,0.206,0.197c3.474,3.377,8.212,5.459,13.437,5.459
			c5.168,0,9.866-2.039,13.328-5.35c0.166-0.158,0.332-0.322,0.489-0.492c1.323-1.42,2.127-3.326,2.127-5.418
			C42.206,33.563,42.125,32.932,41.979,32.321z M22.308,14.443c1.378,0,2.494,1.118,2.494,2.496c0,1.379-1.116,2.495-2.494,2.495
			c-1.379,0-2.495-1.116-2.495-2.495C19.813,15.561,20.929,14.443,22.308,14.443z M24.811,23.669L20.517,39.11
			c-0.041,0.156-0.183,0.26-0.339,0.26c-0.017,0-0.037-0.002-0.053-0.002c-0.174-0.022-0.308-0.176-0.308-0.354v-15.44
			c0-0.195,0.158-0.354,0.36-0.354h4.29c0.114,0,0.218,0.052,0.287,0.142C24.818,23.449,24.839,23.563,24.811,23.669z
			 M32.667,39.014c0,0.178-0.126,0.33-0.303,0.354c-0.016,0-0.037,0.002-0.049,0.002c-0.158,0-0.299-0.104-0.348-0.26l-4.291-15.441
			c-0.028-0.106-0.008-0.22,0.061-0.308c0.065-0.09,0.17-0.142,0.284-0.142h4.294c0.194,0,0.352,0.159,0.352,0.354V39.014z
			 M30.184,19.434c-1.378,0-2.494-1.116-2.494-2.495c0-1.378,1.116-2.496,2.494-2.496c1.375,0,2.495,1.118,2.495,2.496
			C32.679,18.318,31.559,19.434,30.184,19.434z"/>
	</g>
</g>
</svg>
