<svg width="193" height="40" viewBox="0 0 193 40" fill="none" xmlns="http://www.w3.org/2000/svg">
<path d="M56.876 20.9935V19.601H51.764V15.8931H57.848V14.485H50V25.7966H51.764V20.9935H56.876Z" fill="#FCFCFC"/>
<path d="M61.7484 25.7966V21.322H65.0784L67.5084 25.7966H69.4704L66.8244 21.0248C68.4444 20.5711 69.3444 19.4446 69.3444 17.8801C69.3444 15.7679 67.6884 14.485 64.8984 14.485H59.9844V25.7966H61.7484ZM61.7484 15.8618H64.8984C66.5184 15.8618 67.4904 16.5815 67.4904 17.8957C67.4904 19.1943 66.5544 19.9609 64.9164 19.9609H61.7484V15.8618Z" fill="#FCFCFC"/>
<path d="M83.445 20.133C83.445 16.691 80.871 14.2816 77.181 14.2816C73.509 14.2816 70.935 16.7066 70.935 20.133C70.935 23.575 73.491 25.9844 77.163 25.9844C80.853 25.9844 83.445 23.575 83.445 20.133ZM81.591 20.133C81.591 22.7458 79.827 24.5137 77.181 24.5137C74.535 24.5137 72.789 22.7614 72.789 20.133C72.789 17.5046 74.535 15.7679 77.181 15.7679C79.827 15.7679 81.591 17.5046 81.591 20.133Z" fill="#FCFCFC"/>
<path d="M93.8418 25.7966V24.3729H86.7858L93.8238 15.8618V14.485H84.7518V15.8931H91.6278L84.6438 24.3729V25.7966H93.8418Z" fill="#FCFCFC"/>
<path d="M103.94 25.7966V24.3729H97.766V20.7901H103.328V19.4289H97.766V15.8931H103.94V14.485H96.002V25.7966H103.94Z" fill="#FCFCFC"/>
<path d="M108.26 25.7966V17.0508L114.92 25.7966H116.684V14.485H114.92V23.2308L108.26 14.485H106.496V25.7966H108.26Z" fill="#FCFCFC"/>
<path d="M122.469 25.7966H125.331L127.833 18.193L130.263 25.7966H133.107L137.175 14.219H134.205L132.423 19.2725C132.189 19.9452 131.991 20.5867 131.721 21.7601C131.487 20.6493 131.271 19.9452 131.055 19.2412L129.489 14.219H126.231L124.593 19.2412C124.359 19.9609 124.143 20.618 123.927 21.7601C123.711 20.618 123.495 19.9296 123.261 19.2412L121.515 14.219H118.473L122.469 25.7966Z" fill="#FCFCFC"/>
<path d="M138.586 25.7966L139.54 23.3559H143.842L144.778 25.7966H147.874L143.14 14.219H140.296L135.544 25.7966H138.586ZM141.34 18.7562C141.502 18.3338 141.646 17.8957 141.7 17.6297C141.754 17.9113 141.916 18.3651 142.06 18.7562L143.014 21.2282H140.386L141.34 18.7562Z" fill="#FCFCFC"/>
<path d="M151.8 14.219H148.884V25.7966H157.056V23.4498H151.8V14.219Z" fill="#FCFCFC"/>
<path d="M161.262 25.7966V21.7445H163.512L165.51 25.7966H168.696L166.356 21.1969C167.832 20.5398 168.57 19.4759 168.57 17.9739C168.57 15.5802 166.734 14.219 163.494 14.219H158.346V25.7966H161.262ZM161.262 16.472H163.494C164.79 16.472 165.492 17.0039 165.492 17.9739C165.492 18.9596 164.754 19.5228 163.476 19.5228H161.262V16.472Z" fill="#FCFCFC"/>
<path d="M170.108 21.4472C170.108 24.2164 172.25 25.9844 175.58 25.9844C178.928 25.9844 181.088 24.2008 181.088 21.4472V14.219H178.172V21.2751C178.172 22.6988 177.236 23.528 175.58 23.528C173.942 23.528 173.024 22.7301 173.024 21.2751V14.219H170.108V21.4472Z" fill="#FCFCFC"/>
<path d="M182.491 17.5828C182.491 19.4759 183.715 20.6493 186.091 21.0717L188.125 21.4316C189.007 21.588 189.349 21.9166 189.349 22.558C189.349 23.2934 188.521 23.7471 187.207 23.7471C185.911 23.7471 185.191 23.2777 185.191 22.4329H182.293C182.293 24.6076 184.219 26 187.189 26C190.249 26 192.265 24.545 192.265 22.3077C192.265 20.4772 191.131 19.4915 188.755 19.0691L186.757 18.7093C185.821 18.5372 185.407 18.193 185.407 17.4889C185.407 16.7223 186.163 16.2529 187.351 16.2529C188.449 16.2529 189.151 16.7536 189.151 17.5671H192.049C192.049 15.3768 190.249 14 187.387 14C184.525 14 182.491 15.4863 182.491 17.5828Z" fill="#FCFCFC"/>
<circle cx="20" cy="20" r="20" fill="url(#paint0_linear_931_15505)"/>
<path d="M10.2279 11.6014C11.1286 6.88924 15.185 3.3335 20.0527 3.3335C24.8932 3.3335 28.9313 6.8494 29.8621 11.5222L33.3058 27.0626C33.4073 27.5205 33.2205 27.9948 32.8371 28.2526L20.6019 36.4818C20.2352 36.7285 19.7603 36.7285 19.3935 36.4818L7.16254 28.2555C6.77706 27.9962 6.59053 27.5184 6.69535 27.0586L8.83119 17.6899L10.2279 11.6014Z" fill="#12141D"/>
<path d="M17.5773 16.1693C17.6213 13.7822 18.7875 13.4669 19.9976 13.4669C21.2078 13.4669 22.374 13.7822 22.418 16.1693L23.1881 29.9627C23.2064 30.0941 23.2871 30.3568 23.4631 30.3568C23.6831 30.3568 25.2784 24.3891 25.2784 16.676C26.4335 17.0138 27.3136 16.4508 27.3136 15.8878C27.3136 15.8706 27.3134 15.8474 27.3129 15.8187C27.3127 15.8106 27.3126 15.8021 27.3124 15.7931L25.1548 13.818C24.999 13.6753 25.1077 13.4358 25.2838 13.4239C25.3072 13.4255 25.3315 13.431 25.3563 13.4412L27.1656 14.1877C27.165 14.1837 27.1644 14.1797 27.1638 14.1756C27.0721 13.565 26.9254 12.8539 26.6914 12.1437L26.6535 12.1289L24.136 11.1437C23.908 11.0545 23.9704 10.7082 24.2146 10.7082H26.0716C25.3503 9.41959 24.2122 8.3999 22.418 8.3999C21.8019 8.3999 22.1613 8.9629 22.418 9.2444C22.1246 9.76986 21.2298 10.8208 19.9976 10.8208C18.7655 10.8208 17.8707 9.76986 17.5773 9.2444C17.834 8.9629 18.1934 8.3999 17.5773 8.3999C15.7831 8.3999 14.645 9.41959 13.9237 10.7082H15.7807C16.0248 10.7082 16.0873 11.0545 15.8593 11.1437L13.3417 12.1289C13.3039 12.1437 13.3039 12.1437 13.3039 12.1437C13.3008 12.1533 13.2977 12.1628 13.2946 12.1723C13.066 12.873 12.9219 13.5732 12.8315 14.1756C12.8309 14.1797 12.8303 14.1837 12.8297 14.1877L14.639 13.4412C14.6638 13.431 14.6881 13.4255 14.7114 13.4239C14.8875 13.4358 14.9963 13.6753 14.8405 13.818L12.6829 15.7931C12.6827 15.8021 12.6825 15.8106 12.6824 15.8187C12.6818 15.8473 12.6816 15.8703 12.6816 15.8875L12.6816 15.8878C12.6816 16.4508 13.5618 17.0138 14.7169 16.676C14.7169 24.3891 16.3121 30.3568 16.5322 30.3568C16.7082 30.3568 16.7889 30.0941 16.8072 29.9627L17.5773 16.1693Z" fill="#FCFCFC"/>
<defs>
<linearGradient id="paint0_linear_931_15505" x1="3.88889" y1="7.77778" x2="36.1111" y2="34.4444" gradientUnits="userSpaceOnUse">
<stop stop-color="#07C4FF"/>
<stop offset="1" stop-color="#00F0E2"/>
</linearGradient>
</defs>
</svg>
