<svg width="71" height="71" viewBox="0 0 71 71" fill="none" xmlns="http://www.w3.org/2000/svg">
<g clip-path="url(#clip0_1048_23942)">
<path d="M35.5004 71C55.109 71 71.0008 55.109 71.0008 35.4996C71.0008 15.8902 55.1009 0 35.5004 0C15.8999 0 0 15.8991 0 35.5004C0 55.1017 15.891 71.0008 35.5004 71.0008V71Z" fill="#9AA4DA"/>
<path d="M35.5002 65.2807C51.9475 65.2807 65.2807 51.9475 65.2807 35.5002C65.2807 19.0529 51.9475 5.71973 35.5002 5.71973C19.0529 5.71973 5.71973 19.0529 5.71973 35.5002C5.71973 51.9475 19.0529 65.2807 35.5002 65.2807Z" stroke="black" stroke-width="3.21795" stroke-miterlimit="10"/>
<path d="M24.3659 25H16V40.0455H24.3659V25Z" fill="#12141D" stroke="#12141D" stroke-width="3.21795" stroke-linecap="round" stroke-linejoin="round"/>
<path d="M23.8323 34.4561C23.8323 32.5503 22.6883 31.8963 20.4012 31.6244C18.7673 31.4063 18.4406 30.9711 18.4406 30.2085C18.4406 29.4458 18.9853 28.9559 20.0746 28.9559C21.0544 28.9559 21.5991 29.2825 21.8718 30.0999C21.9265 30.2632 22.0898 30.3726 22.2531 30.3726H23.1244C23.3424 30.3726 23.5057 30.2093 23.5057 29.9912V29.9365C23.2877 28.7379 22.307 27.8119 21.0544 27.7033V26.396C21.0544 26.178 20.8911 26.0147 20.6184 25.96H19.801C19.583 25.96 19.4197 26.1233 19.365 26.396V27.6486C17.7311 27.8666 16.6965 28.9559 16.6965 30.3171C16.6965 32.1143 17.7858 32.8222 20.0738 33.0942C21.5983 33.3669 22.089 33.6927 22.089 34.5648C22.089 35.4368 21.3263 36.0354 20.2918 36.0354C18.8759 36.0354 18.3859 35.436 18.2218 34.6195C18.1679 34.4014 18.0038 34.2928 17.8405 34.2928H16.9145C16.6965 34.2928 16.5332 34.4561 16.5332 34.6742V34.7289C16.7512 36.0901 17.6225 37.0707 19.4197 37.3435V38.6507C19.4197 38.8688 19.583 39.0321 19.8557 39.0868H20.6731C20.8911 39.0868 21.0544 38.9235 21.1091 38.6507V37.3435C22.743 37.0707 23.8323 35.9268 23.8323 34.457V34.4561Z" fill="white"/>
<path d="M39.7765 25H31.4106V40.0455H39.7765V25Z" fill="#12141D" stroke="#12141D" stroke-width="3.21795" stroke-linecap="round" stroke-linejoin="round"/>
<path d="M39.243 34.4561C39.243 32.5503 38.099 31.8963 35.8118 31.6244C34.1779 31.4063 33.8513 30.9711 33.8513 30.2085C33.8513 29.4458 34.3959 28.9559 35.4852 28.9559C36.4651 28.9559 37.0097 29.2825 37.2824 30.0999C37.3371 30.2632 37.5004 30.3726 37.6638 30.3726H38.535C38.753 30.3726 38.9163 30.2093 38.9163 29.9912V29.9365C38.6983 28.7379 37.7177 27.8119 36.4651 27.7033V26.396C36.4651 26.178 36.3018 26.0147 36.029 25.96H35.2117C34.9937 25.96 34.8303 26.1233 34.7756 26.396V27.6486C33.1417 27.8666 32.1072 28.9559 32.1072 30.3171C32.1072 32.1143 33.1964 32.8222 35.4844 33.0942C37.0089 33.3669 37.4996 33.6927 37.4996 34.5648C37.4996 35.4368 36.737 36.0354 35.7024 36.0354C34.2865 36.0354 33.7966 35.436 33.6325 34.6195C33.5786 34.4014 33.4144 34.2928 33.2511 34.2928H32.3252C32.1072 34.2928 31.9438 34.4561 31.9438 34.6742V34.7289C32.1619 36.0901 33.0331 37.0707 34.8303 37.3435V38.6507C34.8303 38.8688 34.9937 39.0321 35.2664 39.0868H36.0837C36.3018 39.0868 36.4651 38.9235 36.5198 38.6507V37.3435C38.1537 37.0707 39.243 35.9268 39.243 34.457V34.4561Z" fill="white"/>
<path d="M55.1872 25H46.8213V40.0455H55.1872V25Z" fill="#12141D" stroke="#12141D" stroke-width="3.21795" stroke-linecap="round" stroke-linejoin="round"/>
<path d="M54.6536 34.4561C54.6536 32.5503 53.5096 31.8963 51.2225 31.6244C49.5886 31.4063 49.2619 30.9711 49.2619 30.2085C49.2619 29.4458 49.8066 28.9559 50.8958 28.9559C51.8757 28.9559 52.4203 29.2825 52.6931 30.0999C52.7478 30.2632 52.9111 30.3726 53.0744 30.3726H53.9457C54.1637 30.3726 54.327 30.2093 54.327 29.9912V29.9365C54.109 28.7379 53.1283 27.8119 51.8757 27.7033V26.396C51.8757 26.178 51.7124 26.0147 51.4397 25.96H50.6223C50.4043 25.96 50.241 26.1233 50.1863 26.396V27.6486C48.5524 27.8666 47.5178 28.9559 47.5178 30.3171C47.5178 32.1143 48.6071 32.8222 50.895 33.0942C52.4195 33.3669 52.9103 33.6927 52.9103 34.5648C52.9103 35.4368 52.1476 36.0354 51.1131 36.0354C49.6972 36.0354 49.2072 35.436 49.0431 34.6195C48.9892 34.4014 48.8251 34.2928 48.6618 34.2928H47.7358C47.5178 34.2928 47.3545 34.4561 47.3545 34.6742V34.7289C47.5725 36.0901 48.4438 37.0707 50.241 37.3435V38.6507C50.241 38.8688 50.4043 39.0321 50.677 39.0868H51.4944C51.7124 39.0868 51.8757 38.9235 51.9304 38.6507V37.3435C53.5643 37.0707 54.6536 35.9268 54.6536 34.457V34.4561Z" fill="white"/>
<circle cx="22.082" cy="48.5" r="2.5" fill="#12141D"/>
<circle cx="35.082" cy="48.5" r="2.5" fill="#12141D"/>
<circle cx="48.082" cy="48.5" r="2.5" fill="#12141D"/>
</g>
<defs>
<clipPath id="clip0_1048_23942">
<rect width="71" height="71" fill="white"/>
</clipPath>
</defs>
</svg>
