<svg width="71" height="71" viewBox="0 0 71 71" fill="none" xmlns="http://www.w3.org/2000/svg">
<g clip-path="url(#clip0_1048_23933)">
<path d="M35.5004 71C55.109 71 71.0008 55.109 71.0008 35.4996C71.0008 15.8902 55.1009 0 35.5004 0C15.8999 0 0 15.8991 0 35.5004C0 55.1017 15.891 71.0008 35.5004 71.0008V71Z" fill="#9AA4DA"/>
<path d="M35.5003 66.8898C31.2631 66.8898 27.1522 66.0596 23.2818 64.4224C19.5441 62.8416 16.187 60.5786 13.3045 57.6961C10.422 54.8136 8.15902 51.4573 6.5782 47.7189C4.94107 43.8477 4.11084 39.7367 4.11084 35.5003C4.11084 31.2639 4.94107 27.1522 6.5782 23.2818C8.15902 19.5441 10.422 16.187 13.3045 13.3045C16.187 10.422 19.5433 8.15902 23.2818 6.5782C27.153 4.94107 31.2639 4.11084 35.5003 4.11084C39.7367 4.11084 43.8485 4.94107 47.7189 6.5782C51.4565 8.15902 54.8136 10.422 57.6961 13.3045C60.5786 16.187 62.8416 19.5433 64.4224 23.2818C66.0596 27.153 66.8898 31.2639 66.8898 35.5003C66.8898 39.7367 66.0596 43.8485 64.4224 47.7189C62.8416 51.4565 60.5786 54.8136 57.6961 57.6961C54.8136 60.5786 51.4573 62.8416 47.7189 64.4224C43.8477 66.0596 39.7367 66.8898 35.5003 66.8898ZM35.5003 7.32879C27.9751 7.32879 20.9013 10.2595 15.5804 15.5796C10.2595 20.9005 7.32959 27.9751 7.32959 35.4995C7.32959 43.0239 10.2595 50.0985 15.5804 55.4194C20.9013 60.7403 27.9759 63.6702 35.5003 63.6702C43.0247 63.6702 50.0993 60.7395 55.4202 55.4194C60.7411 50.0985 63.6718 43.0239 63.6718 35.4995C63.6718 27.9751 60.7419 20.9005 55.4202 15.5796C50.0993 10.2587 43.0247 7.32879 35.5003 7.32879Z" fill="black"/>
<path d="M39.9829 17.0834C39.9837 18.2765 39.5099 19.4197 38.6684 20.262C37.8269 21.1051 36.6845 21.5773 35.4947 21.5781C34.3048 21.5789 33.1617 21.1083 32.3161 20.2668C31.473 19.4253 31.0008 18.2829 31 17.0899C30.9984 14.6113 33.0072 12.5968 35.4882 12.5952C37.9693 12.5936 39.9813 14.6048 39.9829 17.0834Z" fill="white"/>
<path d="M54.6414 34.2414C53.5071 34.6106 52.2738 34.5133 51.2119 33.9735C50.1499 33.4337 49.3479 32.4932 48.9794 31.3613C48.6101 30.227 48.7051 28.9969 49.2441 27.9326C49.7839 26.8707 50.7243 26.0686 51.8587 25.6993C54.2158 24.9319 56.7516 26.2198 57.5206 28.5794C58.2881 30.9365 56.9977 33.4739 54.6406 34.2414H54.6414Z" fill="white"/>
<path d="M42.8533 53.4839C42.1509 52.5193 41.8629 51.3158 42.0488 50.1397C42.2346 48.9635 42.8806 47.9096 43.8428 47.2097C44.8074 46.5074 46.0069 46.2186 47.1854 46.402C48.3616 46.5879 49.4155 47.2339 50.117 48.1984C51.5755 50.2024 51.1346 53.0133 49.1275 54.4726C47.1235 55.9312 44.311 55.4879 42.8533 53.4831V53.4839Z" fill="white"/>
<path d="M20.9092 48.2193C21.6099 47.254 22.6646 46.608 23.8408 46.4205C25.0169 46.2331 26.2188 46.5227 27.1818 47.2218C28.1472 47.9225 28.7932 48.9731 28.9823 50.1509C29.1697 51.3271 28.8801 52.529 28.1794 53.4944C26.7241 55.5008 23.9148 55.9497 21.906 54.4927C19.8972 53.0358 19.4523 50.2257 20.9076 48.2193H20.9092Z" fill="white"/>
<path d="M19.1355 25.7217C20.2706 26.0894 21.211 26.8938 21.7525 27.9542C22.2939 29.0153 22.3904 30.2469 22.0236 31.3797C21.6559 32.5148 20.8554 33.4536 19.7943 33.9975C18.7332 34.5389 17.5015 34.6354 16.3664 34.267C14.0085 33.5027 12.7132 30.9702 13.4791 28.609C14.245 26.2478 16.7791 24.9566 19.1371 25.7209L19.1355 25.7217Z" fill="white"/>
<path d="M59.0508 28.0807C58.009 24.8821 54.5593 23.1275 51.3607 24.1693C49.8089 24.6745 48.5482 25.7517 47.8089 27.2054C47.3222 28.1668 47.1034 29.215 47.1557 30.2625L41.8187 32.001C41.509 31.4805 41.1333 30.9954 40.694 30.5561C39.6932 29.5585 38.4551 28.886 37.1084 28.5875L37.1044 22.9706C38.1172 22.6947 39.0456 22.1605 39.8067 21.3986C40.9587 20.245 41.5926 18.7116 41.5918 17.0818C41.591 15.4535 40.9547 13.9217 39.801 12.7697C38.6482 11.6185 37.1181 10.9854 35.4914 10.9854H35.4874C33.8575 10.9862 32.3257 11.6225 31.1745 12.7761C30.0233 13.929 29.3902 15.4615 29.391 17.0898C29.3918 18.7213 30.0273 20.2538 31.181 21.4059C31.9444 22.1661 32.8744 22.6979 33.8864 22.9722L33.8905 28.5891C32.5462 28.8892 31.3129 29.561 30.3169 30.5577C29.8753 30.9994 29.498 31.4869 29.1874 32.0098L23.8456 30.2786C23.8963 29.2303 23.6751 28.1821 23.186 27.2223C22.4442 25.7702 21.1828 24.693 19.6325 24.191C16.4331 23.154 12.9859 24.9134 11.9481 28.1137C10.9111 31.3139 12.6705 34.7604 15.87 35.7981C16.491 35.9993 17.1274 36.099 17.7613 36.099C18.7122 36.099 19.6559 35.8738 20.5279 35.4297C21.4869 34.9381 22.2801 34.2189 22.8537 33.3404L28.1979 35.0725C28.1778 35.2961 28.1665 35.5222 28.1665 35.7499C28.1665 37.6066 28.86 39.3041 30.0008 40.5977L26.7 45.1479C25.7185 44.7754 24.6525 44.662 23.5898 44.8309C21.9792 45.0876 20.5658 45.9548 19.6084 47.2742C17.6334 49.9965 18.2416 53.8195 20.964 55.7945C22.017 56.5587 23.2568 56.9586 24.5327 56.9586C24.8553 56.9586 25.1811 56.9328 25.5053 56.8813C27.1143 56.6247 28.527 55.7575 29.4835 54.4397C30.4416 53.1188 30.8286 51.5058 30.5728 49.896C30.4014 48.8324 29.963 47.855 29.3041 47.0384L32.6033 42.4907C33.4939 42.8752 34.4745 43.0892 35.5051 43.0892C36.5356 43.0892 37.5235 42.8736 38.4165 42.4867L41.7221 47.0296C41.0649 47.8478 40.6272 48.826 40.4599 49.8903C40.2057 51.5009 40.5943 53.1139 41.5532 54.4317C42.7455 56.0704 44.607 56.9409 46.4944 56.9409C47.7389 56.9409 48.9947 56.562 50.0759 55.7752C51.3937 54.8162 52.2593 53.4011 52.5127 51.7914C52.7661 50.1816 52.3776 48.5702 51.4194 47.2532C50.4597 45.9339 49.0454 45.0674 47.434 44.8132C46.3697 44.6475 45.3045 44.7633 44.3247 45.1366L41.0174 40.5913C42.1542 39.2985 42.8452 37.6042 42.8452 35.7515C42.8452 35.5206 42.834 35.2913 42.813 35.0636L48.1548 33.3243C48.73 34.2028 49.5249 34.9205 50.4854 35.4088C51.3559 35.8512 52.2979 36.0757 53.2472 36.0757C53.8828 36.0757 54.5207 35.9751 55.1426 35.7724C58.3412 34.7306 60.0958 31.281 59.054 28.0823L59.0508 28.0807ZM20.4917 30.8835C20.2544 31.6164 19.7452 32.2142 19.0614 32.5641C18.3767 32.9133 17.5956 32.9744 16.8611 32.7363C15.3495 32.2463 14.5176 30.6172 15.0075 29.1056C15.4026 27.8876 16.5361 27.1113 17.7517 27.1113C18.0453 27.1113 18.3446 27.1563 18.6382 27.2521C19.3711 27.4894 19.9672 27.9986 20.318 28.6857C20.6671 29.3703 20.7291 30.1506 20.4909 30.8835H20.4917ZM32.6081 17.0882C32.6081 16.3191 32.9066 15.5951 33.4512 15.0496C33.9951 14.5042 34.7191 14.2041 35.489 14.2033H35.4914C36.2597 14.2033 36.9829 14.5026 37.5276 15.0472C38.073 15.5918 38.3731 16.3151 38.3739 17.0842C38.3739 17.8541 38.0746 18.5789 37.53 19.1252C36.9869 19.669 36.2637 19.9683 35.4938 19.9691H35.4914C34.7215 19.9691 33.9975 19.6698 33.4528 19.1284C32.909 18.5853 32.6097 17.8613 32.6089 17.089L32.6081 17.0882ZM26.8778 52.5492C26.4256 53.1718 25.7579 53.5821 24.9977 53.7028C24.2374 53.8243 23.4748 53.6417 22.8521 53.1895C21.5657 52.2563 21.2777 50.4503 22.2117 49.1639C22.6639 48.5404 23.3324 48.1301 24.0942 48.0095C24.2471 47.9853 24.3999 47.9733 24.5512 47.9733C25.1537 47.9733 25.7394 48.1623 26.2374 48.5235C26.8609 48.9756 27.272 49.6442 27.3942 50.4036C27.5149 51.1622 27.3315 51.9249 26.8786 52.55L26.8778 52.5492ZM46.9344 47.9909C47.6931 48.1108 48.3616 48.5203 48.8161 49.1446C49.269 49.7665 49.4525 50.5283 49.3326 51.2893C49.2127 52.0504 48.804 52.7189 48.1814 53.1718C46.8966 54.1075 45.0897 53.8219 44.1541 52.5371C43.7012 51.9144 43.5178 51.1518 43.6376 50.3899C43.7575 49.6313 44.1662 48.9636 44.7889 48.5098C45.4123 48.0569 46.175 47.8727 46.9344 47.9909ZM54.1434 32.7105C53.4105 32.9487 52.6294 32.8875 51.9416 32.5384C51.2569 32.19 50.7485 31.5947 50.5096 30.8626C50.2706 30.1297 50.3318 29.3478 50.6785 28.6623C51.0268 27.9777 51.623 27.4685 52.3575 27.2296C52.6527 27.133 52.9528 27.088 53.248 27.088C54.4628 27.088 55.5947 27.8627 55.9905 29.0783C56.4829 30.5899 55.6535 32.2198 54.1426 32.7121L54.1434 32.7105Z" fill="#12141D"/>
</g>
<defs>
<clipPath id="clip0_1048_23933">
<rect width="71" height="71" fill="white"/>
</clipPath>
</defs>
</svg>
