<svg width="71" height="71" viewBox="0 0 71 71" fill="none" xmlns="http://www.w3.org/2000/svg">
<g clip-path="url(#clip0_1048_24013)">
<path d="M35.5004 71C55.109 71 71.0008 55.109 71.0008 35.4996C71.0008 15.8902 55.1009 0 35.5004 0C15.8999 0 0 15.8991 0 35.5004C0 55.1017 15.891 71.0008 35.5004 71.0008V71Z" fill="#9AA4DA"/>
<path d="M35.5003 66.8898C31.2631 66.8898 27.1522 66.0596 23.2818 64.4224C19.5441 62.8416 16.187 60.5786 13.3045 57.6961C10.422 54.8136 8.15902 51.4573 6.5782 47.7189C4.94107 43.8477 4.11084 39.7367 4.11084 35.5003C4.11084 31.2639 4.94107 27.1522 6.5782 23.2818C8.15902 19.5441 10.422 16.187 13.3045 13.3045C16.187 10.422 19.5433 8.15902 23.2818 6.5782C27.153 4.94107 31.2639 4.11084 35.5003 4.11084C39.7367 4.11084 43.8485 4.94107 47.7189 6.5782C51.4565 8.15902 54.8136 10.422 57.6961 13.3045C60.5786 16.187 62.8416 19.5433 64.4224 23.2818C66.0596 27.153 66.8898 31.2639 66.8898 35.5003C66.8898 39.7367 66.0596 43.8485 64.4224 47.7189C62.8416 51.4565 60.5786 54.8136 57.6961 57.6961C54.8136 60.5786 51.4573 62.8416 47.7189 64.4224C43.8477 66.0596 39.7367 66.8898 35.5003 66.8898ZM35.5003 7.32879C27.9751 7.32879 20.9013 10.2595 15.5804 15.5796C10.2595 20.9005 7.32959 27.9751 7.32959 35.4995C7.32959 43.0239 10.2595 50.0985 15.5804 55.4194C20.9013 60.7403 27.9759 63.6702 35.5003 63.6702C43.0247 63.6702 50.0993 60.7395 55.4202 55.4194C60.7411 50.0985 63.6718 43.0239 63.6718 35.4995C63.6718 27.9751 60.7419 20.9005 55.4202 15.5796C50.0993 10.2587 43.0247 7.32879 35.5003 7.32879Z" fill="black"/>
<circle cx="25.9189" cy="24.8169" r="5.5" fill="white"/>
<circle cx="45.9189" cy="45.8169" r="5.5" fill="white"/>
<path d="M26.045 32.165C27.9275 32.165 29.6957 31.4289 31.0247 30.0926C32.3561 28.7539 33.089 26.9744 33.089 25.0825C33.089 21.1772 29.929 18 26.045 18C22.161 18 19.001 21.1772 19.001 25.0825C19.001 26.9769 19.7331 28.7564 21.0637 30.0942C22.3959 31.4289 24.1649 32.1641 26.045 32.1641V32.165ZM26.045 21.2355C28.1543 21.2355 29.8711 22.9608 29.8711 25.0825C29.8711 26.1106 29.4729 27.0772 28.7488 27.8051C28.028 28.5299 27.0675 28.9295 26.045 28.9295C25.0225 28.9295 24.0603 28.5291 23.3371 27.8051C22.6163 27.0796 22.2189 26.113 22.2189 25.0825C22.2189 22.9616 23.9348 21.2355 26.045 21.2355Z" fill="#12141D"/>
<path d="M45.7921 37.8563C41.908 37.8563 38.748 41.0335 38.748 44.9388C38.748 46.8331 39.4801 48.6126 40.8107 49.9505C42.1429 51.2852 43.912 52.0204 45.7921 52.0204C47.6721 52.0204 49.4428 51.2843 50.7718 49.9481C52.1032 48.6094 52.8361 46.8299 52.8361 44.9379C52.8361 41.0327 49.6761 37.8555 45.7921 37.8555V37.8563ZM48.4959 47.6606C47.7751 48.3854 46.8146 48.7849 45.7921 48.7849C44.7696 48.7849 43.8074 48.3845 43.0842 47.6606C42.3634 46.935 41.966 45.9684 41.966 44.9379C41.966 42.8171 43.6819 41.091 45.7921 41.091C47.9022 41.091 49.6182 42.8163 49.6182 44.9379C49.6182 45.966 49.2199 46.9326 48.4959 47.6606Z" fill="#12141D"/>
<path d="M52.3647 18.4743C51.7364 17.8426 50.718 17.8426 50.0889 18.4743L19.4712 49.2591C18.8429 49.8908 18.8429 50.9149 19.4712 51.5466C19.7858 51.8629 20.1969 52.0206 20.6088 52.0206C21.0206 52.0206 21.4325 51.8629 21.7463 51.5466L52.3639 20.7618C52.9922 20.13 52.9922 19.106 52.3639 18.4743H52.3647Z" fill="#12141D"/>
</g>
<defs>
<clipPath id="clip0_1048_24013">
<rect width="71" height="71" fill="white"/>
</clipPath>
</defs>
</svg>
