<?xml version="1.0" encoding="utf-8"?>
<!-- Generator: Adobe Illustrator 25.2.0, SVG Export Plug-In . SVG Version: 6.00 Build 0)  -->
<svg version="1.1" id="Layer_1" xmlns="http://www.w3.org/2000/svg" xmlns:xlink="http://www.w3.org/1999/xlink" x="0px" y="0px"
	 viewBox="0 0 951.59 916.94" style="enable-background:new 0 0 951.59 916.94;" xml:space="preserve">
<style type="text/css">
	.st0{fill:url(#SVGID_1_);}
	.st1{fill:#334876;}
	.st2{fill:none;stroke:#485166;stroke-width:22.246;stroke-miterlimit:10;}
	.st3{fill:#93C1E6;}
	.st4{fill:#3F5688;}
	.st5{fill:#3F5688;stroke:#B9E4FA;stroke-width:2.1898;stroke-miterlimit:10;}
	.st6{fill:#304571;}
	.st7{fill:#6D97BE;}
	.st8{fill:#1C233B;}
	.st9{fill:#C2B69B;}
	.st10{fill:#7A9FBF;}
	.st11{fill:#B9E4FA;}
	.st12{fill:#96BACC;}
	.st13{fill:#E2F4FD;}
	.st14{fill:none;stroke:#CEEBFB;stroke-width:2.1898;stroke-miterlimit:10;}
	.st15{fill:#C7D1EB;}
	.st16{fill:#3F5688;stroke:#B9E4FA;stroke-width:2.4895;stroke-miterlimit:10;}
	.st17{fill:none;stroke:#B9E4FA;stroke-width:4.2152;stroke-miterlimit:10;}
	.st18{fill:url(#SVGID_2_);}
	.st19{fill:#3F5688;stroke:#B9E4FA;stroke-width:2.876;stroke-miterlimit:10;}
	.st20{fill:none;stroke:#B9E4FA;stroke-width:4.8695;stroke-miterlimit:10;}
	.st21{fill:url(#SVGID_3_);}
	.st22{fill:none;stroke:#15374B;stroke-width:22.4521;stroke-miterlimit:10;}
	.st23{fill:#3F5688;stroke:#B9E4FA;stroke-width:3.742;stroke-miterlimit:10;}
	.st24{fill:none;stroke:#CEEBFB;stroke-width:3.742;stroke-miterlimit:10;}
	.st25{opacity:0.65;}
	.st26{clip-path:url(#SVGID_5_);}
	.st27{clip-path:url(#SVGID_7_);}
	.st28{fill:#15374B;}
	.st29{fill:url(#SVGID_10_);}
	.st30{fill:none;stroke:#485166;stroke-width:22.4424;stroke-miterlimit:10;}
	.st31{fill:#3F5688;stroke:#B9E4FA;stroke-width:3.7404;stroke-miterlimit:10;}
	.st32{fill:none;stroke:#CEEBFB;stroke-width:3.7404;stroke-miterlimit:10;}
	.st33{fill:#3674BA;}
	.st34{fill:#FFFFFF;}
</style>
<g>
	<linearGradient id="SVGID_1_" gradientUnits="userSpaceOnUse" x1="45.3427" y1="457.8069" x2="914.2455" y2="457.8069">
		<stop  offset="0" style="stop-color:#E8DAEB"/>
		<stop  offset="1" style="stop-color:#D1D8E4"/>
	</linearGradient>
	<circle class="st0" cx="479.79" cy="457.81" r="434.45"/>
	<g>
		<path class="st1" d="M590.17,613.31c0-68.99-57.65-81.28-173.9-109.63c-126.64-30.24-188.07-85.06-188.07-200.36
			c0-109.63,75.61-202.25,215.48-202.25c78.44,0,113.41,34.97,132.31,34.97c13.23,0,17.96-9.45,25.52-26.46h55.76l6.62,199.41
			h-73.72c-23.63-89.78-63.32-134.2-142.71-134.2c-54.81,0-101.12,24.57-101.12,80.33c0,60.49,54.82,76.55,128.53,96.4
			c122.86,32.13,224.93,57.65,224.93,214.53c0,129.48-90.73,217.37-221.15,217.37c-86.95,0-120.97-34.02-145.54-34.02
			c-13.23,0-17.96,10.4-26.46,35.91h-64.27l-8.51-224.93h74.66c22.68,88.84,62.38,145.54,160.66,145.54
			C545.76,705.92,590.17,673.79,590.17,613.31z"/>
	</g>
	<circle class="st2" cx="479.79" cy="457.81" r="434.45"/>
	<g>
		<g>
			<polyline class="st1" points="405.8,626.34 502.44,603.56 434.43,505.67 433.4,429.41 451.95,394.37 489.56,394.37 
				523.05,368.61 583.85,368.61 683.8,413.95 761.47,480.16 798.05,566.46 781.7,689.09 706.47,759.16 632.28,808.63 571.48,818.93 
				495.23,809.66 412.79,762.25 350.96,690.12 329.32,622.11 			"/>
			<polygon class="st3" points="430.97,531.32 472.49,520.09 511.66,536.94 557.09,536.94 603.31,506.9 644.83,540.6 658.14,589.69 
				658.14,647.57 691.83,584.56 683.21,515.69 723.94,566.24 730.21,604.34 710.63,684.2 756.06,625.59 756.06,543.53 734.13,475.4 
				693.39,429.98 630.09,407.77 570.06,374.28 516.36,388.95 492.07,404.34 470.14,403.6 448.21,416.79 439.59,437.3 419.22,459.28 
				409.82,489.32 414.52,509.1 			"/>
			<polygon class="st4" points="399.52,488.66 408.28,462.39 436.61,429.93 455.16,432.5 477.83,407.77 536.57,421.17 
				563.69,448.22 574.18,467.02 574.18,518.03 518.54,492.27 493.81,478.87 461.35,487.63 443.02,518.03 428.89,537.61 
				408.28,514.43 			"/>
			<polygon class="st5" points="548.42,400.56 557.69,387.68 574.18,387.68 591.7,404.16 591.7,425.8 581.4,438.69 555.63,425.29 
							"/>
			<polygon class="st6" points="548.42,400.56 574.18,408.41 555.63,425.29 			"/>
			<polygon class="st6" points="574.18,408.41 581.4,438.69 591.7,425.8 			"/>
			<polygon class="st7" points="574.18,408.41 574.18,387.68 591.7,404.16 			"/>
			<polygon class="st8" points="409.82,516.16 421.03,490.3 447.43,484.77 461.35,487.63 434.81,541.22 422.14,530.02 			"/>
			<polygon class="st8" points="493.81,478.87 545.07,478.87 574.18,518.03 537.34,501.03 516.81,491.33 			"/>
			<polygon class="st10" points="439.45,526.28 478.09,498.45 511.66,536.94 471.78,523.83 			"/>
			<polygon class="st10" points="557.09,536.94 605.77,487.63 644.83,540.6 603.31,506.9 			"/>
			<polygon class="st10" points="658.14,647.57 673.37,587.07 644.83,540.6 658.14,589.69 			"/>
			<polygon class="st10" points="710.63,684.2 730.21,604.34 723.94,566.24 742.92,609.74 			"/>
			<polygon class="st4" points="329.32,622.11 399.52,663.84 350.96,690.12 429.14,712.88 412.79,762.25 557.39,756.59 
				608.45,785.31 673.37,761.22 781.7,689.09 702.06,767.92 632.28,808.63 563.69,823.05 495.23,809.66 427.46,770.69 
				413.72,762.79 411.44,760.68 352.7,692.14 350.16,687.6 			"/>
			<g>
				<polygon class="st11" points="421.03,508.25 434.81,489.95 454.31,490.73 451.92,570.09 464.6,644.5 501.01,726.23 
					520.44,760.22 524.48,785.31 501.82,773.98 474.31,736.75 437.08,651.78 423.32,567.61 				"/>
				<polygon class="st12" points="434.81,489.95 451.92,570.09 454.31,490.73 				"/>
				<polygon class="st13" points="437.08,651.78 489.56,729.28 501.82,773.98 474.31,736.75 				"/>
				<polygon class="st12" points="524.48,785.31 504.51,756.07 520.44,760.22 				"/>
			</g>
			<g>
				<polygon class="st11" points="515.56,484.77 538.76,485.7 557.39,502.14 555.86,552.7 568.54,627.11 604.96,708.84 
					624.38,742.83 628.43,767.92 605.77,756.59 578.25,719.36 541.03,634.39 527.27,550.22 				"/>
				<polygon class="st12" points="538.76,485.7 556.52,530.81 557.39,502.14 				"/>
				<polygon class="st13" points="541.03,634.39 593.51,711.89 605.77,756.59 578.25,719.36 				"/>
				<polygon class="st12" points="628.43,767.92 608.45,738.68 624.38,742.83 				"/>
			</g>
			<polygon class="st14" points="548.42,400.56 557.69,387.68 574.18,387.68 591.7,404.16 591.7,425.8 581.4,438.69 555.63,425.29 
							"/>
		</g>
		<polygon class="st10" points="608.29,484.77 667.41,537.61 679.78,588.23 656.98,537.61 		"/>
		<polygon class="st10" points="692.53,514.12 734.65,560.8 749.33,610.65 739.67,556.93 		"/>
		<polygon class="st15" points="648.48,420.52 690.6,434.43 728.85,476.94 683.64,438.69 		"/>
		<polygon class="st13" points="423.32,567.61 464.6,644.5 437.08,651.78 		"/>
		<polygon class="st13" points="541.03,634.39 568.54,627.11 520.61,512.99 		"/>
		<polygon class="st12" points="568.54,627.11 593.51,711.89 604.96,708.84 		"/>
		<polygon class="st12" points="464.6,644.5 489.56,729.28 501.01,726.23 		"/>
		<polygon class="st12" points="422.92,557.19 428.41,498.45 421.03,508.25 		"/>
		<polygon class="st12" points="515.56,484.77 538.76,521.12 536.41,550.6 520.61,512.99 		"/>
	</g>
	<g>
		<polygon class="st16" points="486.69,217.84 436.76,217.84 411.8,261.08 436.76,304.32 486.69,304.32 511.66,261.08 		"/>
		<polygon class="st7" points="486.69,217.84 461.73,261.08 511.66,261.08 		"/>
		<polygon class="st6" points="436.76,304.32 461.73,261.08 486.69,304.32 		"/>
		<polygon class="st6" points="411.8,261.08 461.73,261.08 436.76,217.84 		"/>
		<polygon class="st17" points="486.69,217.84 436.76,217.84 411.8,261.08 436.76,304.32 486.69,304.32 511.66,261.08 		"/>
	</g>
</g>
<g>
	<path class="st33" d="M687.66,911.14c143.08,0,258.19-115.11,258.19-258.19S830.74,394.76,687.66,394.76
		S429.48,509.87,429.48,652.95S544.58,911.14,687.66,911.14z"/>
	<path class="st34" d="M758.67,693.83c0-37.65-22.59-50.56-67.77-55.94c-32.27-4.3-38.73-12.91-38.73-27.97s10.76-24.74,32.27-24.74
		c19.36,0,30.12,6.45,35.5,22.59c1.08,3.23,4.3,5.38,7.53,5.38h17.21c4.3,0,7.53-3.23,7.53-7.53v-1.08
		c-4.3-23.67-23.67-41.96-48.41-44.11v-25.82c0-4.3-3.23-7.53-8.61-8.61h-16.14c-4.3,0-7.53,3.23-8.61,8.61v24.74
		c-32.27,4.3-52.71,25.82-52.71,52.71c0,35.5,21.51,49.48,66.7,54.86c30.12,5.38,39.8,11.83,39.8,29.05
		c0,17.21-15.06,29.05-35.5,29.05c-27.97,0-37.65-11.84-40.88-27.97c-1.07-4.3-4.3-6.45-7.53-6.45h-18.29
		c-4.3,0-7.53,3.23-7.53,7.53v1.08c4.3,26.89,21.51,46.26,57.02,51.64v25.82c0,4.3,3.23,7.53,8.61,8.61h16.14
		c4.3,0,7.53-3.23,8.61-8.61v-25.82C737.15,745.46,758.67,722.87,758.67,693.83L758.67,693.83z"/>
	<path class="st34" d="M632.8,806.78c-83.91-30.12-126.94-123.71-95.74-206.55c16.14-45.18,51.64-79.61,95.74-95.74
		c4.3-2.15,6.45-5.38,6.45-10.76v-15.06c0-4.3-2.15-7.53-6.45-8.61c-1.08,0-3.23,0-4.3,1.07
		c-102.2,32.27-158.14,140.93-125.87,243.13c19.36,60.24,65.62,106.5,125.87,125.87c4.3,2.15,8.61,0,9.68-4.3
		c1.08-1.07,1.08-2.15,1.08-4.3v-15.06C639.25,813.24,636.03,808.94,632.8,806.78z M746.83,471.14c-4.3-2.15-8.61,0-9.68,4.3
		c-1.08,1.08-1.08,2.15-1.08,4.3v15.06c0,4.3,3.23,8.61,6.45,10.76c83.91,30.12,126.94,123.71,95.74,206.55
		c-16.14,45.18-51.64,79.61-95.74,95.74c-4.3,2.15-6.45,5.38-6.45,10.76v15.06c0,4.3,2.15,7.53,6.45,8.61c1.08,0,3.23,0,4.3-1.07
		c102.2-32.27,158.14-140.93,125.87-243.13C853.34,536.76,806,490.5,746.83,471.14L746.83,471.14z"/>
</g>
</svg>
