<svg width="38" height="30" viewBox="0 0 38 30" fill="none" xmlns="http://www.w3.org/2000/svg">
<g clip-path="url(#clip0_740_15585)">
<path d="M33.9311 7.47602C33.9548 7.80402 33.9548 8.13202 33.9548 8.46002C33.9744 11.294 33.4307 14.1036 32.3553 16.7256C31.2798 19.3477 29.694 21.7299 27.6901 23.7338C25.6861 25.7378 23.3039 27.3236 20.6819 28.399C18.0598 29.4745 15.2502 30.0182 12.4162 29.9986C8.29488 30.0093 4.25817 28.8292 0.791504 26.6004C1.39838 26.667 2.00863 26.6981 2.61913 26.6935C6.02712 26.7032 9.33898 25.5644 12.0203 23.4608C10.4406 23.4321 8.9093 22.9108 7.64026 21.9697C6.37121 21.0286 5.42778 19.7146 4.94171 18.2113C5.41484 18.286 5.89292 18.3251 6.3719 18.328C7.04394 18.3263 7.71307 18.2399 8.36353 18.0709C6.64902 17.7245 5.10739 16.795 4.00065 15.4404C2.89392 14.0859 2.29038 12.3899 2.29261 10.6408V10.5477C3.34163 11.1329 4.51409 11.462 5.71443 11.508C4.10728 10.4367 2.96968 8.79224 2.53392 6.91053C2.09816 5.02881 2.39709 3.05172 3.36969 1.38294C5.27129 3.72323 7.64354 5.63771 10.3326 7.00223C13.0217 8.36675 15.9675 9.15084 18.9791 9.30365C18.8572 8.73145 18.7943 8.14824 18.7915 7.56319C18.795 6.04581 19.254 4.56443 20.1091 3.31086C20.9641 2.0573 22.1757 1.08929 23.5871 0.532176C24.9986 -0.0249409 26.5447 -0.145506 28.0254 0.186092C29.5062 0.51769 30.8532 1.28618 31.8922 2.39205C33.5867 2.06447 35.2115 1.44507 36.694 0.561468C36.1294 2.31117 34.9458 3.79474 33.3653 4.73384C34.8699 4.56315 36.3405 4.16823 37.7282 3.56221C36.6917 5.0711 35.408 6.39428 33.9311 7.47602Z" fill="white"/>
</g>
<defs>
<clipPath id="clip0_740_15585">
<rect width="36.9367" height="30" fill="white" transform="translate(0.791504)"/>
</clipPath>
</defs>
</svg>
