<?xml version="1.0" encoding="utf-8"?>
<!-- Generator: Adobe Illustrator 25.2.0, SVG Export Plug-In . SVG Version: 6.00 Build 0)  -->
<svg version="1.1" id="Layer_1" xmlns="http://www.w3.org/2000/svg" xmlns:xlink="http://www.w3.org/1999/xlink" x="0px" y="0px"
	 viewBox="0 0 951.59 916.94" style="enable-background:new 0 0 951.59 916.94;" xml:space="preserve">
<style type="text/css">
	.st33{fill:#3674BA;}
	.st34{fill:#FFFFFF;}
</style>
<g>
	<path class="st33" d="M687.66,911.14c143.08,0,258.19-115.11,258.19-258.19S830.74,394.76,687.66,394.76
		S429.48,509.87,429.48,652.95S544.58,911.14,687.66,911.14z"/>
	<path class="st34" d="M758.67,693.83c0-37.65-22.59-50.56-67.77-55.94c-32.27-4.3-38.73-12.91-38.73-27.97s10.76-24.74,32.27-24.74
		c19.36,0,30.12,6.45,35.5,22.59c1.08,3.23,4.3,5.38,7.53,5.38h17.21c4.3,0,7.53-3.23,7.53-7.53v-1.08
		c-4.3-23.67-23.67-41.96-48.41-44.11v-25.82c0-4.3-3.23-7.53-8.61-8.61h-16.14c-4.3,0-7.53,3.23-8.61,8.61v24.74
		c-32.27,4.3-52.71,25.82-52.71,52.71c0,35.5,21.51,49.48,66.7,54.86c30.12,5.38,39.8,11.83,39.8,29.05
		c0,17.21-15.06,29.05-35.5,29.05c-27.97,0-37.65-11.84-40.88-27.97c-1.07-4.3-4.3-6.45-7.53-6.45h-18.29
		c-4.3,0-7.53,3.23-7.53,7.53v1.08c4.3,26.89,21.51,46.26,57.02,51.64v25.82c0,4.3,3.23,7.53,8.61,8.61h16.14
		c4.3,0,7.53-3.23,8.61-8.61v-25.82C737.15,745.46,758.67,722.87,758.67,693.83L758.67,693.83z"/>
	<path class="st34" d="M632.8,806.78c-83.91-30.12-126.94-123.71-95.74-206.55c16.14-45.18,51.64-79.61,95.74-95.74
		c4.3-2.15,6.45-5.38,6.45-10.76v-15.06c0-4.3-2.15-7.53-6.45-8.61c-1.08,0-3.23,0-4.3,1.07
		c-102.2,32.27-158.14,140.93-125.87,243.13c19.36,60.24,65.62,106.5,125.87,125.87c4.3,2.15,8.61,0,9.68-4.3
		c1.08-1.07,1.08-2.15,1.08-4.3v-15.06C639.25,813.24,636.03,808.94,632.8,806.78z M746.83,471.14c-4.3-2.15-8.61,0-9.68,4.3
		c-1.08,1.08-1.08,2.15-1.08,4.3v15.06c0,4.3,3.23,8.61,6.45,10.76c83.91,30.12,126.94,123.71,95.74,206.55
		c-16.14,45.18-51.64,79.61-95.74,95.74c-4.3,2.15-6.45,5.38-6.45,10.76v15.06c0,4.3,2.15,7.53,6.45,8.61c1.08,0,3.23,0,4.3-1.07
		c102.2-32.27,158.14-140.93,125.87-243.13C853.34,536.76,806,490.5,746.83,471.14L746.83,471.14z"/>
</g>
</svg>
