<svg id="Layer_1" data-name="Layer 1" xmlns="http://www.w3.org/2000/svg" xmlns:xlink="http://www.w3.org/1999/xlink" viewBox="0 0 1087.12 916.94"><defs><style>.cls-1{fill:url(#linear-gradient);}.cls-2{font-size:930.66px;font-family:AbrilTitling-Bold, Abril Titling;font-weight:700;}.cls-2,.cls-4{fill:#334876;}.cls-15,.cls-18,.cls-20,.cls-22,.cls-3{fill:none;}.cls-20,.cls-3{stroke:#485166;}.cls-15,.cls-17,.cls-18,.cls-20,.cls-21,.cls-22,.cls-3,.cls-7{stroke-miterlimit:10;}.cls-3{stroke-width:21.91px;}.cls-5{fill:#93c1e6;}.cls-17,.cls-21,.cls-6,.cls-7{fill:#3f5688;}.cls-17,.cls-18,.cls-21,.cls-7{stroke:#b9e4fa;}.cls-15,.cls-7{stroke-width:2.16px;}.cls-8{fill:#304571;}.cls-9{fill:#6d97be;}.cls-10{fill:#1c233b;}.cls-11{fill:#7a9fbf;}.cls-12{fill:#b9e4fa;}.cls-13{fill:#96bacc;}.cls-14{fill:#e2f4fd;}.cls-15,.cls-22{stroke:#ceebfb;}.cls-16{fill:#c7d1eb;}.cls-17{stroke-width:2.45px;}.cls-18{stroke-width:4.15px;}.cls-19{fill:url(#linear-gradient-2);}.cls-20{stroke-width:12.89px;}.cls-21,.cls-22{stroke-width:2.15px;}</style><linearGradient id="linear-gradient" x1="23.64" y1="461.36" x2="879.29" y2="461.36" gradientUnits="userSpaceOnUse"><stop offset="0" stop-color="#e8daeb"/><stop offset="1" stop-color="#d1d8e4"/></linearGradient><linearGradient id="linear-gradient-2" x1="570.78" y1="638.22" x2="1074.42" y2="638.22" xlink:href="#linear-gradient"/></defs><circle class="cls-1" cx="451.46" cy="461.36" r="427.82"/><text class="cls-2" transform="translate(161.83 771.77)">S</text><circle class="cls-3" cx="451.46" cy="461.36" r="427.82"/><polyline class="cls-4" points="378.6 627.32 473.76 604.89 406.79 508.49 405.77 433.39 424.04 398.89 461.08 398.89 494.06 373.52 553.93 373.52 652.36 418.17 728.84 483.37 764.87 568.36 748.76 689.11 674.68 758.12 601.62 806.83 541.75 816.97 466.66 807.84 385.48 761.16 324.59 690.13 303.28 623.15"/><polygon class="cls-5" points="403.38 533.75 444.27 522.69 482.84 539.28 527.58 539.28 573.09 509.7 613.98 542.89 627.09 591.23 627.09 648.22 660.26 586.18 651.77 518.36 691.89 568.14 698.06 605.66 678.77 684.29 723.51 626.58 723.51 545.78 701.91 478.68 661.8 433.95 599.46 412.08 540.35 379.11 487.47 393.55 463.55 408.7 441.95 407.98 420.36 420.97 411.87 441.17 391.81 462.81 382.56 492.39 387.19 511.87 403.38 533.75"/><polygon class="cls-6" points="372.41 491.74 381.04 465.87 408.94 433.9 427.21 436.44 449.53 412.08 507.37 425.28 534.08 451.91 544.41 470.43 544.41 520.66 489.61 495.3 465.26 482.1 433.3 490.73 415.25 520.66 401.33 539.94 381.04 517.11 372.41 491.74"/><polygon class="cls-7" points="519.04 404.98 528.17 392.3 544.41 392.3 561.66 408.53 561.66 429.84 551.51 442.53 526.14 429.34 519.04 404.98"/><polygon class="cls-8" points="519.04 404.98 544.41 412.72 526.14 429.34 519.04 404.98"/><polygon class="cls-8" points="544.41 412.72 551.51 442.53 561.66 429.84 544.41 412.72"/><polygon class="cls-9" points="544.41 412.72 544.41 392.3 561.66 408.53 544.41 412.72"/><polygon class="cls-10" points="382.56 518.83 393.59 493.36 419.6 487.9 433.3 490.73 407.17 543.5 394.69 532.47 382.56 518.83"/><polygon class="cls-10" points="465.26 482.1 515.74 482.1 544.41 520.66 508.13 503.92 487.91 494.37 465.26 482.1"/><polygon class="cls-11" points="411.73 528.78 449.78 501.38 482.84 539.28 443.57 526.37 411.73 528.78"/><polygon class="cls-11" points="527.58 539.28 575.52 490.73 613.98 542.89 573.09 509.7 527.58 539.28"/><polygon class="cls-11" points="627.09 648.22 642.08 588.65 613.98 542.89 627.09 591.23 627.09 648.22"/><polygon class="cls-11" points="678.77 684.29 698.06 605.66 691.89 568.14 710.58 610.98 678.77 684.29"/><polygon class="cls-6" points="303.28 623.15 372.41 664.25 324.59 690.13 401.58 712.54 385.48 761.16 527.87 755.59 578.16 783.87 642.08 760.15 748.76 689.11 670.34 766.74 601.62 806.83 534.08 821.03 466.66 807.84 399.93 769.47 386.4 761.69 384.15 759.61 326.3 692.12 323.8 687.64 303.28 623.15"/><polygon class="cls-12" points="393.59 511.04 407.17 493.01 426.37 493.78 424.01 571.93 436.5 645.2 472.36 725.69 491.48 759.16 495.47 783.87 473.15 772.71 446.06 736.05 409.4 652.37 395.85 569.49 393.59 511.04"/><polygon class="cls-13" points="407.17 493.01 424.01 571.93 426.37 493.78 407.17 493.01"/><polygon class="cls-14" points="409.4 652.37 461.08 728.69 473.15 772.71 446.06 736.05 409.4 652.37"/><polygon class="cls-13" points="495.47 783.87 475.8 755.07 491.48 759.16 495.47 783.87"/><polygon class="cls-12" points="486.68 487.9 509.53 488.83 527.87 505.02 526.37 554.81 538.86 628.07 574.72 708.57 593.85 742.04 597.83 766.74 575.52 755.59 548.42 718.92 511.76 635.25 498.21 552.37 486.68 487.9"/><polygon class="cls-13" points="509.53 488.83 527.02 533.24 527.87 505.02 509.53 488.83"/><polygon class="cls-14" points="511.76 635.25 563.45 711.57 575.52 755.59 548.42 718.92 511.76 635.25"/><polygon class="cls-13" points="597.83 766.74 578.16 737.95 593.85 742.04 597.83 766.74"/><polygon class="cls-15" points="519.04 404.98 528.17 392.3 544.41 392.3 561.66 408.53 561.66 429.84 551.51 442.53 526.14 429.34 519.04 404.98"/><polygon class="cls-11" points="577.99 487.9 636.22 539.94 648.39 589.79 625.94 539.94 577.99 487.9"/><polygon class="cls-11" points="660.95 516.81 702.43 562.78 716.89 611.87 707.38 558.97 660.95 516.81"/><polygon class="cls-16" points="617.57 424.64 659.05 438.34 696.72 480.2 652.2 442.53 617.57 424.64"/><polygon class="cls-14" points="395.85 569.49 436.5 645.2 409.4 652.37 395.85 569.49"/><polygon class="cls-14" points="511.76 635.25 538.86 628.07 491.65 515.7 511.76 635.25"/><polygon class="cls-13" points="538.86 628.07 563.45 711.57 574.72 708.57 538.86 628.07"/><polygon class="cls-13" points="436.5 645.2 461.08 728.69 472.36 725.69 436.5 645.2"/><polygon class="cls-13" points="395.45 559.22 400.86 501.38 393.59 511.04 395.45 559.22"/><polygon class="cls-13" points="486.68 487.9 509.53 523.71 507.21 552.74 491.65 515.7 486.68 487.9"/><polygon class="cls-17" points="458.25 225.06 409.09 225.06 384.5 267.63 409.09 310.21 458.25 310.21 482.84 267.63 458.25 225.06"/><polygon class="cls-9" points="458.25 225.06 433.67 267.63 482.84 267.63 458.25 225.06"/><polygon class="cls-8" points="409.09 310.21 433.67 267.63 458.25 310.21 409.09 310.21"/><polygon class="cls-8" points="384.5 267.63 433.67 267.63 409.09 225.06 384.5 267.63"/><polygon class="cls-18" points="458.25 225.06 409.09 225.06 384.5 267.63 409.09 310.21 458.25 310.21 482.84 267.63 458.25 225.06"/><circle class="cls-19" cx="822.6" cy="638.22" r="251.82"/><circle class="cls-20" cx="822.6" cy="638.22" r="251.82"/><polyline class="cls-4" points="667.64 670.19 762.49 647.83 695.74 551.75 694.73 476.91 712.94 442.53 749.85 442.53 782.72 417.24 842.39 417.24 940.49 461.74 1016.71 526.72 1052.61 611.42 1036.56 731.77 962.74 800.54 889.92 849.09 830.25 859.2 755.41 850.1 674.51 803.58 613.83 732.78 592.59 666.03"/><polygon class="cls-5" points="692.35 576.93 733.1 565.91 771.54 582.45 816.13 582.45 861.49 552.97 902.23 586.04 915.3 634.21 915.3 691.01 948.36 629.18 939.9 561.59 979.88 611.21 986.03 648.59 966.81 726.97 1011.4 669.45 1011.4 588.92 989.88 522.05 949.9 477.47 887.77 455.68 828.86 422.81 776.15 437.2 752.32 452.3 730.79 451.58 709.26 464.53 700.81 484.66 680.82 506.23 671.59 535.71 676.21 555.12 692.35 576.93"/><polygon class="cls-6" points="661.48 535.07 670.08 509.28 697.89 477.42 716.09 479.95 738.34 455.68 795.99 468.82 822.6 495.37 832.9 513.83 832.9 563.89 778.29 538.61 754.02 525.46 722.16 534.05 704.17 563.89 690.3 583.1 670.08 560.35 661.48 535.07"/><polygon class="cls-21" points="807.62 448.6 816.72 435.95 832.9 435.95 850.09 452.13 850.09 473.37 839.98 486.01 814.7 472.87 807.62 448.6"/><polygon class="cls-8" points="807.62 448.6 832.9 456.31 814.7 472.87 807.62 448.6"/><polygon class="cls-8" points="832.9 456.31 839.98 486.01 850.09 473.37 832.9 456.31"/><polygon class="cls-9" points="832.9 456.31 832.9 435.95 850.09 452.13 832.9 456.31"/><polygon class="cls-10" points="671.59 562.05 682.59 536.67 708.51 531.24 722.16 534.05 696.12 586.64 683.68 575.66 671.59 562.05"/><polygon class="cls-10" points="754.02 525.46 804.33 525.46 832.9 563.89 796.75 547.2 776.59 537.69 754.02 525.46"/><polygon class="cls-11" points="700.67 571.98 738.59 544.67 771.54 582.45 732.4 569.58 700.67 571.98"/><polygon class="cls-11" points="816.13 582.45 863.9 534.05 902.23 586.04 861.49 552.97 816.13 582.45"/><polygon class="cls-11" points="915.3 691.01 930.24 631.65 902.23 586.04 915.3 634.21 915.3 691.01"/><polygon class="cls-11" points="966.81 726.97 986.03 648.59 979.88 611.21 998.51 653.9 966.81 726.97"/><polygon class="cls-6" points="592.59 666.03 661.48 706.99 613.83 732.78 690.55 755.12 674.51 803.58 816.42 798.02 866.54 826.2 930.24 802.56 1036.56 731.77 958.4 809.14 889.92 849.09 822.6 863.24 755.41 850.1 688.91 811.86 675.42 804.1 673.18 802.03 615.53 734.77 613.04 730.3 592.59 666.03"/><polygon class="cls-12" points="682.59 554.29 696.12 536.33 715.26 537.09 712.91 614.98 725.35 688 761.09 768.22 780.15 801.58 784.12 826.2 761.88 815.08 734.88 778.55 698.35 695.15 684.84 612.55 682.59 554.29"/><polygon class="cls-13" points="696.12 536.33 712.91 614.98 715.26 537.09 696.12 536.33"/><polygon class="cls-14" points="698.35 695.15 749.86 771.21 761.88 815.08 734.88 778.55 698.35 695.15"/><polygon class="cls-13" points="784.12 826.2 764.52 797.51 780.15 801.58 784.12 826.2"/><polygon class="cls-12" points="775.36 531.24 798.13 532.16 816.42 548.29 814.92 597.92 827.37 670.94 863.11 751.16 882.17 784.51 886.14 809.14 863.9 798.02 836.9 761.48 800.36 678.09 786.86 595.48 775.36 531.24"/><polygon class="cls-13" points="798.13 532.16 815.57 576.43 816.42 548.29 798.13 532.16"/><polygon class="cls-14" points="800.36 678.09 851.87 754.15 863.9 798.02 836.9 761.48 800.36 678.09"/><polygon class="cls-13" points="886.14 809.14 866.54 780.44 882.17 784.51 886.14 809.14"/><polygon class="cls-22" points="807.62 448.6 816.72 435.95 832.9 435.95 850.09 452.13 850.09 473.37 839.98 486.01 814.7 472.87 807.62 448.6"/><polygon class="cls-11" points="866.37 531.24 924.4 583.1 936.53 632.78 914.16 583.1 866.37 531.24"/><polygon class="cls-11" points="949.05 560.05 990.39 605.86 1004.8 654.78 995.32 602.07 949.05 560.05"/><polygon class="cls-16" points="905.81 468.19 947.15 481.84 984.7 523.56 940.33 486.01 905.81 468.19"/><polygon class="cls-14" points="684.84 612.55 725.35 688 698.35 695.15 684.84 612.55"/><polygon class="cls-14" points="800.36 678.09 827.37 670.94 780.32 558.94 800.36 678.09"/><polygon class="cls-13" points="827.37 670.94 851.87 754.15 863.11 751.16 827.37 670.94"/><polygon class="cls-13" points="725.35 688 749.86 771.21 761.09 768.22 725.35 688"/><polygon class="cls-13" points="684.45 602.31 689.83 544.67 682.59 554.29 684.45 602.31"/><polygon class="cls-13" points="775.36 531.24 798.13 566.92 795.83 595.85 780.32 558.94 775.36 531.24"/></svg>