<?xml version="1.0" encoding="utf-8"?>
<!-- Generator: Adobe Illustrator 25.2.0, SVG Export Plug-In . SVG Version: 6.00 Build 0)  -->
<svg version="1.1" id="Layer_1" xmlns="http://www.w3.org/2000/svg" xmlns:xlink="http://www.w3.org/1999/xlink" x="0px" y="0px"
	 viewBox="0 0 951.59 916.94" style="enable-background:new 0 0 951.59 916.94;" xml:space="preserve">
<style type="text/css">
	.st0{fill:url(#SVGID_1_);}
	.st1{fill:#334876;}
	.st2{fill:none;stroke:#485166;stroke-width:22.246;stroke-miterlimit:10;}
	.st3{fill:#93C1E6;}
	.st4{fill:#3F5688;}
	.st5{fill:#3F5688;stroke:#B9E4FA;stroke-width:2.1898;stroke-miterlimit:10;}
	.st6{fill:#304571;}
	.st7{fill:#6D97BE;}
	.st8{fill:#1C233B;}
	.st9{fill:#C2B69B;}
	.st10{fill:#7A9FBF;}
	.st11{fill:#B9E4FA;}
	.st12{fill:#96BACC;}
	.st13{fill:#E2F4FD;}
	.st14{fill:none;stroke:#CEEBFB;stroke-width:2.1898;stroke-miterlimit:10;}
	.st15{fill:#C7D1EB;}
	.st16{fill:#3F5688;stroke:#B9E4FA;stroke-width:2.4895;stroke-miterlimit:10;}
	.st17{fill:none;stroke:#B9E4FA;stroke-width:4.2152;stroke-miterlimit:10;}
	.st18{fill:url(#SVGID_2_);}
	.st19{fill:#3F5688;stroke:#B9E4FA;stroke-width:2.876;stroke-miterlimit:10;}
	.st20{fill:none;stroke:#B9E4FA;stroke-width:4.8695;stroke-miterlimit:10;}
	.st21{fill:url(#SVGID_3_);}
	.st22{fill:none;stroke:#15374B;stroke-width:22.4521;stroke-miterlimit:10;}
	.st23{fill:#3F5688;stroke:#B9E4FA;stroke-width:3.742;stroke-miterlimit:10;}
	.st24{fill:none;stroke:#CEEBFB;stroke-width:3.742;stroke-miterlimit:10;}
	.st25{opacity:0.65;}
	.st26{clip-path:url(#SVGID_5_);}
	.st27{fill:#15374B;}
	.st28{fill:url(#SVGID_6_);}
	.st29{fill:none;stroke:#485166;stroke-width:22.4424;stroke-miterlimit:10;}
	.st30{fill:#3F5688;stroke:#B9E4FA;stroke-width:3.7404;stroke-miterlimit:10;}
	.st31{fill:none;stroke:#CEEBFB;stroke-width:3.7404;stroke-miterlimit:10;}
	.st32{fill:#3674BA;}
	.st33{fill:#FFFFFF;}
</style>
<g>
	<linearGradient id="SVGID_1_" gradientUnits="userSpaceOnUse" x1="37.5063" y1="458.4706" x2="914.0819" y2="458.4706">
		<stop  offset="0" style="stop-color:#E8DAEB"/>
		<stop  offset="1" style="stop-color:#D1D8E4"/>
	</linearGradient>
	<circle class="st0" cx="475.79" cy="458.47" r="438.29"/>
	<circle class="st29" cx="475.79" cy="458.47" r="438.29"/>
	<g>
		<polyline class="st1" points="206.1,514.11 371.18,475.19 255,307.97 253.24,177.72 284.93,117.87 349.17,117.87 406.38,73.87 
			510.23,73.87 680.97,151.32 813.64,264.41 876.12,411.83 848.19,621.29 719.7,740.98 592.96,825.47 489.11,843.07 358.86,827.23 
			218.04,746.26 112.43,623.05 75.47,506.88 		"/>
		<polygon class="st3" points="249.1,351.8 320.02,332.61 386.92,361.39 464.53,361.39 543.47,310.09 614.39,367.65 637.14,451.5 
			637.14,550.36 694.67,442.74 679.96,325.1 749.53,411.45 760.24,476.52 726.79,612.93 804.4,512.81 804.4,372.66 766.93,256.28 
			697.35,178.69 589.21,140.76 486.68,83.55 394.95,108.61 353.47,134.89 316,133.64 278.54,156.16 263.82,191.2 229.03,228.75 
			212.97,280.05 221,313.84 		"/>
		<polygon class="st4" points="195.37,278.93 210.33,234.05 258.74,178.6 290.42,183 329.14,140.76 429.47,163.64 475.79,209.84 
			493.72,241.97 493.72,329.1 398.67,285.09 356.43,262.21 300.98,277.17 269.68,329.1 245.53,362.54 210.33,322.94 		"/>
		<polygon class="st30" points="449.72,128.43 465.56,106.43 493.72,106.43 523.64,134.6 523.64,171.56 506.04,193.56 
			462.04,170.68 		"/>
		<polygon class="st6" points="449.72,128.43 493.72,141.86 462.04,170.68 		"/>
		<polygon class="st6" points="493.72,141.86 506.04,193.56 523.64,171.56 		"/>
		<polygon class="st7" points="493.72,141.86 493.72,106.43 523.64,134.6 		"/>
		<polygon class="st8" points="212.97,325.91 232.11,281.73 277.22,272.27 300.98,277.17 255.66,368.7 234.01,349.58 		"/>
		<polygon class="st8" points="356.43,262.21 444,262.21 493.72,329.1 430.79,300.05 395.72,283.49 		"/>
		<polygon class="st10" points="263.58,343.18 329.58,295.65 386.92,361.39 318.8,339 		"/>
		<polygon class="st10" points="464.53,361.39 547.68,277.17 614.39,367.65 543.47,310.09 		"/>
		<polygon class="st10" points="637.14,550.36 663.14,447.03 614.39,367.65 637.14,451.5 		"/>
		<polygon class="st10" points="726.79,612.93 760.24,476.52 749.53,411.45 781.95,485.75 		"/>
		<polygon class="st4" points="75.47,506.88 195.37,578.16 112.43,623.05 245.97,661.92 218.04,746.26 465.04,736.59 552.26,785.65 
			663.14,744.5 848.19,621.29 712.15,755.94 592.96,825.47 475.79,850.11 358.86,827.23 243.1,760.67 219.64,747.18 215.73,743.57 
			115.39,626.5 111.06,618.73 		"/>
		<g>
			<polygon class="st11" points="232.11,312.39 255.66,281.13 288.97,282.46 284.87,418.03 306.53,545.11 368.74,684.73 
				401.92,742.79 408.83,785.65 370.12,766.29 323.12,702.7 259.53,557.55 236.03,413.79 			"/>
			<polygon class="st12" points="255.66,281.13 284.87,418.03 288.97,282.46 			"/>
			<polygon class="st13" points="259.53,557.55 349.18,689.94 370.12,766.29 323.12,702.7 			"/>
			<polygon class="st12" points="408.83,785.65 374.71,735.7 401.92,742.79 			"/>
		</g>
		<g>
			<polygon class="st11" points="393.58,272.27 433.21,273.87 465.04,301.96 462.43,388.32 484.09,515.41 546.29,655.03 
				579.47,713.09 586.38,755.94 547.68,736.59 500.68,673 437.09,527.85 413.59,384.08 			"/>
			<polygon class="st12" points="433.21,273.87 463.56,350.92 465.04,301.96 			"/>
			<polygon class="st13" points="437.09,527.85 526.74,660.23 547.68,736.59 500.68,673 			"/>
			<polygon class="st12" points="586.38,755.94 552.26,706 579.47,713.09 			"/>
		</g>
		<polygon class="st31" points="449.72,128.43 465.56,106.43 493.72,106.43 523.64,134.6 523.64,171.56 506.04,193.56 
			462.04,170.68 		"/>
	</g>
	<polygon class="st10" points="551.98,272.27 652.97,362.54 674.09,449.01 635.15,362.54 	"/>
	<polygon class="st10" points="695.87,322.41 767.82,402.14 792.9,487.29 776.4,395.54 	"/>
	<polygon class="st15" points="620.62,162.54 692.57,186.3 757.92,258.91 680.69,193.56 	"/>
	<polygon class="st13" points="236.03,413.79 306.53,545.11 259.53,557.55 	"/>
	<polygon class="st13" points="437.09,527.85 484.09,515.41 402.21,320.49 	"/>
	<polygon class="st12" points="484.09,515.41 526.74,660.23 546.29,655.03 	"/>
	<polygon class="st12" points="306.53,545.11 349.18,689.94 368.74,684.73 	"/>
	<polygon class="st12" points="235.34,395.98 244.72,295.65 232.11,312.39 	"/>
	<polygon class="st12" points="393.58,272.27 433.21,334.38 429.19,384.73 402.21,320.49 	"/>
</g>
<g>
	<path class="st32" d="M687.66,911.14c143.08,0,258.19-115.11,258.19-258.19S830.74,394.76,687.66,394.76
		S429.48,509.87,429.48,652.95S544.58,911.14,687.66,911.14z"/>
	<path class="st33" d="M758.67,693.83c0-37.65-22.59-50.56-67.77-55.94c-32.27-4.3-38.73-12.91-38.73-27.97s10.76-24.74,32.27-24.74
		c19.36,0,30.12,6.45,35.5,22.59c1.08,3.23,4.3,5.38,7.53,5.38h17.21c4.3,0,7.53-3.23,7.53-7.53v-1.08
		c-4.3-23.67-23.67-41.96-48.41-44.11v-25.82c0-4.3-3.23-7.53-8.61-8.61h-16.14c-4.3,0-7.53,3.23-8.61,8.61v24.74
		c-32.27,4.3-52.71,25.82-52.71,52.71c0,35.5,21.51,49.48,66.7,54.86c30.12,5.38,39.8,11.83,39.8,29.05
		c0,17.21-15.06,29.05-35.5,29.05c-27.97,0-37.65-11.84-40.88-27.97c-1.07-4.3-4.3-6.45-7.53-6.45h-18.29
		c-4.3,0-7.53,3.23-7.53,7.53v1.08c4.3,26.89,21.51,46.26,57.02,51.64v25.82c0,4.3,3.23,7.53,8.61,8.61h16.14
		c4.3,0,7.53-3.23,8.61-8.61v-25.82C737.15,745.46,758.67,722.87,758.67,693.83L758.67,693.83z"/>
	<path class="st33" d="M632.8,806.78c-83.91-30.12-126.94-123.71-95.74-206.55c16.14-45.18,51.64-79.61,95.74-95.74
		c4.3-2.15,6.45-5.38,6.45-10.76v-15.06c0-4.3-2.15-7.53-6.45-8.61c-1.08,0-3.23,0-4.3,1.07
		c-102.2,32.27-158.14,140.93-125.87,243.13c19.36,60.24,65.62,106.5,125.87,125.87c4.3,2.15,8.61,0,9.68-4.3
		c1.08-1.07,1.08-2.15,1.08-4.3v-15.06C639.25,813.24,636.03,808.94,632.8,806.78z M746.83,471.14c-4.3-2.15-8.61,0-9.68,4.3
		c-1.08,1.08-1.08,2.15-1.08,4.3v15.06c0,4.3,3.23,8.61,6.45,10.76c83.91,30.12,126.94,123.71,95.74,206.55
		c-16.14,45.18-51.64,79.61-95.74,95.74c-4.3,2.15-6.45,5.38-6.45,10.76v15.06c0,4.3,2.15,7.53,6.45,8.61c1.08,0,3.23,0,4.3-1.07
		c102.2-32.27,158.14-140.93,125.87-243.13C853.34,536.76,806,490.5,746.83,471.14L746.83,471.14z"/>
</g>
</svg>
