<svg width="71" height="71" viewBox="0 0 71 71" fill="none" xmlns="http://www.w3.org/2000/svg">
<path d="M35.5 71C55.1088 71 71 55.1088 71 35.5C71 15.8912 55.1088 0 35.5 0C15.8912 0 0 15.8993 0 35.5C0 55.1007 15.8912 71 35.5 71Z" fill="url(#paint0_linear_1048_23970)"/>
<path d="M15.0895 17.843L13.915 20.9694L14.5063 27.6838L17.9891 41.866L32.7868 60.592L39.5904 61.5234L52.7358 58.2513L62.0664 23.869L53.2947 14.3197L41.3966 5.92865L37.4035 4.92432L27.757 6.95728L17.3654 14.0848L15.0895 17.843Z" fill="white"/>
<path d="M50.7998 54.2585C46.3289 49.4069 42.7814 44.118 40.2543 38.5455C38.9827 35.7593 37.9217 32.8111 37.0793 29.7171C36.7635 29.5956 36.4557 29.466 36.1398 29.3364C35.8239 29.2068 35.508 29.061 35.1922 28.9234C36.075 32.4547 37.2575 35.9051 38.7802 39.2259C41.4692 45.1466 45.1788 50.549 49.6092 55.36C49.8927 55.6678 49.8684 56.1538 49.5606 56.4373C49.4148 56.575 49.2285 56.6398 49.0423 56.6398C48.8803 56.6398 48.7264 56.5912 48.5887 56.494C39.5902 49.8281 33.0296 39.9062 30.1867 29.0691C29.9761 28.2511 29.7655 27.3521 29.5954 26.5259C29.5711 26.4206 29.5549 26.3153 29.5306 26.2019C29.401 26.1452 29.2795 26.0804 29.1499 26.0237C28.9799 25.9427 28.8017 25.8698 28.6316 25.8051C28.34 25.6917 28.0484 25.5945 27.7568 25.5054C27.8297 25.9427 27.9188 26.3882 28.0079 26.8418C28.1618 27.6031 28.3724 28.486 28.6154 29.4579V29.466V29.4741C30.0814 35.0709 32.4707 40.376 35.7267 45.2438C39.0151 50.1602 43.0162 54.38 47.6168 57.7899C48.0298 58.0896 48.5158 58.2516 49.0261 58.2516C49.6254 58.2516 50.1924 58.0329 50.6379 57.6279C51.1076 57.1986 51.383 56.6155 51.4073 55.9756C51.4478 55.3357 51.2291 54.7283 50.7998 54.2585Z" fill="#12141D"/>
<path d="M40.2381 4.19558C39.1528 3.73391 38.0432 3.49902 36.9174 3.49902C36.1398 3.49902 35.3704 3.61242 34.609 3.8311C31.0452 3.96069 27.603 5.00553 24.6224 6.60112C22.152 7.92944 19.9571 9.67082 18.4587 11.882L18.2805 12.0035C18.1428 12.0926 16.9279 12.8863 15.6238 14.4009C14.0363 16.2395 12.9753 18.4021 12.5136 20.6861C12.0358 20.9291 11.5741 21.2126 11.08 21.4151C10.6994 21.5852 9.92991 21.9253 9.54923 22.1035C8.04273 22.8163 6.49573 23.5938 5.03783 24.4038C4.88394 24.4929 4.96493 24.7277 5.12692 24.7115C5.61289 24.6873 6.33374 24.6144 6.81971 24.5658C8.18042 24.4281 9.63833 24.2499 10.9909 24.0312C11.3554 23.9664 11.8252 23.8854 12.2383 23.8368C12.2545 24.663 12.3355 25.4567 12.4569 26.21C12.133 26.5177 11.809 26.8336 11.4607 27.109C11.1367 27.3682 10.4807 27.9027 10.1648 28.17C8.89318 29.2473 7.59726 30.3974 6.40664 31.5637C6.27705 31.6852 6.41474 31.8958 6.57673 31.8391C7.0384 31.6852 7.71875 31.4341 8.17232 31.264C9.45204 30.7781 10.8128 30.2273 12.0682 29.6684C12.384 29.5226 12.7809 29.3444 13.1454 29.1906C13.4289 30.1301 13.7124 30.8429 13.8663 31.2154C13.8825 31.2964 13.8987 31.3855 13.9229 31.4665C13.7043 31.8229 13.4937 32.1874 13.2426 32.5194C12.9915 32.8515 12.5055 33.5319 12.2626 33.8802C11.3149 35.249 10.3592 36.6988 9.50874 38.1324C9.41964 38.2863 9.60593 38.4483 9.74362 38.3511C10.1486 38.0838 10.7399 37.6626 11.1367 37.3791C12.2464 36.5773 13.4208 35.6944 14.4818 34.8278C14.5547 34.7711 14.6357 34.7063 14.7167 34.6334C15.2837 36.634 15.9721 38.6021 16.7659 40.5217H4.02539C6.41474 55.6758 19.5359 67.2743 35.3623 67.2743C52.8814 67.2743 67.0879 53.0678 67.0879 35.5486C67.0798 19.6818 55.4409 6.54443 40.2381 4.19558ZM14.7977 21.7633C15.5266 16.6526 19.5926 14.0607 19.5926 14.0607C19.5926 14.0607 20.8075 15.9803 22.881 15.9803C22.881 15.9803 24.9868 14.2956 25.6753 13.7692L26.4285 13.1941C28.7126 11.6876 32.9243 11.7362 34.6252 12.8377C38.4077 15.2757 40.7808 13.0321 39.6712 11.1449C38.3267 8.86088 37.7516 8.11572 35.9373 8.4235C34.042 8.73938 31.8552 9.08766 30.4621 9.30635C31.2801 8.56929 32.1549 7.89704 33.0377 7.28148C34.3579 6.36624 35.6538 5.93697 36.9174 5.93697C38.7235 5.93697 40.4649 6.81171 42.101 8.36681C47.0579 13.0726 50.8647 13.5019 52.2416 18.4264C52.2416 18.4264 52.2335 18.4264 52.2335 18.4183C50.7027 17.7622 49.0909 17.1223 47.5196 16.5797C47.3576 16.523 47.228 16.7336 47.3495 16.8551C47.6897 17.1952 48.2242 17.6893 48.5806 18.0214C49.5849 18.9528 50.6865 19.9167 51.7475 20.7833C52.0391 21.0182 52.4117 21.3179 52.7356 21.5933C52.7761 23.1322 52.4765 24.3957 51.9338 25.4243C51.5369 25.1408 51.1238 24.8735 50.7594 24.5658C50.4354 24.2985 49.7874 23.7639 49.4634 23.5047C48.1513 22.4761 46.7663 21.4394 45.3813 20.5079C45.2355 20.4107 45.0573 20.5808 45.1464 20.7266C45.3894 21.1478 45.7701 21.7633 46.0293 22.1764C46.7582 23.3346 47.5763 24.5496 48.3781 25.6673C48.6697 26.0642 49.0828 26.623 49.342 27.0442C49.5039 27.3034 49.6578 27.5626 49.8198 27.8136C48.8479 28.5102 47.714 28.9719 46.5881 29.2797L46.58 29.2716C46.337 28.9314 45.8511 28.251 45.6 27.9108C44.5957 26.5825 43.5265 25.2137 42.4331 23.9583C42.3197 23.8287 42.101 23.9502 42.1496 24.1122C42.2711 24.582 42.4898 25.2704 42.6275 25.7402C43.0325 27.0523 43.5022 28.4373 43.9882 29.717C43.6804 29.7413 43.3726 29.7494 43.0649 29.7494C38.6183 29.7494 34.7386 27.2548 29.6521 24.9059C28.3724 24.3147 26.9955 23.9664 25.6429 23.9664C23.9582 23.9664 22.3059 24.5091 20.9128 25.7969C19.7384 26.8822 16.1908 30.4703 16.1908 30.4703C16.1908 30.4703 14.174 26.1128 14.7977 21.7633ZM36.156 60.3897C36.0102 60.5274 35.8239 60.5922 35.6376 60.5922C35.4757 60.5922 35.3218 60.5436 35.1841 60.4464C34.9816 60.3006 34.7872 60.1468 34.5928 60.001C34.5523 59.9686 34.5037 59.9362 34.4632 59.9038C34.2688 59.758 34.0825 59.6041 33.8882 59.4583C33.8558 59.434 33.8315 59.4097 33.7991 59.3854C33.629 59.2477 33.4508 59.11 33.2807 58.9642C33.2483 58.9399 33.2159 58.9075 33.1754 58.8832C32.9891 58.7293 32.8028 58.5755 32.6165 58.4135C32.576 58.3811 32.5436 58.3487 32.5031 58.3163C32.325 58.1624 32.1468 58.0085 31.9767 57.8546C31.9605 57.8465 31.9524 57.8303 31.9362 57.8222C31.7499 57.6602 31.5717 57.4901 31.3854 57.3281C31.3449 57.2957 31.3125 57.2552 31.272 57.2228C31.0938 57.0528 30.9076 56.8908 30.7294 56.7126C30.7132 56.6964 30.697 56.6802 30.6808 56.6721C30.5107 56.5101 30.3406 56.3481 30.1786 56.178C30.1462 56.1456 30.1138 56.1132 30.0814 56.0889C29.9032 55.9188 29.7331 55.7406 29.5549 55.5625C29.5306 55.5382 29.4982 55.5058 29.4739 55.4815C29.312 55.3114 29.1419 55.1413 28.9799 54.9712C28.9637 54.955 28.9475 54.9388 28.9313 54.9226C28.7612 54.7363 28.5911 54.5581 28.421 54.3718C28.3886 54.3394 28.3643 54.307 28.3319 54.2746C27.9917 53.9021 27.6516 53.5133 27.3195 53.1326C27.2952 53.1002 27.2709 53.0759 27.2466 53.0435C27.0846 52.8491 26.9145 52.6547 26.7525 52.4604C26.7363 52.4442 26.7282 52.428 26.712 52.4118C26.55 52.2174 26.3961 52.0311 26.2423 51.8367C26.2261 51.8205 26.218 51.8043 26.2018 51.7881C26.0398 51.5856 25.8778 51.3831 25.7239 51.1806C25.7077 51.1563 25.6834 51.132 25.6672 51.1077C25.3513 50.6947 25.0354 50.2735 24.7276 49.8523C24.7115 49.828 24.6953 49.8037 24.671 49.7794C24.3632 49.3502 24.0554 48.9128 23.7638 48.4754C23.7557 48.4592 23.7476 48.443 23.7314 48.4268C23.5856 48.2081 23.4398 47.9813 23.294 47.7627C23.2859 47.7465 23.2778 47.7384 23.2697 47.7222C22.9782 47.2686 22.6947 46.815 22.4193 46.3615C22.4112 46.3452 22.395 46.329 22.3869 46.3048C22.1115 45.8431 21.8361 45.3814 21.577 44.9116C21.5689 44.8954 21.5608 44.8873 21.5527 44.8711C21.1477 44.1503 20.767 43.4213 20.4025 42.6843C20.3944 42.6762 20.3944 42.66 20.3863 42.6519C20.1433 42.1659 19.9085 41.6719 19.6817 41.1778C19.6736 41.1697 19.6736 41.1535 19.6655 41.1454C19.4387 40.6432 19.22 40.141 19.0013 39.6308C18.1347 37.5654 17.4138 35.4353 16.8307 33.2727L17.8998 32.1955C17.9241 32.1712 19.5521 30.527 20.9452 29.1501C21.8685 33.9773 23.3021 38.6993 25.3594 43.1865C28.0484 49.1072 31.758 54.5095 36.1884 59.3206C36.4881 59.6284 36.4719 60.1063 36.156 60.3897ZM49.5525 56.4291C49.4067 56.5668 49.2205 56.6316 49.0342 56.6316C48.8722 56.6316 48.7183 56.583 48.5806 56.4858C39.5821 49.8199 33.0215 39.8981 30.1786 29.061C30.0652 28.6236 29.9518 28.1538 29.8465 27.6922C30.4621 27.9918 31.0695 28.2834 31.6608 28.575C32.981 29.223 34.2769 29.8628 35.5809 30.4136C36.4152 33.4185 37.4681 36.3667 38.7721 39.2177C41.4612 45.1384 45.1707 50.5408 49.6011 55.3519C49.8846 55.6596 49.8684 56.1456 49.5525 56.4291Z" fill="#12141D"/>
<defs>
<linearGradient id="paint0_linear_1048_23970" x1="0.000809948" y1="35.502" x2="70.9992" y2="35.502" gradientUnits="userSpaceOnUse">
<stop stop-color="#07C4FF"/>
<stop offset="1" stop-color="#00F0E2"/>
</linearGradient>
</defs>
</svg>
