<svg id="Layer_1" data-name="Layer 1" xmlns="http://www.w3.org/2000/svg" xmlns:xlink="http://www.w3.org/1999/xlink" viewBox="0 0 951.59 916.94"><defs><style>.cls-1{fill:url(#linear-gradient);}.cls-2{font-size:945.08px;font-family:AbrilTitling-Bold, Abril Titling;font-weight:700;}.cls-2,.cls-4{fill:#334876;}.cls-15,.cls-18,.cls-3{fill:none;}.cls-3{stroke:#485166;stroke-width:22.25px;}.cls-15,.cls-17,.cls-18,.cls-3,.cls-7{stroke-miterlimit:10;}.cls-5{fill:#93c1e6;}.cls-17,.cls-6,.cls-7{fill:#3f5688;}.cls-17,.cls-18,.cls-7{stroke:#b9e4fa;}.cls-15,.cls-7{stroke-width:2.19px;}.cls-8{fill:#304571;}.cls-9{fill:#6d97be;}.cls-10{fill:#1c233b;}.cls-11{fill:#7a9fbf;}.cls-12{fill:#b9e4fa;}.cls-13{fill:#96bacc;}.cls-14{fill:#e2f4fd;}.cls-15{stroke:#ceebfb;}.cls-16{fill:#c7d1eb;}.cls-17{stroke-width:2.49px;}.cls-18{stroke-width:4.22px;}</style><linearGradient id="linear-gradient" x1="43.98" y1="460.8" x2="912.89" y2="460.8" gradientUnits="userSpaceOnUse"><stop offset="0" stop-color="#e8daeb"/><stop offset="1" stop-color="#d1d8e4"/></linearGradient></defs><circle class="cls-1" cx="478.44" cy="460.8" r="434.45"/><text class="cls-2" transform="translate(184.32 776.02)">S</text><circle class="cls-3" cx="478.44" cy="460.8" r="434.45"/><polyline class="cls-4" points="404.44 629.34 501.08 606.55 433.07 508.66 432.04 432.4 450.59 397.37 488.2 397.37 521.69 371.61 582.49 371.61 682.45 416.95 760.11 483.15 796.7 569.46 780.34 692.08 705.12 762.16 630.92 811.62 570.12 821.92 493.87 812.65 411.43 765.25 349.6 693.11 327.96 625.1"/><polygon class="cls-5" points="429.61 534.32 471.13 523.08 510.3 539.93 555.73 539.93 601.95 509.9 643.47 543.6 656.78 592.68 656.78 650.56 690.47 587.55 681.85 518.69 722.59 569.24 728.85 607.33 709.27 687.19 754.7 628.58 754.7 546.53 732.77 478.39 692.03 432.97 628.73 410.76 568.7 377.27 515 391.94 490.71 407.33 468.78 406.6 446.85 419.78 438.23 440.3 417.86 462.28 408.46 492.31 413.16 512.09 429.61 534.32"/><polygon class="cls-6" points="398.16 491.66 406.92 465.38 435.26 432.92 453.8 435.5 476.48 410.76 535.21 424.16 562.33 451.21 572.82 470.02 572.82 521.02 517.18 495.26 492.45 481.87 459.99 490.63 441.66 521.02 427.53 540.6 406.92 517.42 398.16 491.66"/><polygon class="cls-7" points="547.06 403.55 556.34 390.67 572.82 390.67 590.34 407.16 590.34 428.8 580.04 441.68 554.27 428.28 547.06 403.55"/><polygon class="cls-8" points="547.06 403.55 572.82 411.41 554.27 428.28 547.06 403.55"/><polygon class="cls-8" points="572.82 411.41 580.04 441.68 590.34 428.8 572.82 411.41"/><polygon class="cls-9" points="572.82 411.41 572.82 390.67 590.34 407.16 572.82 411.41"/><polygon class="cls-10" points="408.46 519.16 419.67 493.3 446.08 487.76 459.99 490.63 433.45 544.21 420.78 533.02 408.46 519.16"/><polygon class="cls-10" points="492.45 481.87 543.71 481.87 572.82 521.02 535.99 504.02 515.45 494.33 492.45 481.87"/><polygon class="cls-11" points="438.09 529.27 476.73 501.45 510.3 539.93 470.42 526.82 438.09 529.27"/><polygon class="cls-11" points="555.73 539.93 604.41 490.63 643.47 543.6 601.95 509.9 555.73 539.93"/><polygon class="cls-11" points="656.78 650.56 672.01 590.07 643.47 543.6 656.78 592.68 656.78 650.56"/><polygon class="cls-11" points="709.27 687.19 728.85 607.33 722.59 569.24 741.56 612.74 709.27 687.19"/><polygon class="cls-6" points="327.96 625.1 398.16 666.84 349.6 693.11 427.79 715.87 411.43 765.25 556.03 759.59 607.1 788.3 672.01 764.22 780.34 692.08 700.7 770.91 630.92 811.62 562.33 826.05 493.87 812.65 426.1 773.68 412.37 765.78 410.08 763.67 351.34 695.14 348.8 690.59 327.96 625.1"/><polygon class="cls-12" points="419.67 511.25 433.45 492.94 452.95 493.72 450.56 573.09 463.24 647.49 499.65 729.23 519.08 763.22 523.12 788.3 500.46 776.98 472.95 739.75 435.72 654.77 421.96 570.61 419.67 511.25"/><polygon class="cls-13" points="433.45 492.94 450.56 573.09 452.95 493.72 433.45 492.94"/><polygon class="cls-14" points="435.72 654.77 488.21 732.27 500.46 776.98 472.95 739.75 435.72 654.77"/><polygon class="cls-13" points="523.12 788.3 503.15 759.07 519.08 763.22 523.12 788.3"/><polygon class="cls-12" points="514.2 487.76 537.4 488.69 556.03 505.14 554.5 555.7 567.18 630.1 603.6 711.84 623.02 745.83 627.07 770.91 604.41 759.59 576.9 722.36 539.67 637.38 525.91 553.22 514.2 487.76"/><polygon class="cls-13" points="537.4 488.69 555.17 533.8 556.03 505.14 537.4 488.69"/><polygon class="cls-14" points="539.67 637.38 592.15 714.88 604.41 759.59 576.9 722.36 539.67 637.38"/><polygon class="cls-13" points="627.07 770.91 607.1 741.68 623.02 745.83 627.07 770.91"/><polygon class="cls-15" points="547.06 403.55 556.34 390.67 572.82 390.67 590.34 407.16 590.34 428.8 580.04 441.68 554.27 428.28 547.06 403.55"/><polygon class="cls-11" points="606.93 487.76 666.05 540.6 678.42 591.23 655.62 540.6 606.93 487.76"/><polygon class="cls-11" points="691.17 517.11 733.29 563.79 747.98 613.64 738.31 559.92 691.17 517.11"/><polygon class="cls-16" points="647.12 423.52 689.24 437.43 727.49 479.94 682.28 441.68 647.12 423.52"/><polygon class="cls-14" points="421.96 570.61 463.24 647.49 435.72 654.77 421.96 570.61"/><polygon class="cls-14" points="539.67 637.38 567.18 630.1 519.25 515.99 539.67 637.38"/><polygon class="cls-13" points="567.18 630.1 592.15 714.88 603.6 711.84 567.18 630.1"/><polygon class="cls-13" points="463.24 647.49 488.21 732.27 499.65 729.23 463.24 647.49"/><polygon class="cls-13" points="421.56 560.18 427.05 501.45 419.67 511.25 421.56 560.18"/><polygon class="cls-13" points="514.2 487.76 537.4 524.12 535.05 553.6 519.25 515.99 514.2 487.76"/><polygon class="cls-17" points="485.33 220.84 435.4 220.84 410.44 264.08 435.4 307.31 485.33 307.31 510.3 264.08 485.33 220.84"/><polygon class="cls-9" points="485.33 220.84 460.37 264.08 510.3 264.08 485.33 220.84"/><polygon class="cls-8" points="435.4 307.31 460.37 264.08 485.33 307.31 435.4 307.31"/><polygon class="cls-8" points="410.44 264.08 460.37 264.08 435.4 220.84 410.44 264.08"/><polygon class="cls-18" points="485.33 220.84 435.4 220.84 410.44 264.08 435.4 307.31 485.33 307.31 510.3 264.08 485.33 220.84"/></svg>