<svg width="31" height="30" viewBox="0 0 31 30" fill="none" xmlns="http://www.w3.org/2000/svg">
<path d="M28.7173 7.96999C28.3932 6.7651 27.4433 5.8153 26.2385 5.49086C24.0377 4.88867 15.234 4.88867 15.234 4.88867C15.234 4.88867 6.43072 4.88867 4.22985 5.46803C3.0483 5.79212 2.07516 6.76527 1.75106 7.96999C1.17188 10.1707 1.17188 14.7346 1.17188 14.7346C1.17188 14.7346 1.17188 19.3216 1.75106 21.4993C2.0755 22.704 3.02513 23.6538 4.23002 23.9782C6.45389 24.5806 15.2344 24.5806 15.2344 24.5806C15.2344 24.5806 24.0377 24.5806 26.2385 24.0013C27.4434 23.677 28.3932 22.7272 28.7177 21.5225C29.2967 19.3216 29.2967 14.7578 29.2967 14.7578C29.2967 14.7578 29.3199 10.1707 28.7173 7.96999ZM12.4311 18.951V10.5183L19.7518 14.7346L12.4311 18.951Z" fill="white"/>
</svg>
